<svg width="218" height="387" viewBox="0 0 218 387" fill="none" xmlns="http://www.w3.org/2000/svg">
    <path d="M0.97998 386.024H217.757V0.642567H0.97998V386.024Z" fill="white" />
    <mask id="mask0_50_4134" style="mask-type:luminance" maskUnits="userSpaceOnUse" x="0" y="0" width="218"
        height="387">
        <path d="M0.97998 386.024H217.757V0.642567H0.97998V386.024Z" fill="white" />
    </mask>
    <g mask="url(#mask0_50_4134)">
        <mask id="mask1_50_4134" style="mask-type:luminance" maskUnits="userSpaceOnUse" x="0" y="0" width="218"
            height="387">
            <path d="M0.97998 0.642567H217.757V386.024H0.97998V0.642567Z" fill="white" />
        </mask>
        <g mask="url(#mask1_50_4134)">
            <g opacity="0.25">
                <path d="M0.97998 386.024H217.757V0.642567H0.97998V386.024Z" fill="#FAAC01" />
            </g>
        </g>
        <mask id="mask2_50_4134" style="mask-type:luminance" maskUnits="userSpaceOnUse" x="-58" y="11" width="335"
            height="330">
            <path d="M-57.2933 11.9786H276.768V340.048H-57.2933V11.9786Z" fill="white" />
        </mask>
        <g mask="url(#mask2_50_4134)">
            <mask id="mask3_50_4134" style="mask-type:luminance" maskUnits="userSpaceOnUse" x="-1" y="173" width="278"
                height="168">
                <path d="M-0.833374 173.523H276.768V340.048H-0.833374V173.523Z" fill="white" />
            </mask>
            <g mask="url(#mask3_50_4134)">
                <mask id="mask4_50_4134" style="mask-type:luminance" maskUnits="userSpaceOnUse" x="-1" y="173"
                    width="278" height="168">
                    <path
                        d="M-0.833374 178.623V340.048H276.768C270.485 337.665 264.543 333.983 259.471 329.667C258.068 328.476 256.713 327.236 255.393 325.964C249.015 319.809 243.473 312.819 237.796 305.943C234.657 302.131 231.472 298.352 228.075 294.772C223.643 290.101 218.625 285.697 213.167 282.164C205.359 277.113 196.637 273.867 187.427 274.193C178.38 274.513 169.899 278.223 161.497 282.164C150.408 287.365 139.476 292.968 127.589 291.695C126.875 291.62 126.173 291.517 125.479 291.388C121.007 290.599 116.895 288.856 113.172 286.419C111.259 285.173 109.448 283.744 107.739 282.164C102.429 277.256 98.0786 270.905 94.7439 264.111C93.0279 260.632 91.5786 257.031 90.3933 253.451C84.4986 235.581 82.408 216.051 72.1493 200.271C64.696 188.8 52.9933 180.325 39.9573 176.24C32.6387 173.947 24.8919 173.041 17.2479 173.769C10.9919 174.361 4.88529 176.043 -0.833374 178.623Z"
                        fill="white" />
                </mask>
                <g mask="url(#mask4_50_4134)">
                    <mask id="mask5_50_4134" style="mask-type:luminance" maskUnits="userSpaceOnUse" x="-44434"
                        y="-43163" width="87381" height="87381">
                        <path d="M-44433.7 -43162.7H42946.3V44217.3H-44433.7V-43162.7Z"
                            fill="url(#paint0_linear_50_4134)" />
                    </mask>
                    <g mask="url(#mask5_50_4134)">
                        <path
                            d="M-0.832031 178.622V340.047H276.769C270.487 337.664 264.544 333.982 259.472 329.666C258.069 328.475 256.715 327.235 255.395 325.963C249.016 319.808 243.475 312.818 237.797 305.942C234.659 302.13 231.473 298.351 228.076 294.771C223.644 290.1 218.627 285.696 213.168 282.163C205.36 277.112 196.639 273.866 187.428 274.192C178.381 274.512 169.9 278.222 161.499 282.163C150.409 287.364 139.477 292.967 127.591 291.694C126.876 291.619 126.175 291.516 125.48 291.387C121.008 290.598 116.896 288.855 113.173 286.418C111.26 285.172 109.449 283.743 107.74 282.163C102.431 277.255 98.0799 270.904 94.7453 264.11C93.0293 260.631 91.5799 257.03 90.3946 253.45C84.4999 235.58 82.4093 216.05 72.1506 200.27C64.6973 188.799 52.9947 180.324 39.9587 176.239C32.64 173.946 24.8933 173.04 17.2493 173.768C10.9933 174.36 4.88664 176.042 -0.832031 178.622Z"
                            fill="url(#paint1_linear_50_4134)" />
                    </g>
                </g>
            </g>
            <mask id="mask6_50_4134" style="mask-type:luminance" maskUnits="userSpaceOnUse" x="-58" y="39" width="279"
                height="167">
                <path d="M-57.2933 39.1744H220.308V205.7H-57.2933V39.1744Z" fill="white" />
            </mask>
            <g mask="url(#mask6_50_4134)">
                <mask id="mask7_50_4134" style="mask-type:luminance" maskUnits="userSpaceOnUse" x="-58" y="39"
                    width="279" height="167">
                    <path
                        d="M220.308 44.2744V205.7H-57.2933C-51.0107 203.317 -45.0681 199.633 -39.9961 195.318C-38.5934 194.126 -37.2387 192.888 -35.9187 191.614C-29.5401 185.461 -23.9987 178.469 -18.3214 171.594C-15.1827 167.781 -11.9974 164.004 -8.60006 160.422C-4.16806 155.753 0.849319 151.349 6.30799 147.816C14.116 142.764 22.8373 139.517 32.048 139.844C41.0946 140.164 49.5759 143.874 57.9773 147.816C69.0666 153.016 79.9986 158.618 91.8853 157.346C92.6 157.27 93.3013 157.169 93.996 157.04C98.468 156.25 102.58 154.508 106.303 152.07C108.216 150.824 110.027 149.394 111.736 147.816C117.045 142.908 121.396 136.556 124.731 129.762C126.447 126.284 127.896 122.682 129.081 119.101C134.976 101.232 137.067 81.7011 147.325 65.9211C154.779 54.4504 166.481 45.9757 179.517 41.8917C186.836 39.5971 194.583 38.6917 202.227 39.4197C208.483 40.0117 214.589 41.6944 220.308 44.2744Z"
                        fill="white" />
                </mask>
                <g mask="url(#mask7_50_4134)">
                    <mask id="mask8_50_4134" style="mask-type:luminance" maskUnits="userSpaceOnUse" x="-44434"
                        y="-43163" width="87381" height="87381">
                        <path d="M-44433.7 -43162.7H42946.3V44217.3H-44433.7V-43162.7Z"
                            fill="url(#paint2_linear_50_4134)" />
                    </mask>
                    <g mask="url(#mask8_50_4134)">
                        <path
                            d="M220.308 44.2739V205.699H-57.293C-51.0103 203.317 -45.0677 199.633 -39.9957 195.318C-38.593 194.126 -37.2384 192.887 -35.9184 191.614C-29.5397 185.461 -23.9984 178.469 -18.321 171.594C-15.1824 167.781 -11.997 164.003 -8.59969 160.422C-4.16769 155.753 0.849685 151.349 6.30835 147.815C14.1164 142.763 22.8377 139.517 32.0483 139.843C41.095 140.163 49.5763 143.874 57.9776 147.815C69.067 153.015 79.999 158.618 91.8857 157.346C92.6003 157.27 93.3017 157.169 93.9963 157.039C98.4683 156.25 102.58 154.507 106.303 152.07C108.216 150.823 110.027 149.394 111.736 147.815C117.046 142.907 121.396 136.555 124.731 129.762C126.447 126.283 127.896 122.682 129.082 119.101C134.976 101.231 137.067 81.7006 147.326 65.9206C154.779 54.4499 166.482 45.9752 179.518 41.8912C186.836 39.5966 194.583 38.6912 202.227 39.4192C208.483 40.0112 214.59 41.6939 220.308 44.2739Z"
                            fill="url(#paint3_linear_50_4134)" />
                    </g>
                </g>
            </g>
            <mask id="mask9_50_4134" style="mask-type:luminance" maskUnits="userSpaceOnUse" x="-7" y="11" width="279"
                height="168">
                <path d="M-6.13739 11.9786H271.464V178.504H-6.13739V11.9786Z" fill="white" />
            </mask>
            <g mask="url(#mask9_50_4134)">
                <mask id="mask10_50_4134" style="mask-type:luminance" maskUnits="userSpaceOnUse" x="-7" y="11"
                    width="279" height="168">
                    <path
                        d="M-6.13739 17.0786V178.504H271.464C265.181 176.121 259.239 172.439 254.167 168.123C252.764 166.932 251.409 165.692 250.089 164.42C243.711 158.265 238.169 151.275 232.492 144.399C229.353 140.587 226.168 136.808 222.771 133.228C218.339 128.557 213.321 124.153 207.863 120.62C200.055 115.569 191.333 112.321 182.124 112.649C173.076 112.968 164.595 116.679 156.193 120.62C145.104 125.821 134.172 131.424 122.285 130.151C121.571 130.076 120.869 129.973 120.176 129.844C115.703 129.055 111.591 127.312 107.868 124.875C105.955 123.629 104.144 122.2 102.435 120.62C97.1253 115.712 92.776 109.361 89.44 102.567C87.724 99.0879 86.2747 95.4866 85.0893 91.9066C79.1947 74.0372 77.1039 54.5066 66.8453 38.7266C59.3919 27.2559 47.6893 18.7799 34.6533 14.6959C27.3346 12.4026 19.588 11.4959 11.944 12.2253C5.68799 12.8173 -0.418724 14.4986 -6.13739 17.0786Z"
                        fill="white" />
                </mask>
                <g mask="url(#mask10_50_4134)">
                    <mask id="mask11_50_4134" style="mask-type:luminance" maskUnits="userSpaceOnUse" x="-44434"
                        y="-43163" width="87381" height="87381">
                        <path d="M-44433.7 -43162.7H42946.3V44217.3H-44433.7V-43162.7Z"
                            fill="url(#paint4_linear_50_4134)" />
                    </mask>
                    <g mask="url(#mask11_50_4134)">
                        <path
                            d="M-6.13672 17.0786V178.504H271.465C265.182 176.121 259.239 172.439 254.167 168.123C252.765 166.932 251.41 165.692 250.09 164.42C243.711 158.265 238.17 151.275 232.493 144.399C229.354 140.587 226.169 136.808 222.771 133.228C218.339 128.557 213.322 124.153 207.863 120.62C200.055 115.569 191.334 112.321 182.125 112.649C173.077 112.968 164.595 116.679 156.194 120.62C145.105 125.821 134.173 131.424 122.286 130.151C121.571 130.076 120.87 129.973 120.177 129.844C115.703 129.055 111.591 127.312 107.869 124.875C105.955 123.629 104.145 122.2 102.435 120.62C97.126 115.712 92.7767 109.361 89.4407 102.567C87.7247 99.0879 86.2753 95.4866 85.09 91.9066C79.1953 74.0372 77.1046 54.5066 66.8459 38.7266C59.3926 27.2559 47.69 18.7799 34.654 14.6959C27.3353 12.4026 19.5887 11.4959 11.9447 12.2253C5.68866 12.8173 -0.418052 14.4986 -6.13672 17.0786Z"
                            fill="url(#paint5_linear_50_4134)" />
                    </g>
                </g>
            </g>
            <mask id="mask12_50_4134" style="mask-type:luminance" maskUnits="userSpaceOnUse" x="86" y="140" width="146"
                height="67">
                <path d="M86.7253 140.74H231.413V206.617H86.7253V140.74Z" fill="white" />
            </mask>
            <g mask="url(#mask12_50_4134)">
                <mask id="mask13_50_4134" style="mask-type:luminance" maskUnits="userSpaceOnUse" x="86" y="140"
                    width="146" height="67">
                    <path
                        d="M230.864 206.617H86.7253C93.0093 204.235 98.952 200.552 104.024 196.236C105.425 195.045 106.78 193.807 108.101 192.533C114.48 186.379 120.021 179.388 125.699 172.512C128.837 168.7 132.023 164.923 135.42 161.341C139.851 156.672 144.868 152.267 150.328 148.733C158.136 143.683 166.856 140.436 176.067 140.763C185.115 141.083 193.596 144.792 201.996 148.733C211.676 153.273 221.236 158.116 231.413 158.429C231.22 174.493 230.871 190.56 230.864 206.617Z"
                        fill="white" />
                </mask>
                <g mask="url(#mask13_50_4134)">
                    <mask id="mask14_50_4134" style="mask-type:luminance" maskUnits="userSpaceOnUse" x="-44434"
                        y="-43163" width="87381" height="87381">
                        <path d="M-44433.7 -43162.7H42946.3V44217.3H-44433.7V-43162.7Z"
                            fill="url(#paint6_linear_50_4134)" />
                    </mask>
                    <g mask="url(#mask14_50_4134)">
                        <path
                            d="M230.865 206.617H86.7266C93.0106 204.235 98.9532 200.552 104.025 196.236C105.427 195.045 106.781 193.807 108.103 192.533C114.481 186.379 120.023 179.388 125.7 172.512C128.839 168.7 132.024 164.923 135.421 161.341C139.852 156.672 144.869 152.267 150.329 148.733C158.137 143.683 166.857 140.436 176.068 140.763C185.116 141.083 193.597 144.792 201.997 148.733C211.677 153.273 221.237 158.116 231.415 158.429C231.221 174.493 230.872 190.56 230.865 206.617Z"
                            fill="url(#paint7_linear_50_4134)" />
                    </g>
                </g>
            </g>
        </g>
    </g>
    <path d="M30.6487 259.72L35.9541 251.967L40.6461 259.108L35.7501 267.065L30.6487 259.72Z" fill="#FAAC01" />
    <path d="M35.7497 267.065L35.0497 323.684" stroke="#001E2B" stroke-width="0.509333" stroke-miterlimit="10"
        stroke-linecap="round" stroke-linejoin="round" />
    <path d="M31.4651 314.613L35.2544 310.422L38.6064 314.282L35.1091 318.583L31.4651 314.613Z" fill="#FAAC01" />
    <mask id="mask15_50_4134" style="mask-type:luminance" maskUnits="userSpaceOnUse" x="0" y="0" width="218"
        height="387">
        <path d="M0.97998 386.024H217.757V0.642567H0.97998V386.024Z" fill="white" />
    </mask>
    <g mask="url(#mask15_50_4134)">
        <path
            d="M49.1137 292.059C49.1137 299.58 43.0164 305.678 35.4951 305.678C27.9724 305.678 21.8751 299.58 21.8751 292.059C21.8751 284.538 27.9724 278.44 35.4951 278.44C43.0164 278.44 49.1137 284.538 49.1137 292.059Z"
            fill="#8E0413" />
        <path
            d="M47.8895 292.059C47.8895 298.904 42.3402 304.454 35.4948 304.454C28.6495 304.454 23.1002 298.904 23.1002 292.059C23.1002 285.214 28.6495 279.664 35.4948 279.664C42.3402 279.664 47.8895 285.214 47.8895 292.059Z"
            stroke="white" stroke-width="0.678667" stroke-miterlimit="10" />
        <path d="M38.2493 294.354H32.74V288.845H38.2493V294.354Z" fill="#F3F4F6" />
        <path
            d="M38.9121 340.21H31.3628V327.152C31.3628 325.068 33.0535 323.378 35.1375 323.378C37.2228 323.378 38.9121 325.068 38.9121 327.152V340.21Z"
            fill="#8E0413" />
        <path
            d="M36.0604 251.981C36.0604 251.981 30.6271 238.823 36.1524 238.655C41.6777 238.487 36.0604 251.981 36.0604 251.981Z"
            stroke="#001E2B" stroke-width="0.509333" stroke-miterlimit="10" stroke-linecap="round"
            stroke-linejoin="round" />
        <path d="M36.152 160.522V-2.22202" stroke="#001E2B" stroke-width="0.465333" stroke-miterlimit="10"
            stroke-linecap="round" stroke-linejoin="round" />
        <path d="M36.152 238.655V176.013" stroke="#001E2B" stroke-width="0.465333" stroke-miterlimit="10"
            stroke-linecap="round" stroke-linejoin="round" />
        <path d="M29.0328 168.832L36.1541 160.522L42.0901 169.068" stroke="#001E2B" stroke-width="0.465333"
            stroke-miterlimit="10" stroke-linecap="round" stroke-linejoin="round" />
        <path
            d="M42.0479 221.299L29.1985 221.3C24.0625 221.302 19.8985 217.139 19.8985 212.003L19.8945 180.27C19.8932 175.134 24.0559 170.97 29.1919 170.97L42.0412 170.967C46.9199 170.967 50.8759 174.922 50.8759 179.8L50.8799 212.464C50.8812 217.343 46.9265 221.299 42.0479 221.299Z"
            fill="#FAAC01" />
        <mask id="mask16_50_4134" style="mask-type:luminance" maskUnits="userSpaceOnUse" x="19" y="170" width="32"
            height="52">
            <path d="M19.8933 170.966H50.88V221.3H19.8933V170.966Z" fill="white" />
        </mask>
        <g mask="url(#mask16_50_4134)">
            <g opacity="0.350006">
                <path
                    d="M42.0479 221.299L29.1985 221.3C24.0625 221.302 19.8985 217.139 19.8985 212.003L19.8945 180.27C19.8932 175.134 24.0559 170.97 29.1919 170.97L42.0412 170.967C46.9199 170.967 50.8759 174.922 50.8759 179.8L50.8799 212.464C50.8812 217.343 46.9265 221.299 42.0479 221.299Z"
                    fill="#FAAC01" />
            </g>
        </g>
        <path
            d="M47.7903 176.716L47.7943 209.377C47.7943 209.837 47.757 210.284 47.693 210.725C47.6783 210.805 47.669 210.88 47.6503 210.958C47.4783 211.921 47.149 212.832 46.6836 213.66C46.6423 213.738 46.601 213.817 46.5543 213.892C45.9223 214.957 45.0663 215.877 44.057 216.589C43.9463 216.668 43.8303 216.746 43.713 216.821C42.3423 217.7 40.7143 218.212 38.9623 218.212L26.1116 218.214C24.3356 218.214 22.6756 217.717 21.2663 216.852C21.2623 216.842 21.257 216.833 21.2476 216.824C21.201 216.75 21.1596 216.67 21.113 216.592C20.6383 215.764 20.2903 214.858 20.0943 213.896C20.0756 213.817 20.0623 213.742 20.0476 213.662C19.9503 213.124 19.8996 212.57 19.8983 212.004L19.8943 180.266C19.8943 179.741 19.937 179.225 20.025 178.728C20.0343 178.649 20.0476 178.57 20.0663 178.496C20.2476 177.533 20.5823 176.626 21.0423 175.798C21.0796 175.72 21.1263 175.641 21.173 175.566C21.7863 174.516 22.5996 173.6 23.5623 172.865C23.669 172.785 23.7756 172.706 23.8823 172.632C25.385 171.581 27.2156 170.968 29.1916 170.966L42.0436 170.965C43.693 170.965 45.233 171.416 46.553 172.201C46.637 172.341 46.7156 172.485 46.7903 172.629C46.8316 172.708 46.8743 172.782 46.9023 172.861C47.3156 173.693 47.5903 174.605 47.7156 175.562C47.725 175.641 47.7343 175.716 47.7436 175.796C47.777 176.097 47.7903 176.404 47.7903 176.716Z"
            fill="#FAAC01" />
        <mask id="mask17_50_4134" style="mask-type:luminance" maskUnits="userSpaceOnUse" x="19" y="172" width="29"
            height="45">
            <path d="M19.8947 172.86H47.7946V216.825H19.8947V172.86Z" fill="white" />
        </mask>
        <g mask="url(#mask17_50_4134)">
            <g opacity="0.399994">
                <path
                    d="M46.9014 173.092L23.5614 173.094C23.6681 173.016 23.7761 172.937 23.8827 172.864L46.7894 172.861C46.8321 172.938 46.8734 173.013 46.9014 173.092Z"
                    fill="#F3F4F6" />
                <path
                    d="M47.7434 176.01L21.0421 176.014C21.0794 175.935 21.1261 175.857 21.1728 175.782L47.7154 175.779C47.7248 175.857 47.7341 175.931 47.7434 176.01Z"
                    fill="#F3F4F6" />
                <path
                    d="M47.7903 178.693V178.923L20.025 178.927C20.0343 178.849 20.0476 178.77 20.0663 178.697L47.7903 178.693Z"
                    fill="#F3F4F6" />
                <path d="M47.7907 181.606V181.837L19.8947 181.841V181.61L47.7907 181.606Z" fill="#F3F4F6" />
                <path d="M47.7911 184.525V184.755L19.8951 184.759V184.529L47.7911 184.525Z" fill="#F3F4F6" />
                <path d="M47.7913 187.438V187.669L19.8953 187.673V187.442L47.7913 187.438Z" fill="#F3F4F6" />
                <path d="M47.7918 190.352V190.583L19.8958 190.587V190.356L47.7918 190.352Z" fill="#F3F4F6" />
                <path d="M47.7921 193.271V193.501L19.8961 193.505V193.275L47.7921 193.271Z" fill="#F3F4F6" />
                <path d="M47.7925 196.184V196.415L19.8965 196.419V196.188L47.7925 196.184Z" fill="#F3F4F6" />
                <path d="M47.793 199.098V199.329L19.897 199.333V199.102L47.793 199.098Z" fill="#F3F4F6" />
                <path d="M47.7933 202.016V202.247L19.8973 202.251V202.02L47.7933 202.016Z" fill="#F3F4F6" />
                <path d="M47.7937 204.93V205.161L19.8977 205.165V204.934L47.7937 204.93Z" fill="#F3F4F6" />
                <path d="M47.794 207.844V208.075L19.898 208.079V207.848L47.794 207.844Z" fill="#F3F4F6" />
                <path
                    d="M47.6923 210.758C47.679 210.837 47.6697 210.91 47.651 210.989L19.899 210.993V210.762L47.6923 210.758Z"
                    fill="#F3F4F6" />
                <path
                    d="M46.6837 213.676C46.6424 213.755 46.5997 213.834 46.5531 213.907L20.0944 213.911C20.0757 213.832 20.0611 213.759 20.0477 213.68L46.6837 213.676Z"
                    fill="#F3F4F6" />
                <path
                    d="M44.0572 216.591C43.9452 216.669 43.8292 216.748 43.7132 216.823L21.2478 216.825C21.2012 216.751 21.1585 216.672 21.1132 216.593L44.0572 216.591Z"
                    fill="#F3F4F6" />
            </g>
        </g>
        <path d="M42.9612 170.967L28.0839 170.968L28.0825 168.595L42.9612 168.592V170.967Z" fill="#8E0413" />
        <path d="M42.9681 223.673L28.0908 223.674L28.0894 221.301L42.9681 221.298V223.673Z" fill="#8E0413" />
        <path d="M28.9607 223.121L28.962 229.847" stroke="#001E2B" stroke-width="0.465333" stroke-miterlimit="10"
            stroke-linecap="round" stroke-linejoin="round" />
        <path d="M29.7767 223.121L29.7781 229.847" stroke="#001E2B" stroke-width="0.465333" stroke-miterlimit="10"
            stroke-linecap="round" stroke-linejoin="round" />
        <path d="M30.5929 223.121L30.5942 229.847" stroke="#001E2B" stroke-width="0.465333" stroke-miterlimit="10"
            stroke-linecap="round" stroke-linejoin="round" />
        <path d="M31.4091 223.121L31.4104 229.847" stroke="#001E2B" stroke-width="0.465333" stroke-miterlimit="10"
            stroke-linecap="round" stroke-linejoin="round" />
        <path d="M32.2252 223.12L32.2265 229.847" stroke="#001E2B" stroke-width="0.465333" stroke-miterlimit="10"
            stroke-linecap="round" stroke-linejoin="round" />
        <path d="M33.0411 223.12L33.0425 229.847" stroke="#001E2B" stroke-width="0.465333" stroke-miterlimit="10"
            stroke-linecap="round" stroke-linejoin="round" />
        <path d="M33.8573 223.12L33.8586 229.847" stroke="#001E2B" stroke-width="0.465333" stroke-miterlimit="10"
            stroke-linecap="round" stroke-linejoin="round" />
        <path d="M34.6735 223.12L34.6748 229.847" stroke="#001E2B" stroke-width="0.465333" stroke-miterlimit="10"
            stroke-linecap="round" stroke-linejoin="round" />
        <path d="M35.4896 223.12L35.4909 229.847" stroke="#001E2B" stroke-width="0.465333" stroke-miterlimit="10"
            stroke-linecap="round" stroke-linejoin="round" />
        <path d="M36.3057 223.12L36.3071 229.846" stroke="#001E2B" stroke-width="0.465333" stroke-miterlimit="10"
            stroke-linecap="round" stroke-linejoin="round" />
        <path d="M37.1218 223.12L37.1232 229.846" stroke="#001E2B" stroke-width="0.465333" stroke-miterlimit="10"
            stroke-linecap="round" stroke-linejoin="round" />
        <path d="M37.9379 223.12L37.9392 229.846" stroke="#001E2B" stroke-width="0.465333" stroke-miterlimit="10"
            stroke-linecap="round" stroke-linejoin="round" />
        <path d="M38.7542 223.12L38.7555 229.846" stroke="#001E2B" stroke-width="0.465333" stroke-miterlimit="10"
            stroke-linecap="round" stroke-linejoin="round" />
        <path d="M39.5701 223.119L39.5715 229.846" stroke="#001E2B" stroke-width="0.465333" stroke-miterlimit="10"
            stroke-linecap="round" stroke-linejoin="round" />
        <path d="M40.3862 223.119L40.3876 229.846" stroke="#001E2B" stroke-width="0.465333" stroke-miterlimit="10"
            stroke-linecap="round" stroke-linejoin="round" />
        <path d="M41.2024 223.119L41.2037 229.846" stroke="#001E2B" stroke-width="0.465333" stroke-miterlimit="10"
            stroke-linecap="round" stroke-linejoin="round" />
        <path d="M42.0186 223.119L42.0199 229.846" stroke="#001E2B" stroke-width="0.465333" stroke-miterlimit="10"
            stroke-linecap="round" stroke-linejoin="round" />
        <path d="M31.2059 67.7367L36.5112 59.9834L41.2032 67.1247L36.3072 75.082L31.2059 67.7367Z" fill="#FAAC01" />
        <path d="M32.4847 130.179L36.2741 125.988L39.6261 129.848L36.1287 134.149L32.4847 130.179Z" fill="#8E0413" />
        <path d="M32.4847 146.808L36.2741 142.617L39.6261 146.477L36.1287 150.779L32.4847 146.808Z" fill="#FAAC01" />
        <path d="M32.4847 37.1846L36.2741 32.9939L39.6261 36.8539L36.1287 41.1553L32.4847 37.1846Z" fill="#8E0413" />
        <path
            d="M154.884 159.288L142.035 159.289C136.899 159.29 132.735 155.128 132.735 149.992L132.731 118.258C132.73 113.122 136.892 108.958 142.028 108.958L154.878 108.956C159.756 108.956 163.712 112.91 163.712 117.789L163.716 150.453C163.718 155.332 159.763 159.288 154.884 159.288Z"
            fill="#FAAC01" />
        <mask id="mask18_50_4134" style="mask-type:luminance" maskUnits="userSpaceOnUse" x="132" y="108" width="32"
            height="52">
            <path d="M132.731 108.956H163.717V159.289H132.731V108.956Z" fill="white" />
        </mask>
        <g mask="url(#mask18_50_4134)">
            <g opacity="0.350006">
                <path
                    d="M154.884 159.287L142.035 159.289C136.899 159.29 132.735 155.127 132.735 149.991L132.731 118.258C132.73 113.122 136.892 108.958 142.028 108.958L154.878 108.955C159.756 108.955 163.712 112.91 163.712 117.789L163.716 150.453C163.718 155.331 159.763 159.287 154.884 159.287Z"
                    fill="#FAAC01" />
            </g>
        </g>
        <path d="M141.869 106.821L148.99 98.5105L154.926 107.057" stroke="#001E2B" stroke-width="0.465333"
            stroke-miterlimit="10" stroke-linecap="round" stroke-linejoin="round" />
        <path d="M148.99 98.5103L148.988 -17.3564" stroke="#001E2B" stroke-width="0.465333" stroke-miterlimit="10"
            stroke-linecap="round" stroke-linejoin="round" />
        <path
            d="M160.627 114.704L160.631 147.366C160.631 147.826 160.593 148.272 160.529 148.714C160.515 148.794 160.505 148.868 160.487 148.947C160.315 149.91 159.985 150.82 159.52 151.648C159.479 151.727 159.436 151.806 159.391 151.88C158.757 152.946 157.903 153.866 156.893 154.578C156.783 154.656 156.665 154.736 156.549 154.81C155.179 155.688 153.551 156.2 151.799 156.2L138.948 156.203C137.172 156.203 135.512 155.706 134.103 154.84C134.099 154.831 134.093 154.822 134.084 154.814C134.037 154.739 133.996 154.659 133.949 154.58C133.475 153.754 133.127 152.847 132.931 151.884C132.912 151.806 132.899 151.731 132.884 151.651C132.787 151.112 132.735 150.559 132.735 149.992L132.731 118.255C132.731 117.73 132.773 117.214 132.861 116.716C132.871 116.638 132.884 116.559 132.903 116.484C133.084 115.522 133.419 114.615 133.879 113.787C133.916 113.708 133.963 113.63 134.009 113.555C134.623 112.504 135.436 111.588 136.399 110.854C136.505 110.774 136.612 110.695 136.719 110.62C138.221 109.57 140.052 108.956 142.028 108.955L154.88 108.954C156.529 108.954 158.069 109.404 159.389 110.19C159.473 110.33 159.552 110.474 159.627 110.618C159.668 110.696 159.711 110.771 159.739 110.85C160.152 111.683 160.427 112.594 160.552 113.551C160.561 113.631 160.571 113.704 160.58 113.784C160.613 114.086 160.627 114.392 160.627 114.704Z"
            fill="#FAAC01" />
        <mask id="mask19_50_4134" style="mask-type:luminance" maskUnits="userSpaceOnUse" x="132" y="110" width="29"
            height="45">
            <path d="M132.731 110.849H160.631V154.813H132.731V110.849Z" fill="white" />
        </mask>
        <g mask="url(#mask19_50_4134)">
            <g opacity="0.399994">
                <path
                    d="M159.738 111.08L136.398 111.083C136.505 111.004 136.613 110.926 136.719 110.852L159.626 110.85C159.669 110.927 159.71 111.002 159.738 111.08Z"
                    fill="#F3F4F6" />
                <path
                    d="M160.58 113.999L133.878 114.003C133.916 113.924 133.962 113.846 134.009 113.771L160.552 113.768C160.561 113.847 160.57 113.92 160.58 113.999Z"
                    fill="#F3F4F6" />
                <path
                    d="M160.627 116.681V116.912L132.861 116.916C132.871 116.837 132.884 116.759 132.903 116.685L160.627 116.681Z"
                    fill="#F3F4F6" />
                <path d="M160.627 119.595V119.826L132.731 119.83V119.599L160.627 119.595Z" fill="#F3F4F6" />
                <path d="M160.627 122.513V122.744L132.731 122.748V122.517L160.627 122.513Z" fill="#F3F4F6" />
                <path d="M160.628 125.427V125.658L132.732 125.662V125.431L160.628 125.427Z" fill="#F3F4F6" />
                <path d="M160.628 128.341V128.572L132.732 128.576V128.345L160.628 128.341Z" fill="#F3F4F6" />
                <path d="M160.629 131.259V131.49L132.733 131.494V131.263L160.629 131.259Z" fill="#F3F4F6" />
                <path d="M160.629 134.174V134.404L132.733 134.408V134.178L160.629 134.174Z" fill="#F3F4F6" />
                <path d="M160.629 137.087V137.318L132.733 137.322V137.091L160.629 137.087Z" fill="#F3F4F6" />
                <path d="M160.63 140.006V140.236L132.734 140.24V140.01L160.63 140.006Z" fill="#F3F4F6" />
                <path d="M160.63 142.919V143.15L132.734 143.154V142.923L160.63 142.919Z" fill="#F3F4F6" />
                <path d="M160.63 145.833V146.063L132.734 146.067V145.837L160.63 145.833Z" fill="#F3F4F6" />
                <path
                    d="M160.529 148.747C160.515 148.825 160.506 148.899 160.487 148.977L132.735 148.981V148.751L160.529 148.747Z"
                    fill="#F3F4F6" />
                <path
                    d="M159.52 151.665C159.479 151.744 159.436 151.823 159.389 151.896L132.931 151.9C132.912 151.821 132.897 151.748 132.884 151.669L159.52 151.665Z"
                    fill="#F3F4F6" />
                <path
                    d="M156.893 154.579C156.781 154.658 156.665 154.737 156.549 154.811L134.084 154.814C134.037 154.739 133.996 154.661 133.949 154.582L156.893 154.579Z"
                    fill="#F3F4F6" />
            </g>
        </g>
        <path d="M155.798 108.956L140.92 108.957L140.919 106.584L155.798 106.581V108.956Z" fill="#8E0413" />
        <path d="M155.805 161.662L140.927 161.663L140.926 159.29L155.805 159.287V161.662Z" fill="#8E0413" />
        <path d="M141.797 161.109L141.798 167.836" stroke="#001E2B" stroke-width="0.465333" stroke-miterlimit="10"
            stroke-linecap="round" stroke-linejoin="round" />
        <path d="M142.613 161.109L142.615 167.836" stroke="#001E2B" stroke-width="0.465333" stroke-miterlimit="10"
            stroke-linecap="round" stroke-linejoin="round" />
        <path d="M143.429 161.109L143.431 167.836" stroke="#001E2B" stroke-width="0.465333" stroke-miterlimit="10"
            stroke-linecap="round" stroke-linejoin="round" />
        <path d="M144.245 161.109L144.247 167.835" stroke="#001E2B" stroke-width="0.465333" stroke-miterlimit="10"
            stroke-linecap="round" stroke-linejoin="round" />
        <path d="M145.062 161.109L145.063 167.835" stroke="#001E2B" stroke-width="0.465333" stroke-miterlimit="10"
            stroke-linecap="round" stroke-linejoin="round" />
        <path d="M145.878 161.109L145.879 167.835" stroke="#001E2B" stroke-width="0.465333" stroke-miterlimit="10"
            stroke-linecap="round" stroke-linejoin="round" />
        <path d="M146.694 161.109L146.695 167.835" stroke="#001E2B" stroke-width="0.465333" stroke-miterlimit="10"
            stroke-linecap="round" stroke-linejoin="round" />
        <path d="M147.51 161.109L147.511 167.835" stroke="#001E2B" stroke-width="0.465333" stroke-miterlimit="10"
            stroke-linecap="round" stroke-linejoin="round" />
        <path d="M148.326 161.108L148.328 167.835" stroke="#001E2B" stroke-width="0.465333" stroke-miterlimit="10"
            stroke-linecap="round" stroke-linejoin="round" />
        <path d="M149.142 161.108L149.143 167.835" stroke="#001E2B" stroke-width="0.465333" stroke-miterlimit="10"
            stroke-linecap="round" stroke-linejoin="round" />
        <path d="M149.958 161.108L149.96 167.835" stroke="#001E2B" stroke-width="0.465333" stroke-miterlimit="10"
            stroke-linecap="round" stroke-linejoin="round" />
        <path d="M150.774 161.108L150.776 167.835" stroke="#001E2B" stroke-width="0.465333" stroke-miterlimit="10"
            stroke-linecap="round" stroke-linejoin="round" />
        <path d="M151.59 161.108L151.592 167.835" stroke="#001E2B" stroke-width="0.465333" stroke-miterlimit="10"
            stroke-linecap="round" stroke-linejoin="round" />
        <path d="M152.406 161.108L152.408 167.834" stroke="#001E2B" stroke-width="0.465333" stroke-miterlimit="10"
            stroke-linecap="round" stroke-linejoin="round" />
        <path d="M153.223 161.108L153.224 167.834" stroke="#001E2B" stroke-width="0.465333" stroke-miterlimit="10"
            stroke-linecap="round" stroke-linejoin="round" />
        <path d="M154.039 161.108L154.04 167.834" stroke="#001E2B" stroke-width="0.465333" stroke-miterlimit="10"
            stroke-linecap="round" stroke-linejoin="round" />
        <path d="M154.855 161.108L154.856 167.834" stroke="#001E2B" stroke-width="0.465333" stroke-miterlimit="10"
            stroke-linecap="round" stroke-linejoin="round" />
        <path d="M143.888 24.8217L149.193 17.0683L153.885 24.2097L148.989 32.167L143.888 24.8217Z" fill="#FAAC01" />
        <path d="M143.888 77.6566L149.193 69.9033L153.885 77.0446L148.989 85.002L143.888 77.6566Z" fill="#FAAC01" />
        <path d="M145.347 51.1543L149.137 46.9637L152.489 50.8237L148.991 55.125L145.347 51.1543Z" fill="#8E0413" />
        <path d="M183.958 61.1151L189.263 53.3618L193.955 60.5031L189.059 68.4604L183.958 61.1151Z" fill="#FAAC01" />
        <path d="M189.058 68.4604L188.358 125.079" stroke="#001E2B" stroke-width="0.509333" stroke-miterlimit="10"
            stroke-linecap="round" stroke-linejoin="round" />
        <path d="M184.774 116.008L188.563 111.817L191.915 115.677L188.418 119.979L184.774 116.008Z" fill="#FAAC01" />
        <path
            d="M202.423 93.4541C202.423 100.975 196.325 107.073 188.804 107.073C181.283 107.073 175.184 100.975 175.184 93.4541C175.184 85.9328 181.283 79.8354 188.804 79.8354C196.325 79.8354 202.423 85.9328 202.423 93.4541Z"
            fill="#8E0413" />
        <path
            d="M201.198 93.454C201.198 100.299 195.649 105.849 188.804 105.849C181.958 105.849 176.409 100.299 176.409 93.454C176.409 86.6086 181.958 81.0593 188.804 81.0593C195.649 81.0593 201.198 86.6086 201.198 93.454Z"
            stroke="white" stroke-width="0.678667" stroke-miterlimit="10" />
        <path d="M191.557 95.7495H186.048V90.2402H191.557V95.7495Z" fill="#F3F4F6" />
        <path
            d="M192.221 141.605H184.672V128.547C184.672 126.463 186.362 124.773 188.446 124.773C190.532 124.773 192.221 126.463 192.221 128.547V141.605Z"
            fill="#8E0413" />
        <path
            d="M189.369 53.377C189.369 53.377 183.936 40.2183 189.461 40.0503C194.987 39.8823 189.369 53.377 189.369 53.377Z"
            stroke="#001E2B" stroke-width="0.509333" stroke-miterlimit="10" stroke-linecap="round"
            stroke-linejoin="round" />
        <path d="M189.461 40.0498V-151.513" stroke="#001E2B" stroke-width="0.509333" stroke-miterlimit="10"
            stroke-linecap="round" stroke-linejoin="round" />
        <path
            d="M122.144 99.13C122.161 100.227 122.137 101.298 122.045 102.369C122.047 102.493 122.035 102.602 122.023 102.713C121.932 103.949 121.773 105.158 121.545 106.355C121.533 106.466 121.508 106.589 121.483 106.699C121.256 107.951 120.945 109.163 120.581 110.363C120.555 110.487 120.516 110.597 120.476 110.707C120.085 111.962 119.637 113.177 119.121 114.365C119.068 114.489 119.016 114.599 118.963 114.71C118.407 115.981 117.768 117.213 117.06 118.39C117.007 118.514 116.94 118.625 116.859 118.735C116.084 120.01 115.239 121.245 114.311 122.411C114.231 122.537 114.136 122.647 114.028 122.759C112.993 124.066 111.847 125.305 110.631 126.449C110.508 126.574 110.387 126.686 110.252 126.798C108.764 128.166 107.179 129.413 105.481 130.523C105.292 130.635 105.115 130.762 104.925 130.875C104.001 131.466 103.049 132.002 102.069 132.498L69.7292 133.013C68.7345 132.549 67.7652 132.043 66.8239 131.482C66.6305 131.375 66.4492 131.254 66.2559 131.147C64.5239 130.091 62.8999 128.897 61.3705 127.577C61.2319 127.469 61.1065 127.361 60.9812 127.239C59.7279 126.135 58.5425 124.933 57.4665 123.661C57.3545 123.553 57.2572 123.445 57.1732 123.322C56.2079 122.185 55.3252 120.978 54.5092 119.729C54.4252 119.621 54.3545 119.511 54.2985 119.39C53.5532 118.235 52.8745 117.025 52.2785 115.773C52.2225 115.663 52.1652 115.554 52.1092 115.433C51.5545 114.261 51.0692 113.062 50.6385 111.819C50.5959 111.711 50.5519 111.602 50.5225 111.479C50.1199 110.291 49.7719 109.09 49.5052 107.846C49.4759 107.737 49.4465 107.614 49.4305 107.505C49.1652 106.315 48.9679 105.111 48.8385 103.878C48.8225 103.769 48.8065 103.659 48.8052 103.535C48.6785 102.467 48.6199 101.398 48.6025 100.301C48.5999 100.165 48.5985 100.027 48.6092 99.89C48.5945 99.7807 48.5919 99.6567 48.6039 99.5474C48.5985 98.326 48.6745 97.1034 48.7932 95.9087C48.8052 95.798 48.8172 95.674 48.8292 95.5647C48.9745 94.3274 49.1745 93.1167 49.4292 91.9194C49.4545 91.7954 49.4812 91.686 49.5065 91.5754C49.7879 90.322 50.1252 89.11 50.5319 87.91C50.5705 87.7994 50.6105 87.6754 50.6639 87.5647C51.0959 86.31 51.5985 85.094 52.1692 83.9047C52.2225 83.7954 52.2745 83.67 52.3425 83.5594C52.9532 82.2874 53.6465 81.0554 54.4092 79.878C54.4905 79.7527 54.5705 79.642 54.6372 79.5314C55.4812 78.242 56.4079 77.0194 57.4052 75.8514C57.4985 75.7407 57.5932 75.6154 57.7012 75.5034C58.8599 74.182 60.1159 72.9407 61.4559 71.7954C61.5905 71.6687 61.7265 71.5567 61.8759 71.4447C63.5545 70.046 65.3452 68.7967 67.2625 67.7234C67.4665 67.5967 67.6839 67.4834 67.8879 67.3714C68.6492 66.9607 69.4252 66.578 70.2159 66.222L99.4559 65.7567C100.257 66.0874 101.045 66.4447 101.82 66.83C102.027 66.9367 102.248 67.0434 102.456 67.1634C104.407 68.1754 106.236 69.366 107.959 70.7114C108.112 70.818 108.251 70.926 108.389 71.0474C109.765 72.15 111.06 73.35 112.26 74.6354C112.372 74.7434 112.469 74.8647 112.568 74.9727C113.601 76.1087 114.567 77.3007 115.451 78.562C115.521 78.6714 115.605 78.7794 115.689 78.902C116.489 80.0554 117.223 81.2647 117.873 82.5154C117.944 82.6247 118.001 82.7474 118.057 82.8554C118.665 84.026 119.207 85.2247 119.679 86.466C119.735 86.574 119.779 86.6967 119.821 86.806C120.265 87.9927 120.641 89.194 120.963 90.438C120.992 90.546 121.021 90.6554 121.051 90.7794C121.344 91.9674 121.583 93.1714 121.767 94.4034C121.783 94.5127 121.797 94.6354 121.813 94.7447C121.969 95.9367 122.085 97.1554 122.119 98.3754C122.133 98.4847 122.136 98.6087 122.124 98.718C122.14 98.8554 122.141 98.9927 122.144 99.13Z"
            fill="#8E0413" />
        <mask id="mask20_50_4134" style="mask-type:luminance" maskUnits="userSpaceOnUse" x="66" y="66" width="9"
            height="67">
            <path d="M66.2386 66.1693H74.3373V132.945H66.2386V66.1693Z" fill="white" />
        </mask>
        <g mask="url(#mask20_50_4134)">
            <g opacity="0.75">
                <path
                    d="M74.3375 132.94L73.9535 132.946C63.9241 112.226 63.6748 87.1103 73.1921 66.1756L73.5761 66.169C64.0175 87.0916 64.2535 112.248 74.3375 132.94Z"
                    fill="#F3F4F6" />
            </g>
        </g>
        <mask id="mask21_50_4134" style="mask-type:luminance" maskUnits="userSpaceOnUse" x="96" y="65" width="7"
            height="68">
            <path d="M96.412 65.7998H102.227V132.566H96.412V65.7998Z" fill="white" />
        </mask>
        <g mask="url(#mask21_50_4134)">
            <g opacity="0.75">
                <path
                    d="M98.1473 132.56L97.7766 132.565C103.686 110.824 103.202 87.3041 96.4113 65.8054L96.7819 65.7988C103.545 87.2841 104.015 110.791 98.1473 132.56Z"
                    fill="#F3F4F6" />
            </g>
        </g>
        <path
            d="M71.6151 134.399C61.2685 126.098 54.9431 112.7 55.1071 99.4363C55.2711 86.1723 61.9258 72.9363 72.4751 64.8936L72.6764 65.1576C62.2071 73.1403 55.6018 86.2763 55.4391 99.4403C55.2765 112.604 61.5538 125.9 71.8231 134.14L71.6151 134.399Z"
            fill="#F3F4F6" />
        <path
            d="M102.885 131.734L102.635 131.515C110.867 122.082 115.051 109.511 114.113 97.0259C113.176 84.5406 107.163 72.7352 97.6133 64.6379L97.8293 64.3845C107.444 72.5392 113.501 84.4272 114.444 97.0006C115.389 109.574 111.176 122.234 102.885 131.734Z"
            fill="#F3F4F6" />
        <path d="M84.0933 132.649H83.7612V64.8534H84.0933V132.649Z" fill="#F3F4F6" />
        <path d="M99.4282 65.8727L69.7802 66.3447L69.6829 60.2754L99.3322 59.8034L99.4282 65.8727Z" fill="#FAAC01" />
        <path d="M102.04 138.219L69.8814 138.731L69.7854 132.662L101.943 132.15L102.04 138.219Z" fill="#FAAC01" />
        <path d="M73.4381 60.3257L84.5341 41.9417L96.4594 60.1604" stroke="#001E2B" stroke-width="0.486667"
            stroke-miterlimit="10" stroke-linecap="round" stroke-linejoin="round" />
        <path d="M84.5344 41.9424V-31.2216" stroke="#001E2B" stroke-width="0.486667" stroke-miterlimit="10"
            stroke-linecap="round" stroke-linejoin="round" />
        <path d="M86.4113 139.491V164.003" stroke="#001E2B" stroke-width="0.648" stroke-miterlimit="10" />
        <path
            d="M97.6457 144.956H74.7351C74.0191 144.956 73.4377 144.375 73.4377 143.659V138.165H98.9431V143.659C98.9431 144.375 98.3617 144.956 97.6457 144.956Z"
            fill="#FAAC01" />
        <mask id="mask22_50_4134" style="mask-type:luminance" maskUnits="userSpaceOnUse" x="73" y="138" width="26"
            height="3">
            <path d="M73.4386 138.165H98.9426V140.816H73.4386V138.165Z" fill="white" />
        </mask>
        <g mask="url(#mask22_50_4134)">
            <g opacity="0.490005">
                <path d="M98.9425 140.816H73.4373V138.167H98.9425V140.816Z" fill="#FAAC01" />
            </g>
        </g>
        <path
            d="M89.6685 168.143H83.2098V155.804C83.2098 154.02 84.6552 152.575 86.4392 152.575C88.2232 152.575 89.6685 154.02 89.6685 155.804V168.143Z"
            fill="#8E0413" />
        <path
            d="M76.8573 342.39C76.7453 342.68 76.656 342.988 76.6706 343.299C76.6853 343.611 76.8213 343.93 77.08 344.103C77.3906 344.311 77.8266 344.264 78.1346 344.054C78.4426 343.842 78.6333 343.494 78.728 343.131C78.8226 342.77 78.8293 342.392 78.836 342.019C78.8426 341.638 78.8493 341.258 78.856 340.876C78.8586 340.72 78.86 340.562 78.808 340.415C78.424 339.336 77.0066 341.999 76.8573 342.39Z"
            fill="#001E2B" />
        <path
            d="M83.3461 341.891C83.7341 341.943 84.1674 341.72 84.2728 341.343C84.3714 340.986 84.1648 340.607 83.8888 340.359C83.6101 340.11 82.6794 339.679 82.2581 339.932C82.2594 339.695 82.2594 339.456 82.2581 339.218C82.9741 339.047 83.6914 338.875 84.4074 338.704C84.5301 338.675 84.6554 338.644 84.7608 338.574C85.4474 338.12 84.6314 337.403 84.0661 337.49C83.4528 337.583 82.8434 337.723 82.2381 337.87C82.2354 337.762 82.2341 337.654 82.2314 337.546C82.2248 337.219 82.2141 336.883 82.0968 336.579C82.7768 336.414 83.4554 336.247 84.1354 336.082C84.3488 336.03 84.5688 335.974 84.7394 335.838C85.0208 335.614 85.0354 335.243 84.7181 335.056C84.4594 334.903 84.2341 335.034 83.9701 335.098C83.4834 335.212 82.9848 335.296 82.4874 335.376C82.7941 335.164 83.0848 334.93 83.3568 334.674C83.6208 334.426 83.8688 334.155 84.0368 333.835C84.2048 333.514 84.2874 333.138 84.2048 332.786C84.1781 332.67 84.1301 332.559 84.0674 332.458C84.1301 332.44 84.1941 332.423 84.2581 332.404C84.5221 332.323 84.7901 332.232 85.0088 332.063C85.2274 331.894 85.3914 331.63 85.3714 331.354C85.3461 331.015 85.0488 330.744 84.7221 330.651C84.2141 330.504 83.6208 330.599 83.0541 330.738C83.0901 330.691 83.1221 330.642 83.1461 330.588C83.2341 330.404 83.2608 330.196 83.2861 329.994C83.3448 329.528 83.3848 328.998 83.0661 328.652C82.8301 328.396 82.4581 328.32 82.1114 328.28C81.5554 328.216 79.6074 327.847 80.0114 328.995C80.1274 329.327 80.4248 329.555 80.7061 329.763C81.1274 330.075 81.5488 330.386 81.9701 330.698C82.0874 330.784 82.2141 330.871 82.3474 330.927C82.2381 330.956 82.1328 330.984 82.0314 331.008C80.9608 331.266 79.8888 331.524 78.8168 331.782C78.5314 331.851 78.2048 331.954 78.1034 332.228C78.0061 332.488 78.1754 332.787 78.4154 332.927C78.5314 332.995 78.6594 333.034 78.7928 333.056C78.3341 333.219 78.4181 334.015 78.6528 334.412C78.8354 334.72 79.0621 335.002 79.3248 335.244C79.4621 335.372 79.6141 335.492 79.7914 335.552C79.9701 335.612 80.1794 335.603 80.3301 335.491C80.5888 335.296 80.5688 334.902 80.4688 334.594C80.3034 334.084 79.8568 333.318 79.2968 333.092C80.4181 333.115 81.5408 333.016 82.6421 332.803C82.6288 332.902 82.6154 332.999 82.6008 333.091C82.4781 333.826 82.1714 334.531 81.7154 335.119C81.6234 335.238 81.5208 335.386 81.5581 335.526C81.4781 335.538 81.3968 335.551 81.3168 335.564C79.4874 335.883 77.6568 336.202 75.8261 336.519C75.6034 336.558 75.3648 336.604 75.2088 336.768C74.8928 337.099 75.1514 337.698 75.5714 337.878C75.9928 338.058 76.4741 337.952 76.9181 337.843C78.1634 337.539 79.4074 337.235 80.6528 336.932C80.6808 337.086 80.7208 337.239 80.7408 337.386C80.7768 337.659 80.8048 337.934 80.8288 338.21C79.3834 338.559 77.9368 338.908 76.4901 339.256C76.3968 339.279 76.2941 339.307 76.2354 339.383C76.1688 339.467 76.1741 339.592 76.2248 339.687C76.2754 339.78 76.3621 339.85 76.4528 339.907C76.8261 340.146 77.2834 340.224 77.7261 340.21C78.1688 340.195 78.6021 340.091 79.0328 339.988C79.6568 339.839 80.2808 339.69 80.9048 339.54C80.9301 340.388 80.9128 341.238 80.8728 342.075C80.8541 342.45 80.7501 342.92 80.3808 342.991C80.1594 343.032 79.9474 342.899 79.7474 342.795C79.5474 342.692 79.2848 342.62 79.1101 342.764C78.9874 342.867 78.9568 343.05 78.9928 343.206C79.0301 343.362 79.1234 343.498 79.2141 343.63C79.4234 343.932 79.6328 344.235 79.8408 344.536C79.9928 344.756 80.1474 344.979 80.3554 345.146C80.5634 345.312 80.8354 345.418 81.0981 345.366C81.3554 345.315 81.5648 345.118 81.6914 344.887C81.8181 344.658 81.8741 344.396 81.9208 344.138C82.1114 343.104 82.1981 342.059 82.2354 341.01C82.4888 341.454 82.9528 341.839 83.3461 341.891Z"
            fill="#001E2B" />
        <path
            d="M93.3755 334.407C93.0101 334.324 92.6315 334.408 92.2661 334.495C91.4528 334.687 90.6421 334.888 89.8301 335.089C88.9235 335.313 88.0155 335.537 87.1075 335.763C87.1195 335.441 87.1421 335.121 87.1995 334.805C87.3101 334.193 87.5675 333.583 88.0461 333.185C88.6341 332.697 89.4448 332.605 90.1661 332.352C90.8875 332.097 91.6288 331.503 91.5515 330.741C91.4901 330.149 90.8341 329.687 90.2608 329.848C89.9515 329.936 89.7061 330.164 89.4728 330.384C88.7408 331.076 87.8221 332.428 86.7435 332.407C85.4968 332.383 85.0648 332.947 85.2901 334.184C85.8195 337.393 85.1768 340.784 83.5088 343.576C83.2995 343.925 83.0888 344.413 83.3835 344.695C83.5608 344.864 83.8541 344.853 84.0688 344.735C84.2821 344.616 84.4341 344.412 84.5741 344.212C86.0701 342.06 86.9448 339.484 87.0741 336.868C87.3408 336.897 87.6168 336.823 87.8821 336.763C88.2061 336.689 88.5728 336.647 88.8488 336.833C89.1955 337.068 89.2448 337.548 89.2608 337.967C89.3741 340.813 89.4861 343.661 89.5981 346.508C89.6088 346.772 89.6221 347.047 89.7515 347.276C89.8808 347.505 90.1648 347.671 90.4115 347.577C90.6915 347.471 90.7701 347.12 90.8075 346.823C91.2408 343.328 91.4261 339.812 91.3675 336.291C91.6515 336.077 92.0261 336.035 92.3808 336.028C92.7355 336.021 93.0995 336.041 93.4355 335.928C93.7715 335.813 94.0795 335.523 94.0821 335.168C94.0835 334.793 93.7408 334.489 93.3755 334.407Z"
            fill="#001E2B" />
        <path
            d="M109.777 338.969C109.966 338.603 109.946 338.159 109.878 337.748C109.809 337.321 109.697 336.892 109.752 336.464C110.542 336.328 111.333 336.193 112.122 336.059C112.213 336.043 112.306 336.025 112.396 336.003C112.405 336.947 112.414 337.891 112.417 338.844C111.537 338.885 110.657 338.928 109.777 338.969ZM121.413 338.915C120.825 338.452 120.21 337.976 119.48 337.82C118.918 337.7 118.334 337.78 117.766 337.861C116.541 338.036 115.334 338.091 114.109 338.265C114.124 337.437 114.174 336.615 114.189 335.787C115.04 335.781 115.89 335.664 116.71 335.44C116.896 335.389 117.084 335.331 117.238 335.217C117.392 335.103 117.509 334.923 117.498 334.731C117.489 334.548 117.364 334.387 117.209 334.288C117.056 334.189 116.873 334.144 116.694 334.108C115.904 333.945 114.982 334.008 114.181 334.099C114.158 333.413 114.189 332.665 114.166 331.98C115.037 331.768 115.906 331.556 116.777 331.344C117.034 331.281 117.298 331.215 117.517 331.065C117.736 330.915 117.902 330.66 117.872 330.396C117.836 330.099 117.557 329.877 117.266 329.811C116.974 329.744 116.67 329.799 116.376 329.853C114.521 330.197 112.666 330.543 110.813 330.887C110.941 330.705 111.064 330.52 111.18 330.331C111.406 329.955 111.616 329.54 111.594 329.103C111.572 328.64 111.285 328.216 110.904 327.955C110.601 327.748 110.006 327.471 109.622 327.548C109.025 327.669 109.132 328.341 109.188 328.783C109.313 329.781 108.83 330.768 108.188 331.543C107.545 332.319 106.742 332.944 106.058 333.684C105.877 333.881 105.705 334.205 105.901 334.389C106.045 334.523 106.276 334.46 106.457 334.385C107.873 333.797 109.145 332.873 110.156 331.721C110.212 331.741 110.269 331.757 110.325 331.771C110.936 331.913 111.642 331.953 112.044 332.436C112.364 332.82 112.38 333.364 112.381 333.863C112.381 334.076 112.384 334.285 112.385 334.496C112.282 334.535 112.176 334.587 112.066 334.628C111.213 334.949 110.257 335.003 109.377 334.759C109.046 334.668 108.721 334.536 108.378 334.525C108.036 334.515 107.658 334.66 107.521 334.975C107.336 335.399 107.656 335.853 107.884 336.256C108.186 336.793 108.344 337.411 108.333 338.028C108.328 338.36 108.301 338.74 108.413 339.035C108.178 339.045 107.944 339.056 107.709 339.068C106.509 339.125 105.309 339.183 104.109 339.239C103.792 339.255 103.437 339.287 103.228 339.527C103.054 339.724 103.033 340.024 103.129 340.268C103.225 340.512 103.422 340.705 103.642 340.848C104.486 341.395 105.586 341.247 106.578 341.079C108.493 340.753 110.328 340.457 112.242 340.133C112.221 342.273 112.198 344.415 112.177 346.556C112.174 346.84 112.173 347.129 112.262 347.399C112.352 347.668 112.55 347.917 112.824 347.989C113.182 348.085 113.561 347.847 113.748 347.528C113.934 347.209 113.973 346.827 114.002 346.459C114.17 344.313 114.217 342.145 114.038 340.001C116.274 340.052 118.512 340.103 120.748 340.153C120.982 340.159 121.224 340.163 121.442 340.077C121.66 339.992 121.852 339.793 121.853 339.559C121.856 339.289 121.624 339.083 121.413 338.915Z"
            fill="#001E2B" />
        <path
            d="M136.583 334.914C136.293 334.583 135.873 334.88 135.675 335.212C135.538 335.447 135.486 335.72 135.435 335.988C135.317 336.63 135.198 337.271 135.078 337.912C135.013 338.263 134.947 338.626 135.022 338.975C135.097 339.324 135.347 339.66 135.699 339.724C135.958 339.771 136.229 339.66 136.423 339.482C136.618 339.304 136.747 339.066 136.85 338.823C137.202 337.994 137.273 337.055 137.079 336.178C136.993 335.786 136.855 335.223 136.583 334.914Z"
            fill="#001E2B" />
        <path
            d="M139.773 335.607C140.084 335.975 140.315 336.366 140.691 336.683C140.904 336.864 141.164 337.032 141.444 337.006C141.831 336.97 142.099 336.552 142.084 336.163C142.069 335.774 141.843 335.424 141.583 335.135C141.183 334.694 140.685 334.342 140.136 334.112C140.043 334.074 139.944 334.042 139.845 334.027C139.887 333.126 139.928 332.224 139.971 331.323C139.989 330.904 140.007 330.475 139.873 330.079C139.62 329.327 138.691 328.782 137.913 328.944C137.74 328.98 137.609 329.134 137.556 329.303C137.504 329.471 137.516 329.654 137.545 329.828C137.631 330.347 137.848 330.843 138.172 331.256C138.519 335.846 138.273 340.464 137.62 345.02C137.548 345.527 137.473 346.068 137.693 346.532C137.912 346.995 138.553 347.291 138.955 346.972C139.239 346.746 139.277 346.338 139.295 345.976C139.453 342.519 139.613 339.063 139.772 335.606L139.773 335.607Z"
            fill="#001E2B" />
        <path
            d="M145.684 337.454C145.722 336.563 145.729 335.67 145.762 334.778C146.064 334.698 146.364 334.61 146.661 334.514C147.05 334.389 147.557 334.282 147.801 334.61C147.944 334.802 147.925 335.066 147.893 335.303C147.798 335.989 147.645 336.665 147.441 337.326C146.852 337.413 146.264 337.509 145.676 337.611C145.678 337.559 145.681 337.506 145.684 337.454ZM152.825 345.439C150.105 343.958 147.717 341.777 145.936 339.247C148.03 339.03 150.125 338.813 152.218 338.595C152.4 338.577 152.59 338.554 152.734 338.443C153.021 338.222 152.969 337.742 152.717 337.482C152.465 337.221 152.089 337.13 151.73 337.073C150.593 336.891 149.526 337.025 148.422 337.182C148.58 337.022 148.712 336.834 148.841 336.647C149.141 336.217 149.441 335.786 149.74 335.354C150.046 334.914 150.366 334.406 150.256 333.882C150.166 333.462 149.805 333.141 149.402 332.991C149.001 332.842 148.561 332.839 148.132 332.861C147.369 332.897 146.614 333.006 145.866 333.157C145.913 332.699 145.974 332.245 146.064 331.794C146.182 331.193 146.342 330.553 146.112 329.985C145.796 329.206 143.889 328.502 143.717 329.722C143.664 330.097 143.821 330.465 143.946 330.821C144.248 331.682 144.372 332.583 144.408 333.497C143.698 333.681 142.994 333.885 142.296 334.085C142.066 334.149 141.813 334.234 141.704 334.446C141.564 334.717 141.753 335.066 142.026 335.202C142.3 335.339 142.621 335.321 142.925 335.291C143.418 335.243 143.909 335.167 144.397 335.078C144.381 335.462 144.358 335.845 144.336 336.225C144.302 336.771 144.268 337.321 144.217 337.869C143.928 337.919 143.64 337.97 143.35 338.019C142.498 338.162 141.645 338.306 140.792 338.449C140.606 338.479 140.408 338.518 140.276 338.65C140.012 338.914 140.186 339.405 140.51 339.587C140.836 339.769 141.234 339.737 141.605 339.698C142.406 339.614 143.209 339.531 144.012 339.447C143.897 340.075 143.74 340.694 143.512 341.293C142.901 342.898 141.701 344.373 140.058 344.878C139.869 344.935 139.668 344.985 139.52 345.115C139.37 345.247 139.301 345.493 139.429 345.645C139.522 345.754 139.68 345.775 139.824 345.782C141.716 345.87 143.47 344.578 144.408 342.933C144.793 342.258 145.061 341.533 145.252 340.782L149.33 346.337C149.381 346.405 149.461 346.442 149.545 346.435C150.624 346.349 151.718 346.163 152.769 345.881C152.978 345.826 153.016 345.542 152.825 345.439Z"
            fill="#001E2B" />
        <path
            d="M179.181 337.941C179.687 337.988 180.302 338.005 180.585 337.583C180.865 337.165 180.59 336.559 180.151 336.312C179.714 336.065 179.182 336.079 178.679 336.105C177.581 336.163 176.485 336.252 175.39 336.369C175.399 336.083 175.407 335.795 175.417 335.508C175.431 335.028 175.439 334.521 175.201 334.105C174.889 333.559 174.257 333.459 173.701 333.333C172.881 333.149 172.754 333.685 173.046 334.396C173.334 335.1 173.478 335.843 173.546 336.599C172.263 336.777 170.986 336.993 169.718 337.253C169.726 335.957 169.795 334.511 170.727 333.609C171.265 333.091 172.003 332.847 172.715 332.619C174.139 332.163 175.562 331.708 176.986 331.252C177.503 331.087 178.09 330.837 178.077 330.205C178.069 329.8 177.841 329.533 177.494 329.376C176.321 328.841 175.451 329.029 174.575 329.944C173.899 330.651 173.193 331.349 172.337 331.823C171.481 332.296 170.447 332.525 169.513 332.239C169.09 332.109 168.59 331.893 168.25 332.176C168.051 332.341 167.997 332.629 168.035 332.885C168.074 333.14 168.19 333.376 168.279 333.619C168.59 334.455 168.589 335.403 168.277 336.237C168.045 336.857 167.649 337.421 167.538 338.073C167.429 338.725 167.762 339.536 168.419 339.609C168.709 339.641 168.993 339.524 169.262 339.413C170.658 338.847 172.115 338.432 173.599 338.173C173.597 338.493 173.59 338.812 173.582 339.128C173.555 340.188 173.527 341.248 173.501 342.308C173.493 342.652 173.482 343.004 173.349 343.323C173.215 343.64 172.931 343.917 172.587 343.939C172.258 343.957 171.966 343.748 171.661 343.623C171.355 343.496 170.926 343.496 170.779 343.791C170.621 344.108 170.917 344.453 171.186 344.684C171.674 345.103 172.163 345.521 172.653 345.941C172.919 346.169 173.191 346.401 173.515 346.539C173.839 346.676 174.227 346.705 174.533 346.531C175.038 346.24 175.113 345.555 175.131 344.972C175.202 342.629 175.273 340.285 175.343 337.943C176.619 337.827 177.905 337.825 179.181 337.941Z"
            fill="#001E2B" />
        <path
            d="M169.012 340.352C168.376 340.915 167.832 341.645 167.26 342.273C166.884 342.685 166.493 343.125 166.377 343.671C166.261 344.217 166.542 344.888 167.09 344.992C167.64 345.097 168.117 344.619 168.436 344.159C169.113 343.183 169.606 342.077 169.88 340.921C170.058 340.169 169.588 339.843 169.012 340.352Z"
            fill="#001E2B" />
        <path
            d="M181.598 343.135C181.192 342.129 180.452 341.269 179.54 340.682C178.941 340.297 176.862 339.241 177.449 340.826C177.577 341.173 177.801 341.474 178.022 341.769C178.569 342.497 179.114 343.223 179.66 343.951C179.866 344.227 180.08 344.51 180.372 344.695C180.662 344.881 181.053 344.951 181.353 344.782C181.618 344.633 181.764 344.323 181.784 344.021C181.802 343.717 181.712 343.417 181.598 343.135Z"
            fill="#001E2B" />
    </g>
    <path
        d="M87.8403 308.822C85.2187 308.822 83.2837 308.276 82.0353 307.183C80.787 306.091 80.1628 304.343 80.1628 301.94V242.487C79.1641 242.58 77.9157 242.767 76.4177 243.048C74.9508 243.298 73.406 243.672 71.7831 244.172C70.1602 244.671 68.5373 245.28 66.9145 245.998C65.2916 246.684 63.8403 247.496 62.5608 248.432C61.2812 249.337 60.2357 250.367 59.4242 251.522C58.6128 252.676 58.2071 253.956 58.2071 255.36C58.2071 256.359 58.3319 257.155 58.5816 257.748C58.8625 258.341 59.1746 258.793 59.5179 259.105C59.8612 259.386 60.2045 259.574 60.5478 259.667C60.9223 259.73 61.1876 259.761 61.3436 259.761C62.1238 259.761 62.7636 259.636 63.263 259.386C63.7623 259.105 64.2149 258.825 64.6206 258.544C65.0263 258.232 65.4008 257.951 65.7441 257.701C66.1186 257.42 66.5399 257.28 67.0081 257.28C67.3826 257.28 67.7727 257.373 68.1784 257.561C68.6154 257.717 69.0055 257.982 69.3488 258.356C69.7233 258.731 70.0354 259.23 70.2851 259.854C70.5347 260.447 70.6596 261.181 70.6596 262.055C70.6596 263.303 70.4099 264.38 69.9105 265.285C69.4424 266.19 68.8182 266.955 68.038 267.579C67.289 268.172 66.4151 268.624 65.4164 268.936C64.4489 269.217 63.4814 269.358 62.514 269.358C61.0159 269.358 59.6583 269.108 58.4412 268.609C57.2552 268.078 56.2409 267.36 55.3982 266.455C54.5556 265.55 53.9158 264.489 53.4789 263.272C53.042 262.055 52.8235 260.76 52.8235 259.386C52.8235 255.735 53.8222 252.583 55.8196 249.93C57.8482 247.246 60.6102 245.03 64.1056 243.282C67.6011 241.503 71.6739 240.193 76.324 239.35C80.9742 238.507 85.9521 238.086 91.2577 238.086C93.7856 238.086 96.2511 238.117 98.6543 238.18C101.057 238.211 103.242 238.273 105.208 238.367C107.206 238.461 108.922 238.57 110.358 238.695C111.793 238.819 112.839 238.96 113.494 239.116C114.118 239.272 114.618 239.506 114.992 239.818C115.367 240.099 115.648 240.427 115.835 240.801C116.022 241.176 116.147 241.581 116.209 242.018C116.272 242.424 116.303 242.845 116.303 243.282C116.303 243.626 116.256 244.031 116.163 244.5C116.069 244.936 115.929 245.358 115.741 245.764C115.554 246.169 115.32 246.513 115.039 246.793C114.758 247.074 114.415 247.215 114.009 247.215C113.76 247.215 113.494 247.105 113.213 246.887C112.964 246.669 112.605 246.403 112.137 246.091C111.669 245.779 111.029 245.42 110.217 245.014C109.437 244.609 108.392 244.234 107.081 243.891C105.801 243.548 104.21 243.236 102.306 242.955C100.433 242.674 98.1549 242.487 95.4709 242.393V301.94C95.4709 304.343 94.8467 306.091 93.5984 307.183C92.35 308.276 90.4306 308.822 87.8403 308.822ZM123.653 286.585C123.653 287.584 123.793 288.676 124.074 289.862C124.386 291.017 124.823 292.187 125.385 293.373C125.947 294.559 126.633 295.698 127.445 296.791C128.287 297.852 129.239 298.804 130.3 299.646C131.393 300.489 132.594 301.16 133.905 301.659C135.216 302.159 136.652 302.408 138.212 302.408C139.304 302.408 140.319 302.283 141.255 302.034C142.191 301.784 143.065 301.441 143.876 301.004C144.688 300.567 145.468 300.068 146.217 299.506C146.966 298.913 147.715 298.289 148.464 297.633L149.635 298.757C148.917 299.724 147.996 300.785 146.873 301.94C145.749 303.095 144.391 304.187 142.8 305.217C141.208 306.216 139.351 307.058 137.229 307.745C135.107 308.4 132.688 308.728 129.973 308.728C127.258 308.728 124.605 308.244 122.014 307.277C119.455 306.278 117.177 304.796 115.18 302.83C113.182 300.863 111.575 298.413 110.358 295.48C109.172 292.546 108.579 289.113 108.579 285.181C108.579 282.341 108.938 279.735 109.656 277.363C110.373 274.991 111.341 272.853 112.558 270.949C113.806 269.046 115.242 267.376 116.865 265.94C118.519 264.505 120.251 263.319 122.061 262.382C123.871 261.415 125.713 260.697 127.585 260.229C129.489 259.73 131.315 259.48 133.062 259.48C135.372 259.48 137.385 259.73 139.101 260.229C140.818 260.728 142.238 261.399 143.361 262.242C144.516 263.085 145.374 264.068 145.936 265.191C146.498 266.284 146.779 267.438 146.779 268.655C146.779 270.122 146.358 271.449 145.515 272.635C144.672 273.789 143.549 274.804 142.144 275.678L123.653 286.585ZM133.062 277.082C133.468 276.832 133.796 276.598 134.046 276.38C134.326 276.13 134.545 275.849 134.701 275.537C134.857 275.194 134.966 274.788 135.029 274.32C135.122 273.821 135.169 273.212 135.169 272.494C135.169 271.714 135.075 270.856 134.888 269.919C134.732 268.952 134.451 268.047 134.046 267.204C133.64 266.362 133.125 265.659 132.501 265.098C131.876 264.536 131.127 264.255 130.254 264.255C129.13 264.255 128.163 264.598 127.351 265.285C126.571 265.94 125.916 266.799 125.385 267.86C124.886 268.921 124.48 270.138 124.168 271.511C123.887 272.853 123.668 274.211 123.512 275.584C123.356 276.957 123.263 278.284 123.232 279.563C123.2 280.811 123.185 281.873 123.185 282.746L133.062 277.082ZM133.811 239.537L144.345 253.254L142.94 254.658L131.143 246.606L119.346 254.658L117.895 253.254L128.428 239.537H133.811ZM171.122 263.506V298.101C171.122 299.755 171.434 300.91 172.058 301.566C172.683 302.19 173.541 302.502 174.633 302.502C175.476 302.502 176.225 302.268 176.88 301.8C177.536 301.332 178.097 300.801 178.566 300.208C179.127 299.553 179.611 298.788 180.017 297.914L181.468 298.57C181 299.568 180.438 300.661 179.783 301.847C179.158 303.032 178.316 304.14 177.255 305.17C176.194 306.169 174.852 307.012 173.229 307.698C171.637 308.385 169.624 308.728 167.19 308.728C165.817 308.728 164.49 308.525 163.211 308.12C161.962 307.714 160.839 307.074 159.84 306.2C158.872 305.326 158.092 304.234 157.499 302.923C156.906 301.612 156.61 300.036 156.61 298.195V263.506H151.367V260.135C152.241 260.135 153.458 259.917 155.018 259.48C156.579 259.012 158.17 258.247 159.793 257.186C161.447 256.125 162.977 254.705 164.381 252.926C165.785 251.147 166.784 248.947 167.377 246.325H171.122V260.135H178.753C181.25 260.135 182.498 259.714 182.498 258.871C182.498 258.559 182.342 258.356 182.03 258.263C181.718 258.138 181.359 257.998 180.953 257.841C180.579 257.654 180.235 257.405 179.923 257.092C179.611 256.78 179.455 256.265 179.455 255.548C179.455 254.674 179.72 253.987 180.251 253.488C180.813 252.988 181.53 252.739 182.404 252.739C182.966 252.739 183.45 252.864 183.855 253.113C184.292 253.332 184.651 253.644 184.932 254.05C185.213 254.424 185.416 254.861 185.541 255.36C185.697 255.86 185.775 256.359 185.775 256.858C185.775 258.887 185.182 260.51 183.996 261.727C182.841 262.913 180.969 263.506 178.378 263.506H171.122Z"
        fill="#001E2B" />
    <path
        d="M79.9298 213.225H83.2669V202.792C83.2669 202.523 83.2363 202.309 83.1752 202.15C83.1141 201.991 83.0285 201.869 82.9185 201.783C82.8085 201.686 82.674 201.624 82.5151 201.6C82.3684 201.563 82.2034 201.545 82.0201 201.545C81.7512 201.545 81.415 201.588 81.0116 201.673C80.6205 201.759 80.2049 201.887 79.7648 202.058C79.3248 202.23 78.8786 202.443 78.4263 202.7C77.9863 202.945 77.589 203.226 77.2345 203.544C76.8923 203.861 76.6111 204.216 76.3911 204.607C76.1711 204.998 76.0611 205.42 76.0611 205.872C76.0611 206.263 76.11 206.575 76.2078 206.807C76.3178 207.04 76.44 207.217 76.5745 207.339C76.7089 207.449 76.8434 207.522 76.9778 207.559C77.1245 207.583 77.2284 207.596 77.2895 207.596C77.5951 207.596 77.8457 207.547 78.0413 207.449C78.2369 207.339 78.4141 207.229 78.573 207.119C78.7319 206.997 78.8786 206.887 79.0131 206.789C79.1598 206.679 79.3248 206.624 79.5081 206.624C79.6548 206.624 79.8076 206.661 79.9665 206.734C80.1376 206.795 80.2904 206.899 80.4249 207.046C80.5716 207.192 80.6938 207.388 80.7916 207.632C80.8894 207.865 80.9383 208.152 80.9383 208.494C80.9383 208.983 80.8405 209.405 80.6449 209.759C80.4616 210.114 80.2171 210.413 79.9115 210.658C79.6181 210.89 79.2759 211.067 78.8847 211.189C78.5058 211.299 78.1269 211.354 77.7479 211.354C77.1612 211.354 76.6295 211.257 76.1528 211.061C75.6883 210.853 75.291 210.572 74.961 210.218C74.6309 209.863 74.3803 209.448 74.2092 208.971C74.0381 208.494 73.9525 207.987 73.9525 207.449C73.9525 206.606 74.1053 205.836 74.4109 205.139C74.7165 204.43 75.1321 203.794 75.6577 203.232C76.1955 202.67 76.8189 202.181 77.5279 201.765C78.2491 201.337 79.0253 200.983 79.8565 200.702C80.6877 200.42 81.5556 200.213 82.4601 200.078C83.3647 199.932 84.2692 199.858 85.1737 199.858C86.1761 199.858 86.9523 199.956 87.5023 200.152C88.0646 200.335 88.4741 200.561 88.7308 200.83C88.9997 201.099 89.1586 201.38 89.2075 201.673C89.2564 201.967 89.2809 202.211 89.2809 202.407V213.225H96.0283V204.405C96.0283 202.388 96.2911 200.671 96.8167 199.253C97.3423 197.835 98.0207 196.68 98.8519 195.788C99.6831 194.883 100.612 194.229 101.639 193.826C102.666 193.41 103.686 193.202 104.701 193.202C105.398 193.202 106.058 193.257 106.681 193.367C107.317 193.465 107.867 193.618 108.331 193.826C108.808 194.034 109.187 194.296 109.468 194.614C109.749 194.92 109.89 195.28 109.89 195.696C109.89 195.879 109.859 196.057 109.798 196.228C109.749 196.387 109.676 196.533 109.578 196.668C109.48 196.802 109.364 196.912 109.23 196.998C109.107 197.071 108.979 197.108 108.845 197.108C108.625 197.108 108.429 197.041 108.258 196.906C108.087 196.772 107.922 196.607 107.763 196.411C107.616 196.203 107.47 195.983 107.323 195.751C107.176 195.507 107.011 195.287 106.828 195.091C106.644 194.883 106.437 194.712 106.204 194.578C105.972 194.443 105.697 194.376 105.379 194.376C104.634 194.376 104.041 194.584 103.601 194.999C103.161 195.403 102.825 196.002 102.592 196.796C102.36 197.578 102.207 198.556 102.134 199.73C102.073 200.903 102.042 202.248 102.042 203.764V213.225H105.728V214.838H102.042V225.986C102.042 226.341 102.116 226.628 102.262 226.848C102.421 227.056 102.66 227.16 102.977 227.16C103.32 227.16 103.637 227.098 103.931 226.976C104.224 226.854 104.481 226.738 104.701 226.628L105.013 227.306C104.744 227.49 104.426 227.679 104.059 227.875C103.705 228.082 103.307 228.272 102.867 228.443C102.44 228.626 101.975 228.773 101.474 228.883C100.985 229.005 100.472 229.066 99.9337 229.066C99.1025 229.066 98.4302 228.956 97.9168 228.736C97.4034 228.516 97.0062 228.223 96.725 227.856C96.4439 227.502 96.2544 227.098 96.1566 226.646C96.0711 226.194 96.0283 225.735 96.0283 225.271V214.838H89.2809V223.969C89.2809 225.632 88.9753 227.08 88.3641 228.315C87.7651 229.549 86.9401 230.576 85.8888 231.395C84.8376 232.226 83.5969 232.843 82.1668 233.247C80.7488 233.662 79.227 233.87 77.6012 233.87C76.9778 233.87 76.3789 233.815 75.8044 233.705C75.2299 233.607 74.7226 233.467 74.2826 233.284C73.8425 233.1 73.4941 232.88 73.2374 232.623C72.9685 232.379 72.8341 232.11 72.8341 231.817C72.8341 231.597 72.8646 231.371 72.9257 231.138C72.9869 230.918 73.0785 230.717 73.2008 230.533C73.323 230.35 73.4758 230.197 73.6591 230.075C73.8303 229.953 74.0259 229.891 74.2459 229.891C74.3803 229.891 74.4965 229.959 74.5943 230.093C74.7043 230.228 74.8143 230.393 74.9243 230.588C75.0343 230.796 75.1565 231.016 75.291 231.248C75.4377 231.481 75.621 231.694 75.8411 231.89C76.0733 232.098 76.3483 232.269 76.6661 232.403C76.984 232.538 77.3812 232.605 77.8579 232.605C78.7992 232.605 79.6059 232.434 80.2782 232.092C80.9627 231.749 81.525 231.267 81.9651 230.643C82.4051 230.02 82.729 229.274 82.9368 228.406C83.1569 227.551 83.2669 226.609 83.2669 225.583V214.838H79.9298V213.225ZM117.059 217.772C117.059 217.466 116.961 217.234 116.766 217.075C116.57 216.916 116.319 216.837 116.014 216.837C115.586 216.837 115.176 216.935 114.785 217.13C114.406 217.326 114.07 217.613 113.777 217.992C113.484 218.371 113.251 218.841 113.08 219.404C112.909 219.954 112.823 220.595 112.823 221.329C112.823 222.038 112.872 222.625 112.97 223.089C113.08 223.554 113.221 223.926 113.392 224.208C113.575 224.476 113.783 224.666 114.015 224.776C114.248 224.886 114.492 224.941 114.749 224.941C115.066 224.941 115.366 224.861 115.647 224.703C115.928 224.531 116.173 224.318 116.381 224.061C116.588 223.804 116.753 223.517 116.876 223.199C116.998 222.881 117.059 222.563 117.059 222.246V217.772ZM114.144 209.741C113.728 209.741 113.343 209.79 112.988 209.888C112.634 209.985 112.328 210.108 112.072 210.254C111.815 210.401 111.613 210.566 111.467 210.749C111.32 210.921 111.247 211.086 111.247 211.244C111.247 211.428 111.338 211.562 111.522 211.648C111.717 211.721 111.931 211.813 112.163 211.923C112.396 212.021 112.603 212.167 112.787 212.363C112.982 212.546 113.08 212.833 113.08 213.225C113.08 213.481 113.025 213.72 112.915 213.94C112.817 214.148 112.677 214.337 112.493 214.508C112.322 214.667 112.114 214.795 111.87 214.893C111.638 214.979 111.393 215.022 111.137 215.022C110.452 215.022 109.896 214.789 109.468 214.325C109.052 213.86 108.845 213.243 108.845 212.473C108.845 211.727 109.04 211.092 109.431 210.566C109.823 210.028 110.33 209.588 110.953 209.246C111.589 208.904 112.304 208.653 113.098 208.494C113.893 208.323 114.688 208.237 115.482 208.237C116.436 208.237 117.346 208.341 118.214 208.549C119.082 208.757 119.846 209.087 120.506 209.539C121.178 209.992 121.71 210.566 122.101 211.263C122.505 211.96 122.706 212.803 122.706 213.793V224.153C122.706 224.263 122.712 224.385 122.725 224.519C122.737 224.654 122.767 224.776 122.816 224.886C122.865 224.996 122.938 225.088 123.036 225.161C123.134 225.234 123.275 225.271 123.458 225.271C123.678 225.271 123.88 225.192 124.063 225.033C124.259 224.861 124.43 224.69 124.576 224.519L125.035 224.904C124.851 225.161 124.631 225.442 124.375 225.748C124.118 226.053 123.806 226.341 123.44 226.609C123.073 226.878 122.645 227.105 122.156 227.288C121.667 227.471 121.111 227.563 120.488 227.563C119.718 227.563 119.033 227.337 118.434 226.884C117.835 226.42 117.444 225.711 117.261 224.758C116.869 225.283 116.46 225.723 116.032 226.078C115.617 226.432 115.189 226.719 114.749 226.939C114.309 227.16 113.862 227.318 113.41 227.416C112.97 227.514 112.524 227.563 112.072 227.563C111.485 227.563 110.917 227.471 110.367 227.288C109.816 227.105 109.321 226.817 108.881 226.426C108.454 226.023 108.105 225.503 107.836 224.868C107.58 224.232 107.451 223.456 107.451 222.539C107.451 221.427 107.671 220.516 108.111 219.807C108.551 219.098 109.126 218.505 109.835 218.029C110.556 217.54 111.369 217.124 112.273 216.782C113.19 216.439 114.125 216.079 115.079 215.7C115.788 215.419 116.301 215.003 116.619 214.453C116.949 213.891 117.114 213.316 117.114 212.73C117.114 211.825 116.845 211.104 116.307 210.566C115.782 210.016 115.06 209.741 114.144 209.741ZM127.73 211.464C127.73 211.11 127.645 210.804 127.473 210.548C127.314 210.279 127.039 210.144 126.648 210.144C126.441 210.144 126.263 210.181 126.117 210.254C125.97 210.328 125.811 210.432 125.64 210.566L125.255 210.108C125.536 209.875 125.848 209.649 126.19 209.429C126.544 209.197 126.923 208.995 127.327 208.824C127.73 208.653 128.164 208.512 128.629 208.402C129.093 208.292 129.582 208.237 130.095 208.237C130.645 208.237 131.116 208.323 131.507 208.494C131.898 208.665 132.222 208.873 132.479 209.118C132.748 209.35 132.95 209.6 133.084 209.869C133.218 210.126 133.298 210.346 133.322 210.529C133.567 210.187 133.854 209.875 134.184 209.594C134.526 209.313 134.893 209.075 135.284 208.879C135.688 208.671 136.109 208.512 136.549 208.402C137.002 208.292 137.466 208.237 137.943 208.237C138.921 208.237 139.807 208.439 140.602 208.843C141.396 209.246 142.074 209.845 142.637 210.639C143.211 211.434 143.651 212.418 143.957 213.591C144.262 214.765 144.415 216.122 144.415 217.662C144.415 219.446 144.226 220.968 143.847 222.227C143.48 223.474 142.991 224.495 142.38 225.289C141.781 226.084 141.09 226.664 140.308 227.031C139.538 227.386 138.75 227.563 137.943 227.563C137.271 227.563 136.678 227.496 136.164 227.361C135.663 227.227 135.229 227.062 134.863 226.866C134.496 226.671 134.19 226.475 133.946 226.279C133.701 226.072 133.506 225.9 133.359 225.766V234.714C133.359 234.873 133.335 235.062 133.286 235.282C133.237 235.502 133.115 235.71 132.919 235.905C132.736 236.113 132.455 236.291 132.076 236.437C131.709 236.584 131.202 236.657 130.554 236.657C129.906 236.657 129.392 236.578 129.014 236.419C128.647 236.272 128.366 236.089 128.17 235.869C127.975 235.661 127.852 235.447 127.803 235.227C127.755 235.019 127.73 234.848 127.73 234.714V211.464ZM133.359 223.144C133.359 223.242 133.402 223.413 133.487 223.657C133.573 223.902 133.707 224.153 133.891 224.409C134.074 224.666 134.306 224.898 134.588 225.106C134.881 225.302 135.235 225.399 135.651 225.399C136.189 225.399 136.647 225.198 137.026 224.794C137.405 224.379 137.717 223.822 137.961 223.126C138.206 222.417 138.383 221.598 138.493 220.669C138.603 219.728 138.658 218.725 138.658 217.662C138.658 216.354 138.585 215.248 138.438 214.343C138.303 213.439 138.102 212.711 137.833 212.161C137.564 211.599 137.24 211.196 136.861 210.951C136.494 210.694 136.079 210.566 135.614 210.566C135.345 210.566 135.076 210.645 134.808 210.804C134.539 210.951 134.294 211.141 134.074 211.373C133.866 211.593 133.695 211.843 133.561 212.125C133.426 212.406 133.359 212.675 133.359 212.931V223.144ZM148.119 211.464C148.119 211.11 148.033 210.804 147.862 210.548C147.703 210.279 147.428 210.144 147.037 210.144C146.829 210.144 146.652 210.181 146.505 210.254C146.359 210.328 146.2 210.432 146.029 210.566L145.644 210.108C145.925 209.875 146.237 209.649 146.579 209.429C146.933 209.197 147.312 208.995 147.716 208.824C148.119 208.653 148.553 208.512 149.017 208.402C149.482 208.292 149.971 208.237 150.484 208.237C151.034 208.237 151.505 208.323 151.896 208.494C152.287 208.665 152.611 208.873 152.868 209.118C153.137 209.35 153.338 209.6 153.473 209.869C153.607 210.126 153.687 210.346 153.711 210.529C153.956 210.187 154.243 209.875 154.573 209.594C154.915 209.313 155.282 209.075 155.673 208.879C156.077 208.671 156.498 208.512 156.938 208.402C157.391 208.292 157.855 208.237 158.332 208.237C159.31 208.237 160.196 208.439 160.99 208.843C161.785 209.246 162.463 209.845 163.026 210.639C163.6 211.434 164.04 212.418 164.346 213.591C164.651 214.765 164.804 216.122 164.804 217.662C164.804 219.446 164.615 220.968 164.236 222.227C163.869 223.474 163.38 224.495 162.769 225.289C162.17 226.084 161.479 226.664 160.697 227.031C159.927 227.386 159.139 227.563 158.332 227.563C157.659 227.563 157.067 227.496 156.553 227.361C156.052 227.227 155.618 227.062 155.251 226.866C154.885 226.671 154.579 226.475 154.335 226.279C154.09 226.072 153.895 225.9 153.748 225.766V234.714C153.748 234.873 153.724 235.062 153.675 235.282C153.626 235.502 153.503 235.71 153.308 235.905C153.125 236.113 152.843 236.291 152.464 236.437C152.098 236.584 151.59 236.657 150.943 236.657C150.295 236.657 149.781 236.578 149.402 236.419C149.036 236.272 148.755 236.089 148.559 235.869C148.363 235.661 148.241 235.447 148.192 235.227C148.143 235.019 148.119 234.848 148.119 234.714V211.464ZM153.748 223.144C153.748 223.242 153.791 223.413 153.876 223.657C153.962 223.902 154.096 224.153 154.28 224.409C154.463 224.666 154.695 224.898 154.976 225.106C155.27 225.302 155.624 225.399 156.04 225.399C156.578 225.399 157.036 225.198 157.415 224.794C157.794 224.379 158.106 223.822 158.35 223.126C158.595 222.417 158.772 221.598 158.882 220.669C158.992 219.728 159.047 218.725 159.047 217.662C159.047 216.354 158.974 215.248 158.827 214.343C158.692 213.439 158.491 212.711 158.222 212.161C157.953 211.599 157.629 211.196 157.25 210.951C156.883 210.694 156.468 210.566 156.003 210.566C155.734 210.566 155.465 210.645 155.196 210.804C154.928 210.951 154.683 211.141 154.463 211.373C154.255 211.593 154.084 211.843 153.95 212.125C153.815 212.406 153.748 212.675 153.748 212.931V223.144ZM182.901 211.116C182.901 213.353 182.681 215.517 182.241 217.607C181.813 219.685 181.214 221.641 180.444 223.474C179.686 225.295 178.782 226.958 177.731 228.461C176.679 229.977 175.536 231.273 174.302 232.348C173.067 233.424 171.759 234.261 170.378 234.86C169.009 235.459 167.622 235.759 166.216 235.759C165.14 235.759 164.309 235.575 163.722 235.209C163.136 234.854 162.842 234.371 162.842 233.76C162.842 233.528 162.879 233.302 162.952 233.082C163.026 232.862 163.123 232.666 163.246 232.495C163.368 232.324 163.515 232.183 163.686 232.073C163.857 231.976 164.04 231.927 164.236 231.927C164.468 231.927 164.664 232.043 164.823 232.275C164.969 232.507 165.128 232.758 165.299 233.027C165.47 233.308 165.678 233.565 165.923 233.797C166.167 234.029 166.503 234.145 166.931 234.145C167.481 234.145 168.056 234.047 168.655 233.852C169.254 233.669 169.853 233.4 170.451 233.045C171.063 232.691 171.668 232.257 172.267 231.743C172.878 231.242 173.477 230.68 174.064 230.057C173.721 228.822 173.324 227.477 172.872 226.023C172.432 224.556 171.961 223.083 171.46 221.604C170.971 220.125 170.464 218.701 169.938 217.332C169.425 215.951 168.917 214.728 168.416 213.665C167.927 212.601 167.451 211.752 166.986 211.116C166.534 210.468 166.13 210.144 165.776 210.144C165.544 210.144 165.366 210.181 165.244 210.254C165.11 210.328 164.957 210.432 164.786 210.566L164.419 210.108C164.664 209.9 164.92 209.686 165.189 209.466C165.458 209.246 165.776 209.044 166.143 208.861C166.509 208.677 166.937 208.531 167.426 208.421C167.915 208.299 168.502 208.237 169.186 208.237C169.932 208.237 170.623 208.409 171.258 208.751C171.906 209.081 172.493 209.698 173.018 210.603C173.397 211.275 173.788 212.082 174.192 213.023C174.607 213.964 175.023 215.015 175.439 216.177C175.854 217.338 176.27 218.597 176.685 219.954C177.113 221.298 177.541 222.71 177.969 224.189C178.727 222.6 179.338 220.919 179.802 219.147C180.267 217.362 180.499 215.529 180.499 213.646C180.499 212.974 180.456 212.4 180.371 211.923C180.285 211.446 180.188 211.043 180.078 210.713C179.968 210.37 179.87 210.083 179.784 209.851C179.699 209.606 179.656 209.393 179.656 209.209C179.656 209.026 179.729 208.873 179.876 208.751C180.023 208.616 180.2 208.512 180.408 208.439C180.615 208.366 180.823 208.317 181.031 208.292C181.251 208.256 181.434 208.237 181.581 208.237C181.911 208.237 182.162 208.305 182.333 208.439C182.516 208.574 182.651 208.769 182.736 209.026C182.822 209.27 182.871 209.57 182.883 209.924C182.895 210.279 182.901 210.676 182.901 211.116Z"
        fill="#001E2B" />
    <mask id="mask23_50_4134" style="mask-type:luminance" maskUnits="userSpaceOnUse" x="0" y="0" width="218"
        height="387">
        <path d="M0.97998 386.024H217.757V0.642567H0.97998V386.024Z" fill="white" />
    </mask>
    <g mask="url(#mask23_50_4134)">
        <path d="M18.2711 23.6934V8.61603H8.95239V17.2854H16.5591" stroke="#001E2B" stroke-width="0.666667"
            stroke-miterlimit="10" />
        <path d="M20.1727 16.9085H35.3874V26.7085H29.4914" stroke="#001E2B" stroke-width="0.666667"
            stroke-miterlimit="10" />
        <path d="M25.7594 25.7665H8.9527V95.4998V177.389" stroke="#001E2B" stroke-width="0.666667"
            stroke-miterlimit="10" />
        <path d="M18.4612 27.6512V34.6245H27.3998V18.7938" stroke="#001E2B" stroke-width="0.666667"
            stroke-miterlimit="10" />
        <path d="M27.3995 14.4585V8.33316H80.3649H138.37" stroke="#001E2B" stroke-width="0.666667"
            stroke-miterlimit="10" />
        <path d="M200.464 23.6934V8.61603H209.782V17.2854H202.176" stroke="#001E2B" stroke-width="0.666667"
            stroke-miterlimit="10" />
        <path d="M198.562 16.9085H183.347V26.7085H189.243" stroke="#001E2B" stroke-width="0.666667"
            stroke-miterlimit="10" />
        <path d="M192.975 25.7667H209.782V95.5001V178.803" stroke="#001E2B" stroke-width="0.666667"
            stroke-miterlimit="10" />
        <path d="M200.273 27.6512V34.6245H191.335V18.7938" stroke="#001E2B" stroke-width="0.666667"
            stroke-miterlimit="10" />
        <path d="M191.335 14.4585V8.33316H138.37" stroke="#001E2B" stroke-width="0.666667" stroke-miterlimit="10" />
        <path d="M18.2711 362.973V378.05H8.95239V369.381H16.5591" stroke="#001E2B" stroke-width="0.666667"
            stroke-miterlimit="10" />
        <path d="M20.1727 369.758H35.3874V359.958H29.4914" stroke="#001E2B" stroke-width="0.666667"
            stroke-miterlimit="10" />
        <path d="M25.7594 360.9H8.9527V177.389" stroke="#001E2B" stroke-width="0.666667" stroke-miterlimit="10" />
        <path d="M18.4612 359.015V352.042H27.3998V367.873" stroke="#001E2B" stroke-width="0.666667"
            stroke-miterlimit="10" />
        <path d="M27.3995 372.208V378.333H80.3649H138.37" stroke="#001E2B" stroke-width="0.666667"
            stroke-miterlimit="10" />
        <path d="M200.464 362.973V378.05H209.782V369.381H202.176" stroke="#001E2B" stroke-width="0.666667"
            stroke-miterlimit="10" />
        <path d="M198.562 369.758H183.347V359.958H189.243" stroke="#001E2B" stroke-width="0.666667"
            stroke-miterlimit="10" />
        <path d="M192.975 360.9H209.782V177.389" stroke="#001E2B" stroke-width="0.666667" stroke-miterlimit="10" />
        <path d="M200.273 359.015V352.042H191.335V367.873" stroke="#001E2B" stroke-width="0.666667"
            stroke-miterlimit="10" />
        <path d="M191.335 372.208V378.333H138.37" stroke="#001E2B" stroke-width="0.666667" stroke-miterlimit="10" />
        <path
            d="M201.402 162.191L199.674 161.541C198.018 160.917 196.71 159.61 196.086 157.953L195.435 156.225C195.394 156.114 195.238 156.114 195.195 156.225L194.544 157.953C193.92 159.61 192.614 160.917 190.958 161.541L189.228 162.191C189.118 162.233 189.118 162.39 189.228 162.431L190.958 163.082C192.614 163.706 193.92 165.013 194.544 166.669L195.195 168.398C195.238 168.509 195.394 168.509 195.435 168.398L196.086 166.669C196.71 165.013 198.018 163.706 199.674 163.082L201.402 162.431C201.512 162.39 201.512 162.233 201.402 162.191Z"
            fill="#F3F4F6" />
        <path
            d="M56.3073 46.2692C55.354 45.9106 54.602 45.1586 54.2433 44.2052L53.87 43.2119C53.846 43.1479 53.7553 43.1479 53.7313 43.2119L53.3567 44.2052C52.998 45.1586 52.246 45.9106 51.294 46.2692L50.2993 46.6439C50.2353 46.6679 50.2353 46.7572 50.2993 46.7812L51.294 47.1559C52.246 47.5146 52.998 48.2666 53.3567 49.2199L53.7313 50.2132C53.7553 50.2772 53.846 50.2772 53.87 50.2132L54.2433 49.2199C54.602 48.2666 55.354 47.5146 56.3073 47.1559L57.302 46.7812C57.3647 46.7572 57.3647 46.6679 57.302 46.6439L56.3073 46.2692Z"
            fill="#F3F4F6" />
        <path
            d="M194.4 333.779C193.447 333.42 192.695 332.668 192.336 331.715L191.963 330.722C191.939 330.658 191.848 330.658 191.824 330.722L191.449 331.715C191.091 332.668 190.339 333.42 189.387 333.779L188.392 334.154C188.328 334.178 188.328 334.267 188.392 334.291L189.387 334.666C190.339 335.024 191.091 335.776 191.449 336.73L191.824 337.723C191.848 337.787 191.939 337.787 191.963 337.723L192.336 336.73C192.695 335.776 193.447 335.024 194.4 334.666L195.395 334.291C195.457 334.267 195.457 334.178 195.395 334.154L194.4 333.779Z"
            fill="#F3F4F6" />
        <path
            d="M166.431 91.8322C165.477 91.4736 164.725 90.7216 164.367 89.7682L163.993 88.7749C163.969 88.7109 163.879 88.7109 163.855 88.7749L163.48 89.7682C163.121 90.7216 162.369 91.4736 161.417 91.8322L160.423 92.2069C160.359 92.2309 160.359 92.3202 160.423 92.3442L161.417 92.7189C162.369 93.0776 163.121 93.8296 163.48 94.7829L163.855 95.7762C163.879 95.8402 163.969 95.8402 163.993 95.7762L164.367 94.7829C164.725 93.8296 165.477 93.0776 166.431 92.7189L167.425 92.3442C167.488 92.3202 167.488 92.2309 167.425 92.2069L166.431 91.8322Z"
            fill="#F3F4F6" />
        <path
            d="M124.361 40.1335C123.407 39.7748 122.655 39.0228 122.297 38.0695L121.923 37.0762C121.899 37.0122 121.809 37.0122 121.785 37.0762L121.41 38.0695C121.051 39.0228 120.299 39.7748 119.347 40.1335L118.353 40.5082C118.289 40.5322 118.289 40.6215 118.353 40.6455L119.347 41.0202C120.299 41.3788 121.051 42.1308 121.41 43.0842L121.785 44.0775C121.809 44.1415 121.899 44.1415 121.923 44.0775L122.297 43.0842C122.655 42.1308 123.407 41.3788 124.361 41.0202L125.355 40.6455C125.418 40.6215 125.418 40.5322 125.355 40.5082L124.361 40.1335Z"
            fill="#F3F4F6" />
        <path
            d="M202.082 57.6289L203.478 57.1036C203.567 57.0689 203.567 56.9436 203.478 56.9089L202.082 56.3836C200.745 55.8796 199.689 54.8236 199.185 53.4863L198.658 52.0903C198.625 52.0009 198.498 52.0009 198.465 52.0903L197.939 53.4863C197.435 54.8236 196.379 55.8796 195.042 56.3836L193.646 56.9089C193.557 56.9436 193.557 57.0689 193.646 57.1036L195.042 57.6289C196.379 58.1329 197.435 59.1889 197.939 60.5263L198.465 61.9223C198.498 62.0116 198.625 62.0116 198.658 61.9223L199.185 60.5263C199.689 59.1889 200.745 58.1329 202.082 57.6289Z"
            fill="#F3F4F6" />
        <path
            d="M21.8625 101.989L22.5132 103.717C22.5545 103.827 22.7118 103.827 22.7532 103.717L23.4038 101.989C24.0278 100.333 25.3345 99.0248 26.9918 98.4021L28.7198 97.7501C28.8305 97.7088 28.8305 97.5528 28.7198 97.5115L26.9918 96.8595C25.3345 96.2368 24.0278 94.9288 23.4038 93.2728L22.7532 91.5448C22.7118 91.4341 22.5545 91.4341 22.5132 91.5448L21.8625 93.2728C21.2385 94.9288 19.9318 96.2368 18.2758 96.8595L16.5465 97.5115C16.4358 97.5528 16.4358 97.7088 16.5465 97.7501L18.2758 98.4021C19.9318 99.0248 21.2385 100.333 21.8625 101.989Z"
            fill="#F3F4F6" />
        <path
            d="M196.235 242.705C194.996 242.238 194.019 241.261 193.552 240.022L193.065 238.729C193.033 238.646 192.916 238.646 192.885 238.729L192.399 240.022C191.932 241.261 190.955 242.238 189.716 242.705L188.423 243.191C188.34 243.222 188.34 243.339 188.423 243.371L189.716 243.858C190.955 244.325 191.932 245.302 192.399 246.541L192.885 247.833C192.916 247.915 193.033 247.915 193.065 247.833L193.552 246.541C194.019 245.302 194.996 244.325 196.235 243.858L197.527 243.371C197.611 243.339 197.611 243.222 197.527 243.191L196.235 242.705Z"
            fill="#F3F4F6" />
        <path
            d="M25.6307 244.741C24.392 244.274 23.4147 243.297 22.948 242.058L22.4614 240.765C22.4294 240.682 22.312 240.682 22.2814 240.765L21.7947 242.058C21.328 243.297 20.3507 244.274 19.112 244.741L17.8187 245.227C17.736 245.258 17.736 245.375 17.8187 245.407L19.112 245.894C20.3507 246.361 21.328 247.338 21.7947 248.577L22.2814 249.869C22.312 249.951 22.4294 249.951 22.4614 249.869L22.948 248.577C23.4147 247.338 24.392 246.361 25.6307 245.894L26.9227 245.407C27.0067 245.375 27.0067 245.258 26.9227 245.227L25.6307 244.741Z"
            fill="#F3F4F6" />
        <path
            d="M58.3525 150.069L57.0605 149.582C55.8205 149.116 54.8432 148.138 54.3765 146.9L53.8899 145.606C53.8592 145.524 53.7419 145.524 53.7112 145.606L53.2245 146.9C52.7579 148.138 51.7792 149.116 50.5405 149.582L49.2485 150.069C49.1659 150.1 49.1659 150.217 49.2485 150.249L50.5405 150.736C51.7792 151.201 52.7579 152.18 53.2245 153.418L53.7112 154.71C53.7419 154.793 53.8592 154.793 53.8899 154.71L54.3765 153.418C54.8432 152.18 55.8205 151.201 57.0605 150.736L58.3525 150.249C58.4352 150.217 58.4352 150.1 58.3525 150.069Z"
            fill="#F3F4F6" />
        <path
            d="M64.5137 317.97C62.9364 317.376 61.6924 316.131 61.0991 314.555L60.4791 312.908C60.4391 312.804 60.2897 312.804 60.2511 312.908L59.6311 314.555C59.0377 316.131 57.7924 317.376 56.2151 317.97L54.5697 318.59C54.4644 318.628 54.4644 318.778 54.5697 318.818L56.2151 319.438C57.7924 320.031 59.0377 321.275 59.6311 322.852L60.2511 324.498C60.2897 324.603 60.4391 324.603 60.4791 324.498L61.0991 322.852C61.6924 321.275 62.9364 320.031 64.5137 319.438L66.1591 318.818C66.2644 318.778 66.2644 318.628 66.1591 318.59L64.5137 317.97Z"
            fill="#F3F4F6" />
        <path
            d="M151.991 186.803C150.625 186.288 149.548 185.211 149.033 183.846L148.497 182.42C148.463 182.33 148.333 182.33 148.299 182.42L147.763 183.846C147.248 185.211 146.171 186.288 144.805 186.803L143.38 187.339C143.289 187.374 143.289 187.503 143.38 187.538L144.805 188.074C146.171 188.588 147.248 189.666 147.763 191.031L148.299 192.456C148.333 192.547 148.463 192.547 148.497 192.456L149.033 191.031C149.548 189.666 150.625 188.588 151.991 188.074L153.416 187.538C153.507 187.503 153.507 187.374 153.416 187.339L151.991 186.803Z"
            fill="#F3F4F6" />
    </g>
    <defs>
        <linearGradient id="paint0_linear_50_4134" x1="137.758" y1="337.487" x2="120.743" y2="134.864"
            gradientUnits="userSpaceOnUse">
            <stop stop-color="white" stop-opacity="0" />
            <stop offset="0.00372324" stop-color="white" stop-opacity="0" />
            <stop offset="1" stop-color="white" stop-opacity="0.349996" />
        </linearGradient>
        <linearGradient id="paint1_linear_50_4134" x1="137.755" y1="337.494" x2="120.74" y2="134.871"
            gradientUnits="userSpaceOnUse">
            <stop stop-color="#F3F4F6" />
            <stop offset="0.00372324" stop-color="#F3F4F6" />
            <stop offset="1" stop-color="#FAAC01" />
        </linearGradient>
        <linearGradient id="paint2_linear_50_4134" x1="81.724" y1="203.14" x2="98.7388" y2="0.51682"
            gradientUnits="userSpaceOnUse">
            <stop stop-color="white" stop-opacity="0" />
            <stop offset="0.00372324" stop-color="white" stop-opacity="0" />
            <stop offset="1" stop-color="white" stop-opacity="0.349996" />
        </linearGradient>
        <linearGradient id="paint3_linear_50_4134" x1="81.7218" y1="203.146" x2="98.7365" y2="0.522475"
            gradientUnits="userSpaceOnUse">
            <stop stop-color="#F3F4F6" />
            <stop offset="0.00372324" stop-color="#F3F4F6" />
            <stop offset="1" stop-color="#FAAC01" />
        </linearGradient>
        <linearGradient id="paint4_linear_50_4134" x1="132.453" y1="175.949" x2="115.438" y2="-26.6741"
            gradientUnits="userSpaceOnUse">
            <stop stop-color="white" stop-opacity="0" />
            <stop offset="0.00372324" stop-color="white" stop-opacity="0" />
            <stop offset="1" stop-color="white" stop-opacity="0.349996" />
        </linearGradient>
        <linearGradient id="paint5_linear_50_4134" x1="132.45" y1="175.951" x2="115.435" y2="-26.6722"
            gradientUnits="userSpaceOnUse">
            <stop stop-color="#F3F4F6" />
            <stop offset="0.00372324" stop-color="#F3F4F6" />
            <stop offset="1" stop-color="#FAAC01" />
        </linearGradient>
        <linearGradient id="paint6_linear_50_4134" x1="161.708" y1="212.667" x2="155.55" y2="142.283"
            gradientUnits="userSpaceOnUse">
            <stop stop-color="white" stop-opacity="0" />
            <stop offset="0.00372324" stop-color="white" stop-opacity="0" />
            <stop offset="1" stop-color="white" stop-opacity="0.349996" />
        </linearGradient>
        <linearGradient id="paint7_linear_50_4134" x1="161.708" y1="212.668" x2="155.55" y2="142.284"
            gradientUnits="userSpaceOnUse">
            <stop stop-color="#F3F4F6" />
            <stop offset="0.00372324" stop-color="#F3F4F6" />
            <stop offset="1" stop-color="#FAAC01" />
        </linearGradient>
    </defs>
</svg>