<svg width="218" height="387" viewBox="0 0 218 387" fill="none" xmlns="http://www.w3.org/2000/svg">
    <path d="M0.242676 386.024H217.02V0.643055H0.242676V386.024Z" fill="white" />
    <mask id="mask0_50_11912" style="mask-type:luminance" maskUnits="userSpaceOnUse" x="0" y="0" width="218"
        height="387">
        <path d="M0.242676 386.024H217.02V0.643055H0.242676V386.024Z" fill="white" />
    </mask>
    <g mask="url(#mask0_50_11912)">
        <mask id="mask1_50_11912" style="mask-type:luminance" maskUnits="userSpaceOnUse" x="0" y="0" width="218"
            height="387">
            <path d="M0.242676 0.643055H217.02V386.024H0.242676V0.643055Z" fill="white" />
        </mask>
        <g mask="url(#mask1_50_11912)">
            <g opacity="0.25">
                <path d="M0.242676 386.024H217.02V0.643055H0.242676V386.024Z" fill="#FAAC01" />
            </g>
        </g>
        <mask id="mask2_50_11912" style="mask-type:luminance" maskUnits="userSpaceOnUse" x="38" y="230" width="180"
            height="108">
            <path d="M38.34 230.455H217.02V337.641H38.34V230.455Z" fill="white" />
        </mask>
        <g mask="url(#mask2_50_11912)">
            <mask id="mask3_50_11912" style="mask-type:luminance" maskUnits="userSpaceOnUse" x="38" y="230" width="180"
                height="108">
                <path
                    d="M217.02 233.738V337.641H38.34C42.384 336.107 46.2094 333.737 49.4734 330.959C50.376 330.191 51.248 329.394 52.0987 328.575C56.204 324.614 59.7707 320.114 63.4254 315.689C65.4454 313.235 67.496 310.803 69.6827 308.498C72.5347 305.493 75.764 302.658 79.2774 300.383C84.304 297.133 89.916 295.042 95.8454 295.253C101.668 295.458 107.128 297.846 112.535 300.383C119.672 303.731 126.709 307.337 134.36 306.518C134.82 306.47 135.271 306.403 135.719 306.321C138.597 305.813 141.244 304.69 143.64 303.122C144.872 302.321 146.037 301.399 147.137 300.383C150.555 297.225 153.355 293.137 155.501 288.763C156.605 286.525 157.539 284.206 158.301 281.902C162.096 270.399 163.441 257.829 170.044 247.673C174.843 240.289 182.375 234.834 190.765 232.205C195.476 230.729 200.461 230.145 205.383 230.614C209.409 230.995 213.34 232.078 217.02 233.738Z"
                    fill="white" />
            </mask>
            <g mask="url(#mask3_50_11912)">
                <mask id="mask4_50_11912" style="mask-type:luminance" maskUnits="userSpaceOnUse" x="-43730" y="-43163"
                    width="87381" height="87381">
                    <path d="M-43729.7 -43162.7H43650.3V44217.3H-43729.7V-43162.7Z"
                        fill="url(#paint0_linear_50_11912)" />
                </mask>
                <g mask="url(#mask4_50_11912)">
                    <path
                        d="M217.02 233.738V337.641H38.3398C42.3838 336.107 46.2092 333.737 49.4732 330.959C50.3758 330.191 51.2478 329.394 52.0985 328.575C56.2038 324.614 59.7705 320.114 63.4252 315.689C65.4452 313.235 67.4958 310.803 69.6825 308.498C72.5345 305.493 75.7638 302.658 79.2772 300.383C84.3038 297.133 89.9158 295.042 95.8452 295.253C101.668 295.458 107.128 297.846 112.535 300.383C119.672 303.731 126.709 307.337 134.36 306.518C134.82 306.47 135.271 306.403 135.719 306.321C138.597 305.813 141.244 304.69 143.64 303.122C144.872 302.321 146.037 301.399 147.137 300.383C150.555 297.225 153.355 293.137 155.501 288.763C156.605 286.525 157.539 284.206 158.301 281.902C162.096 270.399 163.441 257.829 170.044 247.673C174.843 240.289 182.375 234.834 190.765 232.205C195.476 230.729 200.461 230.145 205.383 230.614C209.409 230.995 213.34 232.078 217.02 233.738Z"
                        fill="url(#paint1_linear_50_11912)" />
                </g>
            </g>
        </g>
        <mask id="mask5_50_11912" style="mask-type:luminance" maskUnits="userSpaceOnUse" x="0" y="176" width="179"
            height="109">
            <path d="M0.242676 176.864H178.923V284.049H0.242676V176.864Z" fill="white" />
        </mask>
        <g mask="url(#mask5_50_11912)">
            <mask id="mask6_50_11912" style="mask-type:luminance" maskUnits="userSpaceOnUse" x="0" y="176" width="179"
                height="109">
                <path
                    d="M0.242676 180.146V284.049H178.923C174.879 282.514 171.053 280.145 167.789 277.366C166.887 276.6 166.015 275.802 165.164 274.982C161.059 271.022 157.492 266.522 153.837 262.097C151.817 259.642 149.767 257.21 147.58 254.906C144.728 251.9 141.499 249.065 137.985 246.792C132.959 243.54 127.347 241.45 121.417 241.66C115.595 241.866 110.135 244.254 104.728 246.792C97.5907 250.138 90.5533 253.745 82.9027 252.925C82.4427 252.877 81.992 252.812 81.544 252.729C78.6653 252.22 76.0187 251.098 73.6227 249.53C72.3907 248.728 71.2253 247.808 70.1253 246.792C66.708 243.632 63.908 239.544 61.7613 235.172C60.6573 232.932 59.724 230.614 58.9613 228.309C55.1667 216.808 53.8213 204.237 47.2187 194.08C42.42 186.697 34.888 181.241 26.4973 178.613C21.7867 177.136 16.8013 176.553 11.88 177.022C7.85334 177.403 3.92268 178.485 0.242676 180.146Z"
                    fill="white" />
            </mask>
            <g mask="url(#mask6_50_11912)">
                <mask id="mask7_50_11912" style="mask-type:luminance" maskUnits="userSpaceOnUse" x="-43730" y="-43163"
                    width="87381" height="87381">
                    <path d="M-43729.7 -43162.7H43650.3V44217.3H-43729.7V-43162.7Z"
                        fill="url(#paint2_linear_50_11912)" />
                </mask>
                <g mask="url(#mask7_50_11912)">
                    <path
                        d="M0.242188 180.144V284.047H178.922C174.878 282.512 171.053 280.143 167.789 277.364C166.886 276.598 166.014 275.8 165.164 274.98C161.058 271.02 157.492 266.52 153.837 262.095C151.817 259.64 149.766 257.208 147.58 254.904C144.728 251.898 141.498 249.063 137.985 246.79C132.958 243.538 127.346 241.448 121.417 241.658C115.594 241.864 110.134 244.252 104.728 246.79C97.5902 250.136 90.5529 253.743 82.9022 252.923C82.4422 252.875 81.9915 252.81 81.5435 252.727C78.6648 252.218 76.0182 251.096 73.6222 249.528C72.3902 248.726 71.2249 247.806 70.1249 246.79C66.7075 243.63 63.9075 239.542 61.7609 235.17C60.6569 232.93 59.7235 230.612 58.9609 228.307C55.1662 216.806 53.8209 204.235 47.2182 194.078C42.4195 186.695 34.8875 181.239 26.4969 178.611C21.7862 177.134 16.8009 176.551 11.8795 177.02C7.85285 177.402 3.92219 178.483 0.242188 180.144Z"
                        fill="url(#paint3_linear_50_11912)" />
                </g>
            </g>
        </g>
        <mask id="mask8_50_11912" style="mask-type:luminance" maskUnits="userSpaceOnUse" x="0" y="63" width="218"
            height="97">
            <path d="M0.242676 63.1884H217.02V159.747H0.242676V63.1884Z" fill="white" />
        </mask>
        <g mask="url(#mask8_50_11912)">
            <mask id="mask9_50_11912" style="mask-type:luminance" maskUnits="userSpaceOnUse" x="0" y="63" width="218"
                height="97">
                <path
                    d="M215.699 126.956C216.136 127.114 216.576 127.254 217.02 127.376V159.747H0.242676V128.138C13.1787 127.356 25.876 121.871 35.0707 112.732C36.0947 111.715 37.0787 110.648 38.012 109.542C49.544 95.8511 54.5307 76.0111 70.1053 67.1897C77.6187 62.9377 86.94 62.0137 95.1373 64.7124C103.339 67.4097 110.292 73.6857 113.811 81.5697C118.233 91.4817 118.247 104.679 127.555 110.264C136.069 115.374 146.955 110.602 155.328 105.263C163.707 99.9231 173.171 93.7071 182.769 96.2577C188.916 97.8924 193.151 102.567 197.036 107.854C202.503 115.291 207.275 123.928 215.699 126.956Z"
                    fill="white" />
            </mask>
            <g mask="url(#mask9_50_11912)">
                <mask id="mask10_50_11912" style="mask-type:luminance" maskUnits="userSpaceOnUse" x="-43730" y="-43163"
                    width="87381" height="87381">
                    <path d="M-43729.7 -43162.7H43650.3V44217.3H-43729.7V-43162.7Z"
                        fill="url(#paint4_linear_50_11912)" />
                </mask>
                <g mask="url(#mask10_50_11912)">
                    <path
                        d="M215.698 126.955C216.136 127.113 216.576 127.253 217.02 127.375V159.746H0.242188V128.137C13.1782 127.355 25.8755 121.87 35.0702 112.731C36.0942 111.714 37.0782 110.647 38.0115 109.541C49.5435 95.8501 54.5302 76.0101 70.1049 67.1888C77.6182 62.9368 86.9395 62.0128 95.1369 64.7114C103.338 67.4088 110.292 73.6848 113.81 81.5688C118.233 91.4808 118.246 104.678 127.554 110.263C136.069 115.373 146.954 110.601 155.328 105.262C163.706 99.9221 173.17 93.7061 182.769 96.2568C188.916 97.8914 193.15 102.566 197.036 107.853C202.502 115.29 207.274 123.927 215.698 126.955Z"
                        fill="url(#paint5_linear_50_11912)" />
                </g>
            </g>
        </g>
        <path
            d="M195.414 95.9596L182.565 95.9609C177.429 95.9623 173.265 91.7996 173.265 86.6636L173.261 54.9303C173.26 49.7943 177.422 45.6303 182.558 45.6303L195.408 45.6276C200.286 45.6276 204.242 49.5823 204.242 54.4609L204.246 87.1249C204.248 92.0036 200.293 95.9596 195.414 95.9596Z"
            fill="#FAAC01" />
        <mask id="mask11_50_11912" style="mask-type:luminance" maskUnits="userSpaceOnUse" x="173" y="45" width="32"
            height="51">
            <path d="M173.26 45.6276H204.247V95.9609H173.26V45.6276Z" fill="white" />
        </mask>
        <g mask="url(#mask11_50_11912)">
            <g opacity="0.350006">
                <path
                    d="M195.414 95.9596L182.565 95.9609C177.429 95.9623 173.265 91.7996 173.265 86.6636L173.261 54.9303C173.26 49.7943 177.422 45.6303 182.558 45.6303L195.408 45.6276C200.286 45.6276 204.242 49.5823 204.242 54.4609L204.246 87.1249C204.248 92.0036 200.293 95.9596 195.414 95.9596Z"
                    fill="#FAAC01" />
            </g>
        </g>
        <path d="M182.399 43.4925L189.521 35.1818L195.457 43.7285" stroke="#001E2B" stroke-width="0.465333"
            stroke-miterlimit="10" stroke-linecap="round" stroke-linejoin="round" />
        <path d="M189.521 35.1821L189.518 -15.3325" stroke="#001E2B" stroke-width="0.465333" stroke-miterlimit="10"
            stroke-linecap="round" stroke-linejoin="round" />
        <path
            d="M201.157 51.3763L201.161 84.0377C201.161 84.4977 201.124 84.9443 201.06 85.3857C201.045 85.4657 201.036 85.5403 201.017 85.619C200.845 86.5817 200.516 87.4923 200.05 88.3203C200.009 88.399 199.966 88.4777 199.921 88.5523C199.288 89.6177 198.433 90.5377 197.424 91.2497C197.313 91.3283 197.196 91.407 197.08 91.4817C195.709 92.3603 194.081 92.8723 192.329 92.8723L179.478 92.875C177.702 92.875 176.042 92.3777 174.633 91.5123C174.629 91.503 174.624 91.4937 174.614 91.4857C174.568 91.411 174.526 91.331 174.48 91.2523C174.005 90.4257 173.657 89.519 173.461 88.5563C173.442 88.4777 173.429 88.403 173.414 88.323C173.317 87.7843 173.265 87.231 173.265 86.6643L173.261 54.927C173.261 54.4017 173.304 53.8857 173.392 53.3883C173.401 53.3097 173.414 53.231 173.433 53.1563C173.614 52.1937 173.949 51.287 174.409 50.459C174.446 50.3803 174.493 50.3017 174.54 50.227C175.153 49.1763 175.966 48.2603 176.929 47.5257C177.036 47.4457 177.142 47.367 177.249 47.2923C178.752 46.2417 180.582 45.6283 182.558 45.627L195.409 45.6257C197.06 45.6257 198.6 46.0763 199.92 46.8617C200.004 47.0017 200.082 47.1457 200.157 47.2897C200.198 47.3683 200.241 47.443 200.269 47.5217C200.682 48.355 200.957 49.2657 201.082 50.223C201.092 50.303 201.101 50.3763 201.11 50.4563C201.142 50.7577 201.157 51.0643 201.157 51.3763Z"
            fill="#FAAC01" />
        <mask id="mask12_50_11912" style="mask-type:luminance" maskUnits="userSpaceOnUse" x="173" y="47" width="29"
            height="45">
            <path d="M173.261 47.5204H201.16V91.4844H173.261V47.5204Z" fill="white" />
        </mask>
        <g mask="url(#mask12_50_11912)">
            <g opacity="0.399994">
                <path
                    d="M200.268 47.7522L176.928 47.7549C177.035 47.6762 177.143 47.5975 177.249 47.5242L200.156 47.5215C200.199 47.6002 200.24 47.6735 200.268 47.7522Z"
                    fill="#F3F4F6" />
                <path
                    d="M201.11 50.6698L174.409 50.6738C174.446 50.5952 174.493 50.5165 174.539 50.4418L201.082 50.4392C201.091 50.5178 201.101 50.5912 201.11 50.6698Z"
                    fill="#F3F4F6" />
                <path
                    d="M201.157 53.3522V53.5829L173.391 53.5869C173.401 53.5082 173.414 53.4296 173.433 53.3562L201.157 53.3522Z"
                    fill="#F3F4F6" />
                <path d="M201.157 56.2663V56.497L173.261 56.501V56.2703L201.157 56.2663Z" fill="#F3F4F6" />
                <path d="M201.158 59.1843V59.4149L173.262 59.4189V59.1883L201.158 59.1843Z" fill="#F3F4F6" />
                <path d="M201.158 62.0983V62.329L173.262 62.333V62.1023L201.158 62.0983Z" fill="#F3F4F6" />
                <path d="M201.158 65.0124V65.2431L173.262 65.2471V65.0164L201.158 65.0124Z" fill="#F3F4F6" />
                <path d="M201.159 67.9304V68.161L173.263 68.165V67.9344L201.159 67.9304Z" fill="#F3F4F6" />
                <path d="M201.159 70.8444V71.0751L173.263 71.0791V70.8484L201.159 70.8444Z" fill="#F3F4F6" />
                <path d="M201.159 73.7585V73.9892L173.263 73.9932V73.7625L201.159 73.7585Z" fill="#F3F4F6" />
                <path d="M201.16 76.6765V76.9071L173.264 76.9111V76.6805L201.16 76.6765Z" fill="#F3F4F6" />
                <path d="M201.16 79.5905V79.8212L173.264 79.8252V79.5945L201.16 79.5905Z" fill="#F3F4F6" />
                <path d="M201.161 82.5046V82.7353L173.265 82.7393V82.5086L201.161 82.5046Z" fill="#F3F4F6" />
                <path
                    d="M201.059 85.4177C201.046 85.4963 201.036 85.571 201.018 85.6483L173.266 85.6523V85.4217L201.059 85.4177Z"
                    fill="#F3F4F6" />
                <path
                    d="M200.05 88.3366C200.009 88.4153 199.966 88.494 199.92 88.5673L173.461 88.5713C173.442 88.4926 173.428 88.4193 173.414 88.3406L200.05 88.3366Z"
                    fill="#F3F4F6" />
                <path
                    d="M197.424 91.2507C197.312 91.3294 197.196 91.408 197.08 91.4814L174.614 91.4854C174.568 91.4107 174.526 91.332 174.48 91.2534L197.424 91.2507Z"
                    fill="#F3F4F6" />
            </g>
        </g>
        <path d="M196.328 45.6276L181.451 45.6289L181.449 43.2556L196.328 43.2529V45.6276Z" fill="#8E0413" />
        <path d="M196.335 98.3327L181.457 98.334L181.456 95.9607L196.335 95.958V98.3327Z" fill="#8E0413" />
        <path d="M182.327 97.7811L182.329 104.508" stroke="#001E2B" stroke-width="0.465333" stroke-miterlimit="10"
            stroke-linecap="round" stroke-linejoin="round" />
        <path d="M183.143 97.7811L183.145 104.508" stroke="#001E2B" stroke-width="0.465333" stroke-miterlimit="10"
            stroke-linecap="round" stroke-linejoin="round" />
        <path d="M183.96 97.7811L183.961 104.508" stroke="#001E2B" stroke-width="0.465333" stroke-miterlimit="10"
            stroke-linecap="round" stroke-linejoin="round" />
        <path d="M184.776 97.7811L184.777 104.508" stroke="#001E2B" stroke-width="0.465333" stroke-miterlimit="10"
            stroke-linecap="round" stroke-linejoin="round" />
        <path d="M185.592 97.7802L185.593 104.507" stroke="#001E2B" stroke-width="0.465333" stroke-miterlimit="10"
            stroke-linecap="round" stroke-linejoin="round" />
        <path d="M186.408 97.7802L186.409 104.507" stroke="#001E2B" stroke-width="0.465333" stroke-miterlimit="10"
            stroke-linecap="round" stroke-linejoin="round" />
        <path d="M187.224 97.7802L187.225 104.507" stroke="#001E2B" stroke-width="0.465333" stroke-miterlimit="10"
            stroke-linecap="round" stroke-linejoin="round" />
        <path d="M188.04 97.7802L188.041 104.507" stroke="#001E2B" stroke-width="0.465333" stroke-miterlimit="10"
            stroke-linecap="round" stroke-linejoin="round" />
        <path d="M188.856 97.7802L188.857 104.507" stroke="#001E2B" stroke-width="0.465333" stroke-miterlimit="10"
            stroke-linecap="round" stroke-linejoin="round" />
        <path d="M189.672 97.7802L189.674 104.507" stroke="#001E2B" stroke-width="0.465333" stroke-miterlimit="10"
            stroke-linecap="round" stroke-linejoin="round" />
        <path d="M190.488 97.7802L190.49 104.507" stroke="#001E2B" stroke-width="0.465333" stroke-miterlimit="10"
            stroke-linecap="round" stroke-linejoin="round" />
        <path d="M191.305 97.7802L191.306 104.507" stroke="#001E2B" stroke-width="0.465333" stroke-miterlimit="10"
            stroke-linecap="round" stroke-linejoin="round" />
        <path d="M192.121 97.7792L192.122 104.506" stroke="#001E2B" stroke-width="0.465333" stroke-miterlimit="10"
            stroke-linecap="round" stroke-linejoin="round" />
        <path d="M192.937 97.7792L192.938 104.506" stroke="#001E2B" stroke-width="0.465333" stroke-miterlimit="10"
            stroke-linecap="round" stroke-linejoin="round" />
        <path d="M193.753 97.7792L193.754 104.506" stroke="#001E2B" stroke-width="0.465333" stroke-miterlimit="10"
            stroke-linecap="round" stroke-linejoin="round" />
        <path d="M194.569 97.7792L194.57 104.506" stroke="#001E2B" stroke-width="0.465333" stroke-miterlimit="10"
            stroke-linecap="round" stroke-linejoin="round" />
        <path d="M195.385 97.7792L195.386 104.506" stroke="#001E2B" stroke-width="0.465333" stroke-miterlimit="10"
            stroke-linecap="round" stroke-linejoin="round" />
        <path d="M23.382 227.896L29.39 219.115L34.7047 227.203L29.1594 236.215L23.382 227.896Z" fill="#FAAC01" />
        <path d="M29.1589 236.215L28.3669 300.339" stroke="#001E2B" stroke-width="0.509333" stroke-miterlimit="10"
            stroke-linecap="round" stroke-linejoin="round" />
        <path d="M24.3063 290.065L28.5983 285.318L32.3943 289.69L28.4329 294.561L24.3063 290.065Z" fill="#8E0413" />
        <path
            d="M44.2943 264.521C44.2943 273.04 37.389 279.945 28.8703 279.945C20.3516 279.945 13.4463 273.04 13.4463 264.521C13.4463 256.003 20.3516 249.097 28.8703 249.097C37.389 249.097 44.2943 256.003 44.2943 264.521Z"
            fill="#FAAC01" />
        <path
            d="M42.9079 264.521C42.9079 272.275 36.6225 278.559 28.8705 278.559C21.1172 278.559 14.8319 272.275 14.8319 264.521C14.8319 256.768 21.1172 250.484 28.8705 250.484C36.6225 250.484 42.9079 256.768 42.9079 264.521Z"
            stroke="white" stroke-width="0.678667" stroke-miterlimit="10" />
        <path d="M31.9893 267.12H25.7507V260.881H31.9893V267.12Z" fill="#001E2B" />
        <path
            d="M32.7406 319.055H24.1912V304.265C24.1912 301.905 26.1046 299.991 28.4659 299.991C30.8272 299.991 32.7406 301.905 32.7406 304.265V319.055Z"
            fill="#FAAC01" />
        <path
            d="M29.5108 219.132C29.5108 219.132 23.3575 204.228 29.6148 204.039C35.8721 203.849 29.5108 219.132 29.5108 219.132Z"
            stroke="#001E2B" stroke-width="0.509333" stroke-miterlimit="10" stroke-linecap="round"
            stroke-linejoin="round" />
        <path d="M29.6147 204.038V-12.9152" stroke="#001E2B" stroke-width="0.509333" stroke-miterlimit="10"
            stroke-linecap="round" stroke-linejoin="round" />
        <path
            d="M144.896 31.3925C143.014 32.5245 141.038 33.5085 138.956 34.2445C136.88 34.9618 134.744 35.5578 132.568 35.9125C130.398 36.2805 128.202 36.5351 126.005 36.6418C123.816 36.7698 121.62 36.7831 119.43 36.7365C115.05 36.6485 110.692 36.3138 106.398 36.0871C102.106 35.8925 97.821 35.8258 93.6356 36.2405C92.585 36.3138 91.553 36.4885 90.5156 36.6151L88.9823 36.8965C88.473 36.9778 87.9636 37.0911 87.469 37.2178C85.4463 37.6538 83.5103 38.3098 81.6623 39.1005C79.7943 39.8631 78.1076 40.9285 76.513 42.0725C74.933 43.2445 73.5463 44.6311 72.1476 46.1978C70.7476 47.7578 69.349 49.4458 67.7476 51.1125C66.9383 51.9498 66.0876 52.7738 65.1503 53.5578C64.1983 54.3338 63.1876 55.0711 62.069 55.7138C61.3796 56.1085 60.6703 56.4565 59.9396 56.7578C59.4916 56.9525 59.0356 57.1258 58.5743 57.2871C57.369 57.6951 56.1436 57.9831 54.9183 58.1911C54.0143 58.3378 53.117 58.4391 52.2196 58.4925C50.673 58.5991 49.1463 58.5725 47.6463 58.4591C42.8583 58.0978 38.4516 56.8511 34.3063 55.8405C32.2303 55.3311 30.2156 54.8631 28.2463 54.5485C27.269 54.3805 26.2783 54.3071 25.293 54.1805C24.557 54.1391 23.8276 54.0791 23.0903 54.0458C22.8356 54.0325 22.581 54.0258 22.321 54.0258C21.597 54.0058 20.8743 54.0058 20.1503 54.0258C12.865 54.1871 5.51963 55.9471 -1.83904 58.1711C-5.96437 59.4165 -10.103 60.8165 -14.3417 62.1885V51.2338C-11.0737 50.3765 -7.76571 49.5058 -4.39771 48.6951C-0.085706 47.6511 4.34763 46.7471 8.88763 46.1645C13.421 45.5618 18.0956 45.3805 22.7756 45.7431C23.941 45.8231 25.113 45.9965 26.2783 46.1378C27.437 46.3525 28.6076 46.5191 29.753 46.7805C32.0436 47.2898 34.2196 47.9391 36.329 48.5885C40.521 49.8871 44.465 51.2138 48.329 51.7218C52.193 52.2445 56.0556 52.0165 59.2103 50.4298C60.0076 50.0351 60.7836 49.5391 61.5476 48.9898C62.3103 48.4271 63.061 47.7845 63.8036 47.1085C65.2903 45.7231 66.757 44.1551 68.3503 42.5751C69.1543 41.7845 69.9783 40.9951 70.8756 40.2311C71.3236 39.8565 71.7796 39.4685 72.261 39.1271L73.7143 38.0951C75.7103 36.8231 77.7996 35.6978 80.0023 34.9351C82.185 34.1511 84.4223 33.5485 86.665 33.1938C87.2276 33.0871 87.7903 32.9991 88.353 32.9391L90.033 32.7378C91.1583 32.6578 92.277 32.5445 93.3943 32.5311C96.1196 32.4231 98.8183 32.5045 101.504 32.6845C103.218 32.8058 104.925 32.9658 106.626 33.1405C107.209 33.2071 107.792 33.2738 108.368 33.3405C112.124 33.7765 115.821 34.2591 119.537 34.5391C120.348 34.6071 121.15 34.6605 121.961 34.7071H121.981C123.306 34.7805 124.633 34.8271 125.958 34.8271C128.101 34.8538 130.237 34.7338 132.36 34.4925C134.482 34.2725 136.572 33.8231 138.634 33.2471C140.684 32.6511 142.653 31.8071 144.561 30.8165L144.568 30.8098C144.734 30.7231 144.936 30.7898 145.022 30.9511C145.104 31.1111 145.05 31.3058 144.896 31.3925Z"
            fill="#001E2B" />
        <path
            d="M57.76 54.0534C58.14 54.9614 58.7374 55.7654 59.5694 56.4681C60.3987 57.1694 61.4547 57.7508 62.6374 58.1854C65.012 59.0561 67.824 59.3574 70.5747 59.1721C73.4547 58.9708 76.4774 58.4028 79.648 58.0068C82.8067 57.6134 86.196 57.3948 89.5667 58.0721C92.9387 58.7454 95.928 60.2454 98.6387 61.8721C101.36 63.5054 103.872 65.2921 106.487 66.8174C109.065 68.3161 111.869 69.4934 114.804 69.9974C117.715 70.5028 120.845 70.2308 123.403 68.6068C123.559 68.5081 123.767 68.5534 123.865 68.7108C123.959 68.8588 123.92 69.0534 123.784 69.1574C122.511 70.1241 121.004 70.7948 119.432 71.1548C117.857 71.5174 116.227 71.5854 114.625 71.4561C111.413 71.1868 108.32 70.1881 105.429 68.8281C102.569 67.4734 99.8827 65.8921 97.1707 64.5708C94.468 63.2468 91.7134 62.1948 88.9547 61.8974C86.196 61.5881 83.3387 61.9921 80.4174 62.6174C77.4894 63.2388 74.4787 64.0881 71.212 64.6108C67.8307 65.1228 64.3334 65.1174 60.7827 64.1828C59.016 63.7041 57.228 62.9654 55.5734 61.8188C53.9227 60.6828 52.432 59.0908 51.432 57.2254L51.364 57.0974C50.4387 55.3721 51.088 53.2228 52.8147 52.2974C54.54 51.3721 56.6894 52.0214 57.6147 53.7481C57.668 53.8468 57.7174 53.9521 57.76 54.0534Z"
            fill="#001E2B" />
        <path
            d="M99.5403 32.7947C103.711 32.7507 107.906 31.5507 111.732 29.6027C115.566 27.6507 119.067 24.968 122.039 21.7707C122.191 21.6054 122.45 21.596 122.615 21.748C122.774 21.8947 122.788 22.1374 122.656 22.3027C119.868 25.784 116.476 28.82 112.603 31.168C108.738 33.5054 104.339 35.1587 99.6776 35.5574H99.6723C98.911 35.6227 98.2403 35.0587 98.1763 34.296C98.111 33.5347 98.675 32.8654 99.4376 32.8C99.471 32.7974 99.507 32.7947 99.5403 32.7947Z"
            fill="#001E2B" />
        <path
            d="M27.1989 69.0877C27.2709 70.4637 27.1883 71.5797 27.2603 72.957C21.6229 70.7104 17.8549 64.481 18.4829 58.445C18.6736 56.6224 19.2789 54.7517 20.6376 53.5224C24.6963 54.121 28.4323 55.905 30.8216 59.2397C33.2109 62.5757 34.1789 66.8957 33.4403 70.9304C31.4789 70.089 29.1589 69.929 27.1989 69.0877Z"
            fill="#8E0413" />
        <path
            d="M101.941 50.8997C103.311 50.737 104.429 50.7437 105.797 50.581C103.932 56.3557 97.9666 60.5304 91.9026 60.3037C90.0706 60.2357 88.1639 59.757 86.8466 58.4824C87.1746 54.393 88.7052 50.5464 91.8746 47.941C95.0439 45.3344 99.2892 44.081 103.365 44.5504C102.656 46.5624 102.651 48.8877 101.941 50.8997Z"
            fill="#8E0413" />
        <path
            d="M88.8568 76.0735C89.3702 77.3522 89.6542 78.4348 90.1675 79.7148C84.1062 79.4148 78.5248 74.7402 77.1648 68.8268C76.7542 67.0402 76.7208 65.0735 77.6088 63.4708C81.6422 62.7228 85.7555 63.2015 89.0955 65.5842C92.4368 67.9655 94.7502 71.7388 95.3582 75.7962C93.2315 75.6348 90.9848 76.2348 88.8568 76.0735Z"
            fill="#8E0413" />
        <path
            d="M37.3002 48.8486C35.9388 44.7806 36.5375 40.1046 38.8802 36.5113C41.2242 32.9193 45.2615 30.4846 49.5322 30.0913C50.1642 33.9713 49.8442 38.6553 47.4628 41.7846C45.0828 44.914 42.2495 47.0846 37.3002 48.8486Z"
            fill="#8E0413" />
        <path
            d="M121.964 34.7148C120.861 31.4228 121.346 27.6375 123.242 24.7295C125.14 21.8215 128.408 19.8522 131.864 19.5322C132.376 22.6735 132.116 26.4642 130.189 28.9975C128.264 31.5295 125.969 33.2868 121.964 34.7148Z"
            fill="#8E0413" />
        <path
            d="M219.906 322.364L218.75 331.964C214.887 329.873 210.947 328.091 206.882 326.845C206.194 326.621 205.496 326.423 204.796 326.244C204.542 326.172 204.292 326.109 204.036 326.051C203.322 325.884 202.603 325.751 201.887 325.583C200.906 325.445 199.939 325.24 198.947 325.135C196.971 324.904 194.9 324.796 192.764 324.72C188.5 324.564 183.922 324.56 179.222 323.603C177.74 323.303 176.263 322.908 174.808 322.389C173.96 322.092 173.124 321.755 172.294 321.365C171.171 320.832 170.072 320.213 169.026 319.495C168.627 319.217 168.238 318.927 167.858 318.612C167.242 318.127 166.651 317.596 166.092 317.029C165.191 316.105 164.42 315.116 163.718 314.113C163.031 313.1 162.432 312.077 161.882 311.053C160.798 309.013 159.914 307.005 158.994 305.128C158.074 303.236 157.114 301.521 155.919 299.968C154.694 298.432 153.362 296.949 151.772 295.699C150.211 294.439 148.523 293.271 146.704 292.303C146.256 292.047 145.8 291.803 145.327 291.584L143.932 290.897C142.971 290.484 142.026 290.047 141.031 289.684C137.115 288.147 132.979 287.035 128.802 286.053C124.607 285.096 120.319 284.236 116.083 283.119C113.964 282.573 111.86 281.956 109.78 281.24C107.692 280.543 105.656 279.697 103.667 278.749C101.675 277.816 99.7776 276.656 97.9723 275.4C96.1776 274.125 94.5429 272.633 93.0349 271.035C92.9149 270.913 92.9189 270.711 93.0363 270.577C93.1669 270.444 93.3776 270.436 93.5096 270.567L93.5229 270.575C95.0843 272.051 96.7509 273.399 98.5563 274.533C100.386 275.644 102.267 276.645 104.255 277.445C106.23 278.249 108.25 278.944 110.32 279.504C111.592 279.867 112.876 280.183 114.17 280.473C114.182 280.481 114.195 280.483 114.203 280.477C114.99 280.66 115.779 280.829 116.576 280.985C120.231 281.723 123.915 282.268 127.64 282.864C128.216 282.961 128.798 283.057 129.379 283.155C131.071 283.447 132.766 283.765 134.456 284.124C137.08 284.676 139.692 285.335 142.282 286.179C143.35 286.503 144.399 286.913 145.452 287.296L147.019 287.951C147.54 288.161 148.058 288.399 148.567 288.656C150.638 289.607 152.619 290.796 154.506 292.149C156.416 293.479 158.119 295.135 159.694 296.903L160.808 298.291C161.184 298.755 161.515 299.253 161.842 299.731C162.492 300.713 163.068 301.7 163.632 302.677C164.732 304.632 165.716 306.537 166.768 308.276C167.299 309.129 167.848 309.951 168.426 310.701C169.018 311.44 169.623 312.127 170.279 312.725C172.886 315.109 176.536 316.385 180.402 316.939C184.259 317.504 188.411 317.303 192.802 317.191C195.006 317.14 197.275 317.116 199.62 317.251C200.792 317.311 201.96 317.472 203.135 317.579C204.292 317.765 205.468 317.915 206.614 318.153C211.216 319.079 215.668 320.532 219.86 322.345C219.874 322.353 219.894 322.356 219.906 322.364Z"
            fill="#001E2B" />
        <path
            d="M170.689 316.607C170.076 317.377 169.281 317.988 168.289 318.436C167.301 318.885 166.125 319.156 164.869 319.252C162.348 319.441 159.56 318.964 156.964 318.035C154.248 317.056 151.496 315.685 148.553 314.439C145.623 313.2 142.42 312.065 138.992 311.797C135.565 311.525 132.279 312.152 129.228 312.977C126.164 313.807 123.26 314.841 120.329 315.595C117.439 316.333 114.42 316.701 111.459 316.385C108.521 316.077 105.583 314.963 103.565 312.703C103.443 312.564 103.231 312.552 103.093 312.676C102.963 312.792 102.947 312.991 103.049 313.128C104.011 314.405 105.276 315.461 106.691 316.236C108.107 317.015 109.657 317.525 111.233 317.839C114.396 318.455 117.645 318.337 120.797 317.817C123.919 317.295 126.935 316.505 129.904 315.975C132.865 315.439 135.803 315.177 138.539 315.644C141.277 316.099 143.915 317.267 146.555 318.665C149.203 320.061 151.867 321.7 154.867 323.093C157.981 324.509 161.347 325.457 165.019 325.527C166.849 325.549 168.769 325.325 170.675 324.673C172.573 324.031 174.44 322.907 175.912 321.384L176.012 321.28C177.373 319.872 177.335 317.627 175.927 316.267C174.519 314.905 172.273 314.944 170.912 316.352C170.835 316.433 170.759 316.521 170.689 316.607Z"
            fill="#001E2B" />
        <path
            d="M136.293 284.758C132.291 283.578 128.583 281.279 125.434 278.362C122.278 275.438 119.642 271.9 117.654 268.015C117.553 267.814 117.307 267.734 117.106 267.836C116.914 267.932 116.834 268.163 116.914 268.359C118.649 272.468 121.083 276.314 124.169 279.63C127.25 282.932 131.031 285.723 135.407 287.378L135.411 287.38C136.126 287.65 136.925 287.29 137.195 286.575C137.466 285.86 137.106 285.062 136.391 284.791C136.359 284.779 136.325 284.767 136.293 284.758Z"
            fill="#001E2B" />
        <path
            d="M195.991 339.407C195.547 340.712 195.321 341.808 194.876 343.112C200.913 342.49 206.237 337.524 207.279 331.546C207.593 329.74 207.521 327.775 206.549 326.222C202.481 325.691 198.4 326.388 195.192 328.944C191.983 331.502 189.873 335.394 189.484 339.478C191.599 339.203 193.875 339.682 195.991 339.407Z"
            fill="#8E0413" />
        <path
            d="M129.044 301.522C127.772 300.991 126.693 300.694 125.421 300.163C125.64 306.228 130.241 311.871 136.137 313.308C137.917 313.742 139.883 313.802 141.497 312.935C142.299 308.911 141.873 304.792 139.536 301.42C137.199 298.05 133.455 295.686 129.407 295.024C129.54 297.154 128.911 299.392 129.044 301.522Z"
            fill="#8E0413" />
        <path
            d="M134.765 329.309C133.923 330.4 133.355 331.364 132.511 332.455C138.424 333.82 145.069 330.845 147.991 325.527C148.872 323.92 149.441 322.037 149.025 320.253C145.348 318.433 141.26 317.772 137.397 319.152C133.533 320.532 130.277 323.532 128.585 327.269C130.676 327.695 132.675 328.884 134.765 329.309Z"
            fill="#8E0413" />
        <path
            d="M191.793 317.18C194.213 313.638 194.912 308.976 193.639 304.88C192.364 300.784 189.144 297.341 185.141 295.797C183.475 299.357 182.507 303.952 183.943 307.612C185.379 311.27 187.513 314.133 191.793 317.18Z"
            fill="#8E0413" />
        <path
            d="M114.196 280.488C116.155 277.622 116.72 273.848 115.689 270.532C114.657 267.218 112.051 264.431 108.812 263.182C107.463 266.063 106.679 269.782 107.841 272.743C109.004 275.706 110.732 278.022 114.196 280.488Z"
            fill="#8E0413" />
    </g>
    <path
        d="M80.3005 209.45C77.8079 209.45 75.9681 208.931 74.7812 207.893C73.5942 206.854 73.0007 205.192 73.0007 202.907V146.379C72.0512 146.468 70.8642 146.646 69.4399 146.913C68.0452 147.15 66.5764 147.507 65.0333 147.981C63.4903 148.456 61.9473 149.035 60.4042 149.717C58.8612 150.37 57.4814 151.142 56.2647 152.032C55.0481 152.892 54.054 153.872 53.2825 154.969C52.511 156.067 52.1253 157.284 52.1253 158.619C52.1253 159.569 52.2439 160.326 52.4813 160.889C52.7484 161.453 53.0451 161.883 53.3715 162.18C53.698 162.447 54.0244 162.625 54.3508 162.714C54.7069 162.774 54.9591 162.803 55.1075 162.803C55.8493 162.803 56.4576 162.685 56.9324 162.447C57.4072 162.18 57.8374 161.913 58.2232 161.646C58.609 161.349 58.965 161.082 59.2915 160.845C59.6475 160.578 60.0481 160.444 60.4932 160.444C60.8493 160.444 61.2203 160.533 61.606 160.711C62.0214 160.86 62.3924 161.112 62.7188 161.468C63.0749 161.824 63.3716 162.299 63.609 162.892C63.8464 163.456 63.9651 164.153 63.9651 164.984C63.9651 166.171 63.7277 167.195 63.2529 168.056C62.8078 168.916 62.2143 169.643 61.4725 170.237C60.7603 170.8 59.9294 171.231 58.9799 171.527C58.06 171.794 57.1401 171.928 56.2202 171.928C54.7959 171.928 53.5051 171.691 52.3478 171.216C51.2202 170.711 50.2558 170.029 49.4546 169.168C48.6534 168.308 48.0451 167.299 47.6297 166.142C47.2142 164.984 47.0065 163.753 47.0065 162.447C47.0065 158.975 47.9561 155.978 49.8552 153.456C51.784 150.904 54.4101 148.797 57.7336 147.136C61.057 145.444 64.9295 144.198 69.3509 143.397C73.7722 142.596 78.5052 142.195 83.5497 142.195C85.9533 142.195 88.2975 142.225 90.5824 142.284C92.8673 142.314 94.9445 142.373 96.8139 142.462C98.713 142.551 100.345 142.655 101.71 142.774C103.075 142.892 104.069 143.026 104.692 143.174C105.286 143.323 105.761 143.545 106.117 143.842C106.473 144.109 106.74 144.42 106.918 144.777C107.096 145.133 107.215 145.518 107.274 145.934C107.333 146.32 107.363 146.72 107.363 147.136C107.363 147.462 107.318 147.848 107.229 148.293C107.14 148.708 107.007 149.109 106.829 149.495C106.651 149.88 106.428 150.207 106.161 150.474C105.894 150.741 105.568 150.874 105.182 150.874C104.945 150.874 104.692 150.771 104.425 150.563C104.188 150.355 103.847 150.103 103.401 149.806C102.956 149.509 102.348 149.168 101.577 148.782C100.835 148.397 99.8406 148.041 98.5943 147.714C97.3777 147.388 95.8643 147.091 94.0542 146.824C92.2738 146.557 90.1076 146.379 87.5557 146.29V202.907C87.5557 205.192 86.9622 206.854 85.7753 207.893C84.5883 208.931 82.7634 209.45 80.3005 209.45ZM114.351 188.308C114.351 189.257 114.485 190.296 114.752 191.424C115.048 192.522 115.464 193.634 115.998 194.762C116.532 195.89 117.185 196.973 117.956 198.011C118.758 199.02 119.663 199.925 120.672 200.726C121.71 201.528 122.853 202.166 124.099 202.64C125.345 203.115 126.71 203.352 128.194 203.352C129.232 203.352 130.197 203.234 131.087 202.996C131.977 202.759 132.808 202.433 133.58 202.017C134.351 201.602 135.093 201.127 135.805 200.593C136.517 200.029 137.23 199.436 137.942 198.812L139.054 199.881C138.372 200.801 137.497 201.809 136.428 202.907C135.36 204.005 134.069 205.044 132.556 206.023C131.043 206.973 129.277 207.774 127.259 208.427C125.241 209.05 122.942 209.361 120.36 209.361C117.778 209.361 115.256 208.901 112.793 207.982C110.36 207.032 108.194 205.623 106.295 203.753C104.396 201.884 102.867 199.554 101.71 196.765C100.582 193.976 100.019 190.711 100.019 186.973C100.019 184.272 100.36 181.795 101.042 179.539C101.725 177.284 102.645 175.251 103.802 173.441C104.989 171.631 106.354 170.044 107.897 168.679C109.47 167.314 111.117 166.186 112.838 165.296C114.559 164.376 116.31 163.694 118.09 163.248C119.9 162.774 121.636 162.536 123.298 162.536C125.494 162.536 127.408 162.774 129.04 163.248C130.672 163.723 132.022 164.361 133.09 165.162C134.188 165.964 135.004 166.898 135.538 167.967C136.072 169.005 136.339 170.103 136.339 171.26C136.339 172.655 135.939 173.916 135.138 175.044C134.336 176.142 133.268 177.106 131.933 177.937L114.351 188.308ZM123.298 179.272C123.683 179.035 123.995 178.812 124.232 178.605C124.5 178.367 124.707 178.1 124.856 177.803C125.004 177.477 125.108 177.091 125.167 176.646C125.256 176.171 125.301 175.593 125.301 174.91C125.301 174.168 125.212 173.352 125.034 172.462C124.885 171.542 124.618 170.682 124.232 169.881C123.847 169.079 123.357 168.412 122.764 167.878C122.17 167.343 121.458 167.076 120.627 167.076C119.559 167.076 118.639 167.403 117.867 168.056C117.126 168.679 116.502 169.495 115.998 170.504C115.523 171.513 115.137 172.67 114.841 173.975C114.574 175.251 114.366 176.542 114.218 177.848C114.069 179.154 113.98 180.415 113.95 181.631C113.921 182.818 113.906 183.827 113.906 184.658L123.298 179.272ZM124.01 143.575L134.025 156.616L132.689 157.952L121.473 150.296L110.256 157.952L108.876 156.616L118.891 143.575H124.01ZM159.485 166.364V199.258C159.485 200.83 159.782 201.928 160.375 202.551C160.969 203.145 161.785 203.442 162.823 203.442C163.624 203.442 164.337 203.219 164.96 202.774C165.583 202.329 166.117 201.824 166.562 201.26C167.096 200.637 167.556 199.91 167.942 199.079L169.322 199.703C168.877 200.652 168.342 201.691 167.719 202.818C167.126 203.946 166.325 204.999 165.316 205.979C164.307 206.928 163.031 207.729 161.488 208.382C159.974 209.035 158.061 209.361 155.746 209.361C154.44 209.361 153.179 209.169 151.963 208.783C150.776 208.397 149.707 207.789 148.758 206.958C147.838 206.127 147.096 205.088 146.532 203.842C145.968 202.596 145.687 201.097 145.687 199.347V166.364H140.701V163.159C141.532 163.159 142.69 162.952 144.173 162.536C145.657 162.091 147.17 161.364 148.713 160.355C150.286 159.346 151.74 157.996 153.075 156.305C154.411 154.613 155.36 152.521 155.924 150.029H159.485V163.159H166.74C169.114 163.159 170.301 162.759 170.301 161.958C170.301 161.661 170.153 161.468 169.856 161.379C169.559 161.26 169.218 161.127 168.832 160.978C168.476 160.8 168.15 160.563 167.853 160.266C167.556 159.969 167.408 159.48 167.408 158.797C167.408 157.967 167.66 157.314 168.164 156.839C168.699 156.364 169.381 156.127 170.212 156.127C170.746 156.127 171.206 156.245 171.592 156.483C172.007 156.691 172.348 156.987 172.615 157.373C172.883 157.729 173.075 158.145 173.194 158.619C173.342 159.094 173.417 159.569 173.417 160.044C173.417 161.972 172.853 163.516 171.725 164.673C170.627 165.8 168.847 166.364 166.384 166.364H159.485Z"
        fill="#001E2B" />
    <path
        d="M64.1227 118.752H67.2956V108.832C67.2956 108.576 67.2665 108.373 67.2084 108.222C67.1503 108.071 67.069 107.955 66.9644 107.873C66.8598 107.78 66.7319 107.722 66.5808 107.699C66.4414 107.664 66.2845 107.647 66.1101 107.647C65.8544 107.647 65.5348 107.687 65.1513 107.769C64.7794 107.85 64.3842 107.972 63.9658 108.135C63.5474 108.297 63.1232 108.501 62.6932 108.745C62.2748 108.977 61.8971 109.245 61.56 109.547C61.2346 109.849 60.9673 110.186 60.7581 110.558C60.5489 110.93 60.4443 111.331 60.4443 111.761C60.4443 112.133 60.4908 112.429 60.5838 112.65C60.6884 112.871 60.8046 113.039 60.9324 113.156C61.0603 113.26 61.1881 113.33 61.316 113.365C61.4554 113.388 61.5542 113.4 61.6123 113.4C61.9029 113.4 62.1411 113.353 62.3271 113.26C62.5131 113.156 62.6816 113.051 62.8327 112.946C62.9838 112.83 63.1232 112.725 63.2511 112.633C63.3905 112.528 63.5474 112.476 63.7218 112.476C63.8612 112.476 64.0065 112.51 64.1576 112.58C64.3203 112.638 64.4656 112.737 64.5934 112.877C64.7329 113.016 64.8491 113.202 64.9421 113.434C65.0351 113.655 65.0816 113.928 65.0816 114.254C65.0816 114.719 64.9886 115.12 64.8026 115.457C64.6283 115.794 64.3958 116.078 64.1053 116.311C63.8264 116.532 63.5009 116.7 63.129 116.816C62.7687 116.921 62.4085 116.973 62.0482 116.973C61.4903 116.973 60.9847 116.88 60.5315 116.694C60.0898 116.497 59.7121 116.23 59.3983 115.893C59.0845 115.555 58.8463 115.16 58.6835 114.707C58.5208 114.254 58.4395 113.771 58.4395 113.26C58.4395 112.458 58.5848 111.726 58.8753 111.064C59.1659 110.389 59.561 109.785 60.0608 109.25C60.5722 108.716 61.1649 108.251 61.839 107.856C62.5247 107.449 63.2627 107.112 64.053 106.845C64.8433 106.577 65.6685 106.38 66.5285 106.252C67.3886 106.112 68.2486 106.043 69.1086 106.043C70.0617 106.043 70.7997 106.136 71.3227 106.322C71.8573 106.496 72.2466 106.711 72.4907 106.967C72.7464 107.222 72.8975 107.49 72.944 107.769C72.9905 108.048 73.0137 108.28 73.0137 108.466V118.752H79.4291V110.366C79.4291 108.449 79.679 106.816 80.1788 105.467C80.6785 104.119 81.3236 103.021 82.1139 102.173C82.9042 101.313 83.7875 100.691 84.7637 100.307C85.74 99.912 86.7104 99.7145 87.6751 99.7145C88.3375 99.7145 88.9651 99.7668 89.5579 99.8714C90.1622 99.9643 90.6852 100.11 91.1269 100.307C91.5801 100.505 91.9404 100.755 92.2077 101.057C92.475 101.347 92.6087 101.69 92.6087 102.085C92.6087 102.26 92.5796 102.428 92.5215 102.591C92.475 102.742 92.4053 102.882 92.3123 103.009C92.2193 103.137 92.1089 103.242 91.9811 103.323C91.8649 103.393 91.7428 103.428 91.615 103.428C91.4058 103.428 91.2198 103.364 91.0571 103.236C90.8944 103.108 90.7375 102.951 90.5864 102.765C90.447 102.568 90.3075 102.359 90.168 102.138C90.0286 101.905 89.8717 101.696 89.6973 101.51C89.523 101.313 89.3254 101.15 89.1046 101.022C88.8838 100.894 88.6223 100.83 88.3201 100.83C87.6112 100.83 87.0475 101.028 86.6291 101.423C86.2107 101.806 85.8911 102.376 85.6702 103.131C85.4494 103.875 85.3041 104.805 85.2344 105.921C85.1763 107.036 85.1472 108.315 85.1472 109.756V118.752H88.6513V120.286H85.1472V130.885C85.1472 131.222 85.217 131.495 85.3564 131.705C85.5075 131.902 85.7342 132.001 86.0363 132.001C86.3618 132.001 86.6639 131.943 86.9429 131.827C87.2218 131.71 87.4659 131.6 87.6751 131.495L87.9714 132.14C87.7158 132.315 87.4136 132.495 87.0649 132.681C86.7279 132.878 86.3501 133.058 85.9317 133.221C85.525 133.396 85.0833 133.535 84.6068 133.64C84.1419 133.756 83.6538 133.814 83.1424 133.814C82.3521 133.814 81.7129 133.709 81.2248 133.5C80.7366 133.291 80.3589 133.012 80.0916 132.663C79.8243 132.326 79.6441 131.943 79.5512 131.513C79.4698 131.083 79.4291 130.647 79.4291 130.205V120.286H73.0137V128.967C73.0137 130.548 72.7231 131.925 72.142 133.099C71.5725 134.273 70.788 135.249 69.7885 136.028C68.789 136.818 67.6094 137.405 66.2496 137.789C64.9014 138.184 63.4545 138.381 61.9087 138.381C61.316 138.381 60.7465 138.329 60.2002 138.225C59.654 138.132 59.1717 137.998 58.7533 137.824C58.3349 137.649 58.0037 137.44 57.7596 137.196C57.5039 136.964 57.3761 136.708 57.3761 136.429C57.3761 136.22 57.4051 136.005 57.4632 135.784C57.5213 135.575 57.6085 135.383 57.7247 135.209C57.8409 135.034 57.9862 134.889 58.1606 134.773C58.3233 134.657 58.5092 134.598 58.7184 134.598C58.8463 134.598 58.9567 134.662 59.0496 134.79C59.1542 134.918 59.2588 135.075 59.3634 135.261C59.468 135.458 59.5843 135.668 59.7121 135.888C59.8516 136.109 60.0259 136.313 60.2351 136.499C60.4559 136.696 60.7174 136.859 61.0196 136.987C61.3218 137.115 61.6995 137.179 62.1528 137.179C63.0477 137.179 63.8147 137.016 64.454 136.69C65.1048 136.365 65.6394 135.906 66.0578 135.313C66.4762 134.72 66.7842 134.012 66.9818 133.186C67.191 132.373 67.2956 131.478 67.2956 130.502V120.286H64.1227V118.752ZM99.4251 123.075C99.4251 122.784 99.3321 122.564 99.1462 122.413C98.9602 122.261 98.722 122.186 98.4314 122.186C98.0246 122.186 97.6353 122.279 97.2634 122.465C96.9031 122.651 96.5835 122.924 96.3045 123.284C96.0256 123.645 95.8048 124.092 95.6421 124.627C95.4794 125.15 95.398 125.76 95.398 126.457C95.398 127.131 95.4445 127.689 95.5375 128.131C95.6421 128.572 95.7757 128.927 95.9384 129.194C96.1128 129.45 96.3104 129.63 96.5312 129.735C96.752 129.839 96.9844 129.891 97.2285 129.891C97.5307 129.891 97.8154 129.816 98.0827 129.665C98.35 129.502 98.5825 129.299 98.7801 129.055C98.9776 128.811 99.1345 128.537 99.2508 128.235C99.367 127.933 99.4251 127.631 99.4251 127.329V123.075ZM96.6532 115.439C96.2581 115.439 95.892 115.486 95.5549 115.579C95.2179 115.672 94.9273 115.788 94.6832 115.927C94.4392 116.067 94.2474 116.224 94.1079 116.398C93.9685 116.561 93.8987 116.718 93.8987 116.869C93.8987 117.043 93.9859 117.171 94.1602 117.252C94.3462 117.322 94.5496 117.409 94.7704 117.514C94.9912 117.607 95.1888 117.746 95.3631 117.932C95.5491 118.107 95.6421 118.38 95.6421 118.752C95.6421 118.996 95.5898 119.222 95.4852 119.431C95.3922 119.629 95.2585 119.809 95.0842 119.972C94.9215 120.123 94.7239 120.245 94.4915 120.338C94.2707 120.419 94.0382 120.46 93.7941 120.46C93.1433 120.46 92.6145 120.239 92.2077 119.798C91.8126 119.356 91.615 118.769 91.615 118.037C91.615 117.328 91.8009 116.724 92.1729 116.224C92.5448 115.712 93.0271 115.294 93.6198 114.969C94.2242 114.643 94.9041 114.405 95.6595 114.254C96.415 114.091 97.1704 114.01 97.9258 114.01C98.8324 114.01 99.6982 114.109 100.523 114.306C101.349 114.504 102.075 114.817 102.703 115.247C103.342 115.678 103.847 116.224 104.219 116.886C104.603 117.549 104.795 118.351 104.795 119.292V129.142C104.795 129.246 104.8 129.363 104.812 129.49C104.824 129.618 104.853 129.735 104.899 129.839C104.946 129.944 105.015 130.031 105.108 130.101C105.201 130.17 105.335 130.205 105.509 130.205C105.719 130.205 105.91 130.13 106.085 129.979C106.271 129.816 106.433 129.653 106.573 129.49L107.009 129.857C106.834 130.101 106.625 130.368 106.381 130.659C106.137 130.949 105.841 131.222 105.492 131.478C105.143 131.734 104.736 131.949 104.272 132.123C103.807 132.297 103.278 132.384 102.685 132.384C101.953 132.384 101.302 132.169 100.733 131.739C100.163 131.298 99.7912 130.624 99.6169 129.717C99.245 130.217 98.8556 130.635 98.4488 130.972C98.0537 131.309 97.6469 131.582 97.2285 131.792C96.8101 132.001 96.3859 132.152 95.9559 132.245C95.5375 132.338 95.1133 132.384 94.6832 132.384C94.1254 132.384 93.585 132.297 93.062 132.123C92.539 131.949 92.0683 131.675 91.6499 131.304C91.2431 130.92 90.9118 130.426 90.6562 129.822C90.4121 129.217 90.2901 128.479 90.2901 127.608C90.2901 126.55 90.4993 125.684 90.9177 125.01C91.3361 124.336 91.8823 123.772 92.5564 123.319C93.2421 122.854 94.015 122.459 94.875 122.134C95.7467 121.808 96.6358 121.465 97.5423 121.105C98.2164 120.838 98.7045 120.443 99.0067 119.92C99.3205 119.385 99.4774 118.839 99.4774 118.281C99.4774 117.421 99.2217 116.735 98.7103 116.224C98.2106 115.701 97.5249 115.439 96.6532 115.439ZM109.571 117.078C109.571 116.741 109.49 116.45 109.327 116.206C109.176 115.951 108.915 115.823 108.543 115.823C108.345 115.823 108.177 115.858 108.037 115.927C107.898 115.997 107.747 116.096 107.584 116.224L107.218 115.788C107.485 115.567 107.781 115.352 108.107 115.143C108.444 114.922 108.804 114.73 109.188 114.568C109.571 114.405 109.984 114.271 110.425 114.167C110.867 114.062 111.332 114.01 111.82 114.01C112.343 114.01 112.791 114.091 113.163 114.254C113.534 114.417 113.842 114.614 114.086 114.847C114.342 115.067 114.534 115.306 114.662 115.561C114.79 115.805 114.865 116.015 114.888 116.189C115.121 115.863 115.394 115.567 115.708 115.3C116.033 115.032 116.382 114.806 116.754 114.62C117.137 114.422 117.538 114.271 117.957 114.167C118.387 114.062 118.828 114.01 119.282 114.01C120.211 114.01 121.054 114.202 121.809 114.585C122.565 114.969 123.21 115.538 123.745 116.293C124.291 117.049 124.709 117.985 125 119.1C125.29 120.216 125.436 121.506 125.436 122.97C125.436 124.667 125.255 126.114 124.895 127.311C124.546 128.497 124.082 129.467 123.5 130.223C122.931 130.978 122.274 131.53 121.53 131.879C120.798 132.216 120.049 132.384 119.282 132.384C118.642 132.384 118.079 132.32 117.591 132.193C117.114 132.065 116.701 131.908 116.353 131.722C116.004 131.536 115.714 131.35 115.481 131.164C115.249 130.966 115.063 130.804 114.923 130.676V139.183C114.923 139.334 114.9 139.515 114.854 139.724C114.807 139.933 114.691 140.131 114.505 140.317C114.331 140.514 114.063 140.683 113.703 140.822C113.354 140.962 112.872 141.031 112.256 141.031C111.64 141.031 111.152 140.956 110.792 140.805C110.443 140.665 110.176 140.491 109.99 140.282C109.804 140.084 109.687 139.881 109.641 139.672C109.595 139.474 109.571 139.311 109.571 139.183V117.078ZM114.923 128.183C114.923 128.276 114.964 128.439 115.045 128.671C115.127 128.904 115.255 129.142 115.429 129.386C115.603 129.63 115.824 129.851 116.091 130.048C116.37 130.234 116.707 130.327 117.102 130.327C117.614 130.327 118.05 130.136 118.41 129.752C118.77 129.357 119.067 128.828 119.299 128.166C119.531 127.491 119.7 126.713 119.805 125.829C119.909 124.935 119.961 123.982 119.961 122.97C119.961 121.727 119.892 120.675 119.752 119.815C119.624 118.955 119.433 118.263 119.177 117.74C118.921 117.206 118.613 116.822 118.253 116.59C117.904 116.346 117.509 116.224 117.068 116.224C116.812 116.224 116.556 116.299 116.3 116.45C116.045 116.59 115.812 116.77 115.603 116.991C115.406 117.2 115.243 117.438 115.115 117.706C114.987 117.973 114.923 118.229 114.923 118.473V128.183ZM128.957 117.078C128.957 116.741 128.876 116.45 128.713 116.206C128.562 115.951 128.3 115.823 127.928 115.823C127.731 115.823 127.562 115.858 127.423 115.927C127.283 115.997 127.132 116.096 126.97 116.224L126.604 115.788C126.871 115.567 127.167 115.352 127.493 115.143C127.83 114.922 128.19 114.73 128.574 114.568C128.957 114.405 129.37 114.271 129.811 114.167C130.253 114.062 130.718 114.01 131.206 114.01C131.729 114.01 132.176 114.091 132.548 114.254C132.92 114.417 133.228 114.614 133.472 114.847C133.728 115.067 133.92 115.306 134.048 115.561C134.175 115.805 134.251 116.015 134.274 116.189C134.507 115.863 134.78 115.567 135.094 115.3C135.419 115.032 135.768 114.806 136.14 114.62C136.523 114.422 136.924 114.271 137.342 114.167C137.772 114.062 138.214 114.01 138.667 114.01C139.597 114.01 140.44 114.202 141.195 114.585C141.951 114.969 142.596 115.538 143.13 116.293C143.677 117.049 144.095 117.985 144.385 119.1C144.676 120.216 144.821 121.506 144.821 122.97C144.821 124.667 144.641 126.114 144.281 127.311C143.932 128.497 143.467 129.467 142.886 130.223C142.317 130.978 141.66 131.53 140.916 131.879C140.184 132.216 139.434 132.384 138.667 132.384C138.028 132.384 137.464 132.32 136.976 132.193C136.5 132.065 136.087 131.908 135.739 131.722C135.39 131.536 135.099 131.35 134.867 131.164C134.634 130.966 134.449 130.804 134.309 130.676V139.183C134.309 139.334 134.286 139.515 134.239 139.724C134.193 139.933 134.077 140.131 133.891 140.317C133.716 140.514 133.449 140.683 133.089 140.822C132.74 140.962 132.258 141.031 131.642 141.031C131.026 141.031 130.538 140.956 130.177 140.805C129.829 140.665 129.561 140.491 129.375 140.282C129.189 140.084 129.073 139.881 129.027 139.672C128.98 139.474 128.957 139.311 128.957 139.183V117.078ZM134.309 128.183C134.309 128.276 134.35 128.439 134.431 128.671C134.512 128.904 134.64 129.142 134.815 129.386C134.989 129.63 135.21 129.851 135.477 130.048C135.756 130.234 136.093 130.327 136.488 130.327C137 130.327 137.435 130.136 137.796 129.752C138.156 129.357 138.452 128.828 138.685 128.166C138.917 127.491 139.086 126.713 139.19 125.829C139.295 124.935 139.347 123.982 139.347 122.97C139.347 121.727 139.278 120.675 139.138 119.815C139.01 118.955 138.818 118.263 138.563 117.74C138.307 117.206 137.999 116.822 137.639 116.59C137.29 116.346 136.895 116.224 136.453 116.224C136.198 116.224 135.942 116.299 135.686 116.45C135.431 116.59 135.198 116.77 134.989 116.991C134.791 117.2 134.629 117.438 134.501 117.706C134.373 117.973 134.309 118.229 134.309 118.473V128.183ZM162.028 116.747C162.028 118.874 161.819 120.931 161.4 122.918C160.994 124.894 160.424 126.753 159.692 128.497C158.971 130.228 158.111 131.809 157.112 133.239C156.112 134.68 155.026 135.912 153.852 136.934C152.678 137.957 151.434 138.753 150.121 139.323C148.819 139.892 147.5 140.177 146.164 140.177C145.141 140.177 144.351 140.003 143.793 139.654C143.235 139.317 142.956 138.858 142.956 138.277C142.956 138.056 142.991 137.841 143.061 137.632C143.13 137.423 143.223 137.237 143.339 137.074C143.456 136.911 143.595 136.778 143.758 136.673C143.921 136.58 144.095 136.534 144.281 136.534C144.502 136.534 144.688 136.644 144.839 136.865C144.978 137.086 145.129 137.324 145.292 137.58C145.455 137.847 145.652 138.091 145.885 138.312C146.117 138.533 146.437 138.643 146.844 138.643C147.367 138.643 147.913 138.55 148.482 138.364C149.052 138.19 149.621 137.934 150.191 137.597C150.772 137.26 151.347 136.847 151.917 136.359C152.498 135.883 153.067 135.348 153.625 134.755C153.3 133.581 152.922 132.303 152.492 130.92C152.074 129.525 151.626 128.125 151.15 126.719C150.685 125.312 150.202 123.958 149.703 122.657C149.215 121.343 148.732 120.181 148.256 119.17C147.791 118.159 147.338 117.351 146.896 116.747C146.466 116.131 146.082 115.823 145.745 115.823C145.524 115.823 145.356 115.858 145.24 115.927C145.112 115.997 144.967 116.096 144.804 116.224L144.455 115.788C144.688 115.59 144.932 115.387 145.187 115.178C145.443 114.969 145.745 114.777 146.094 114.602C146.443 114.428 146.849 114.289 147.314 114.184C147.779 114.068 148.337 114.01 148.988 114.01C149.697 114.01 150.353 114.172 150.958 114.498C151.574 114.812 152.132 115.399 152.631 116.259C152.992 116.898 153.364 117.665 153.747 118.56C154.142 119.455 154.537 120.454 154.933 121.558C155.328 122.662 155.723 123.86 156.118 125.15C156.525 126.428 156.932 127.77 157.338 129.177C158.059 127.666 158.64 126.068 159.082 124.383C159.523 122.686 159.744 120.942 159.744 119.153C159.744 118.513 159.704 117.967 159.622 117.514C159.541 117.061 159.448 116.677 159.343 116.363C159.239 116.038 159.146 115.765 159.064 115.544C158.983 115.311 158.942 115.108 158.942 114.934C158.942 114.759 159.012 114.614 159.151 114.498C159.291 114.37 159.459 114.271 159.657 114.202C159.855 114.132 160.052 114.085 160.25 114.062C160.459 114.027 160.633 114.01 160.773 114.01C161.087 114.01 161.325 114.074 161.488 114.202C161.662 114.329 161.79 114.515 161.871 114.759C161.952 114.992 161.999 115.277 162.011 115.614C162.022 115.951 162.028 116.328 162.028 116.747Z"
        fill="#001E2B" />
    <path
        d="M63.7136 226.645C63.7136 226.854 63.7379 227.025 63.7867 227.156C63.8403 227.283 63.9159 227.383 64.0134 227.456C64.1109 227.529 64.2328 227.581 64.3791 227.61C64.5302 227.634 64.7057 227.646 64.9056 227.646C65.2274 227.646 65.5175 227.615 65.7759 227.551C66.0343 227.483 66.261 227.41 66.4561 227.332C66.6511 227.249 66.8144 227.174 66.9461 227.105C67.0826 227.037 67.1874 227.003 67.2605 227.003C67.3532 227.003 67.4263 227.032 67.4799 227.091C67.5336 227.149 67.5604 227.235 67.5604 227.347C67.5604 227.542 67.5409 227.683 67.5019 227.771C67.4629 227.854 67.3824 227.917 67.2605 227.961C66.8169 228.117 66.3171 228.232 65.7613 228.305C65.2055 228.383 64.5765 228.422 63.8745 228.422C63.3528 228.422 62.9262 228.397 62.5946 228.349C62.2631 228.305 62.0022 228.224 61.8121 228.107C61.6219 227.99 61.4903 227.832 61.4172 227.632C61.3489 227.427 61.3148 227.166 61.3148 226.849V218.541C61.3148 218.434 61.3026 218.349 61.2782 218.285C61.2538 218.222 61.2197 218.173 61.1758 218.139C61.132 218.1 61.0783 218.076 61.0149 218.066C60.9564 218.051 60.8906 218.044 60.8175 218.044C60.7102 218.044 60.5761 218.061 60.4152 218.095C60.2592 218.129 60.0935 218.181 59.9179 218.249C59.7424 218.317 59.5645 218.402 59.3841 218.505C59.2085 218.602 59.0501 218.714 58.9087 218.841C58.7722 218.968 58.66 219.109 58.5723 219.265C58.4845 219.421 58.4406 219.59 58.4406 219.77C58.4406 219.926 58.4601 220.05 58.4992 220.143C58.543 220.236 58.5918 220.306 58.6454 220.355C58.699 220.399 58.7527 220.428 58.8063 220.443C58.8648 220.453 58.9063 220.457 58.9306 220.457C59.0525 220.457 59.1525 220.438 59.2305 220.399C59.3085 220.355 59.3792 220.311 59.4426 220.267C59.506 220.219 59.5645 220.175 59.6181 220.136C59.6766 220.092 59.7424 220.07 59.8156 220.07C59.8741 220.07 59.935 220.084 59.9984 220.114C60.0666 220.138 60.1276 220.18 60.1812 220.238C60.2397 220.297 60.2885 220.375 60.3275 220.472C60.3665 220.565 60.386 220.679 60.386 220.816C60.386 221.011 60.347 221.179 60.269 221.32C60.1958 221.462 60.0983 221.581 59.9764 221.679C59.8594 221.771 59.7229 221.842 59.5669 221.891C59.4158 221.935 59.2646 221.957 59.1135 221.957C58.8794 221.957 58.6674 221.918 58.4772 221.84C58.2919 221.757 58.1335 221.645 58.0018 221.503C57.8702 221.362 57.7703 221.196 57.702 221.006C57.6337 220.816 57.5996 220.613 57.5996 220.399C57.5996 220.063 57.6606 219.755 57.7824 219.477C57.9043 219.195 58.0701 218.941 58.2798 218.717C58.4943 218.493 58.7429 218.298 59.0257 218.132C59.3134 217.961 59.623 217.82 59.9545 217.708C60.286 217.596 60.6322 217.513 60.993 217.459C61.3538 217.4 61.7146 217.371 62.0754 217.371C62.4752 217.371 62.7848 217.41 63.0042 217.488C63.2284 217.561 63.3918 217.652 63.4942 217.759C63.6014 217.866 63.6648 217.978 63.6843 218.095C63.7038 218.212 63.7136 218.31 63.7136 218.388V226.645ZM74.7202 227.032C74.7202 227.076 74.7226 227.125 74.7275 227.178C74.7323 227.227 74.7445 227.276 74.764 227.325C74.7835 227.369 74.8128 227.405 74.8518 227.434C74.8908 227.464 74.9469 227.478 75.02 227.478C75.1126 227.478 75.1955 227.447 75.2687 227.383C75.3418 227.315 75.41 227.247 75.4734 227.178L75.6489 227.332C75.5758 227.434 75.4832 227.549 75.371 227.676C75.2638 227.798 75.1321 227.915 74.9761 228.027C74.8201 228.139 74.6421 228.232 74.4422 228.305C74.2423 228.383 74.0156 228.422 73.7621 228.422C73.5476 228.422 73.3599 228.392 73.199 228.334C73.043 228.28 72.9089 228.207 72.7967 228.115C72.6895 228.017 72.609 227.905 72.5554 227.778C72.5018 227.646 72.475 227.508 72.475 227.361V227.032C72.2312 227.295 71.9752 227.527 71.7071 227.727C71.59 227.815 71.4657 227.9 71.3341 227.983C71.2024 228.066 71.0659 228.141 70.9245 228.21C70.7831 228.273 70.6369 228.324 70.4857 228.363C70.3346 228.402 70.1834 228.422 70.0323 228.422C69.7398 228.422 69.4887 228.371 69.279 228.268C69.0742 228.161 68.9085 228.022 68.7817 227.851C68.655 227.681 68.5623 227.488 68.5038 227.274C68.4453 227.059 68.416 226.844 68.416 226.63V222.103C68.416 222.059 68.4136 222.013 68.4087 221.964C68.4039 221.91 68.3917 221.862 68.3722 221.818C68.3527 221.769 68.3234 221.73 68.2844 221.701C68.2454 221.671 68.1893 221.657 68.1162 221.657C68.0284 221.657 67.9456 221.691 67.8675 221.759C67.7944 221.823 67.7286 221.888 67.6701 221.957L67.4873 221.803C67.5604 221.701 67.6506 221.589 67.7578 221.467C67.87 221.34 68.0041 221.22 68.1601 221.108C68.3161 220.996 68.4941 220.904 68.694 220.83C68.8987 220.752 69.1254 220.713 69.3741 220.713C69.5886 220.713 69.7763 220.743 69.9372 220.801C70.0981 220.855 70.2322 220.93 70.3395 221.028C70.4467 221.121 70.5272 221.233 70.5808 221.364C70.6344 221.491 70.6612 221.628 70.6612 221.774V226.659C70.6612 226.727 70.671 226.798 70.6905 226.871C70.7149 226.94 70.7466 227.003 70.7856 227.061C70.8295 227.12 70.8831 227.169 70.9465 227.208C71.0098 227.242 71.0854 227.259 71.1732 227.259C71.3146 227.259 71.456 227.222 71.5974 227.149C71.7387 227.076 71.8679 226.991 71.985 226.893C72.102 226.791 72.2019 226.691 72.2848 226.593C72.3726 226.496 72.436 226.423 72.475 226.374V222.103C72.475 222.059 72.4725 222.013 72.4676 221.964C72.4628 221.91 72.4506 221.862 72.4311 221.818C72.4116 221.769 72.3823 221.73 72.3433 221.701C72.3043 221.671 72.2482 221.657 72.1751 221.657C72.0873 221.657 72.0045 221.691 71.9265 221.759C71.8533 221.823 71.7875 221.888 71.729 221.957L71.5462 221.803C71.6193 221.701 71.7095 221.589 71.8168 221.467C71.9289 221.34 72.063 221.22 72.219 221.108C72.375 220.996 72.553 220.904 72.7529 220.83C72.9576 220.752 73.1843 220.713 73.433 220.713C73.6475 220.713 73.8352 220.743 73.9961 220.801C74.157 220.855 74.2911 220.93 74.3984 221.028C74.5056 221.121 74.5861 221.233 74.6397 221.364C74.6933 221.491 74.7202 221.628 74.7202 221.774V227.032ZM80.9511 224.663C80.9511 224.048 80.9219 223.558 80.8634 223.193C80.8097 222.822 80.7366 222.542 80.644 222.352C80.5513 222.157 80.4489 222.03 80.3368 221.971C80.2247 221.908 80.1101 221.876 79.9931 221.876C79.8517 221.876 79.7249 221.915 79.6128 221.993C79.5055 222.066 79.4104 222.152 79.3276 222.249C79.2496 222.347 79.1813 222.444 79.1228 222.542C79.0692 222.639 79.0228 222.712 78.9838 222.761V227.646C78.9838 227.71 78.9741 227.788 78.9546 227.881C78.9351 227.968 78.8863 228.054 78.8083 228.136C78.7352 228.214 78.623 228.28 78.4719 228.334C78.3256 228.392 78.1233 228.422 77.8649 228.422C77.6065 228.422 77.4017 228.39 77.2506 228.327C77.1043 228.268 76.9922 228.197 76.9142 228.115C76.8361 228.032 76.7874 227.946 76.7679 227.859C76.7484 227.771 76.7386 227.7 76.7386 227.646V222.001C76.7386 221.859 76.7045 221.737 76.6362 221.635C76.5729 221.528 76.4632 221.474 76.3071 221.474C76.2243 221.474 76.1536 221.489 76.0951 221.518C76.0366 221.547 75.9732 221.589 75.9049 221.642L75.7513 221.459C75.8635 221.367 75.9878 221.277 76.1243 221.189C76.2657 221.096 76.4168 221.016 76.5777 220.947C76.7386 220.879 76.9117 220.823 77.097 220.779C77.2823 220.735 77.4773 220.713 77.6821 220.713C77.999 220.713 78.2452 220.767 78.4207 220.874C78.5962 220.977 78.7254 221.101 78.8083 221.247C78.8912 221.394 78.94 221.547 78.9546 221.708C78.9741 221.864 78.9838 221.996 78.9838 222.103C79.1642 221.845 79.369 221.613 79.5982 221.408C79.6908 221.32 79.7932 221.235 79.9053 221.152C80.0223 221.069 80.1442 220.996 80.271 220.933C80.4026 220.865 80.5391 220.811 80.6805 220.772C80.8268 220.733 80.9755 220.713 81.1266 220.713C81.4582 220.713 81.7507 220.777 82.0042 220.904C82.2627 221.03 82.4796 221.242 82.6551 221.54C82.8307 221.837 82.9647 222.232 83.0574 222.725C83.15 223.212 83.1963 223.819 83.1963 224.546C83.1963 225.253 83.1329 225.867 83.0062 226.389C82.8794 226.91 82.7136 227.354 82.5089 227.72C82.3041 228.085 82.0725 228.383 81.8141 228.612C81.5557 228.846 81.2949 229.029 81.0316 229.16C80.7683 229.292 80.5148 229.382 80.271 229.431C80.0321 229.485 79.8249 229.514 79.6493 229.519L79.5689 229.219C79.7152 229.185 79.8492 229.131 79.9711 229.058C80.0979 228.985 80.2125 228.878 80.3149 228.736C80.4172 228.595 80.5074 228.417 80.5855 228.202C80.6635 227.983 80.7293 227.71 80.7829 227.383C80.8414 227.057 80.8829 226.671 80.9072 226.228C80.9365 225.779 80.9511 225.257 80.9511 224.663ZM88.0012 224.516C88.0012 224.394 87.9622 224.302 87.8842 224.238C87.8062 224.175 87.7062 224.143 87.5843 224.143C87.4137 224.143 87.2504 224.182 87.0943 224.26C86.9432 224.338 86.8091 224.453 86.6921 224.604C86.5751 224.755 86.4825 224.943 86.4142 225.167C86.3459 225.387 86.3118 225.643 86.3118 225.935C86.3118 226.218 86.3313 226.452 86.3703 226.637C86.4142 226.823 86.4703 226.971 86.5385 227.083C86.6117 227.191 86.6945 227.266 86.7872 227.31C86.8798 227.354 86.9773 227.376 87.0797 227.376C87.2065 227.376 87.3259 227.344 87.4381 227.281C87.5502 227.213 87.6477 227.127 87.7306 227.025C87.8135 226.922 87.8793 226.808 87.9281 226.681C87.9768 226.554 88.0012 226.428 88.0012 226.301V224.516ZM86.8384 221.313C86.6726 221.313 86.519 221.333 86.3776 221.372C86.2362 221.411 86.1143 221.459 86.012 221.518C85.9096 221.576 85.8291 221.642 85.7706 221.715C85.7121 221.784 85.6829 221.849 85.6829 221.913C85.6829 221.986 85.7194 222.04 85.7926 222.074C85.8706 222.103 85.9559 222.14 86.0485 222.183C86.1412 222.222 86.224 222.281 86.2972 222.359C86.3752 222.432 86.4142 222.547 86.4142 222.703C86.4142 222.805 86.3923 222.9 86.3484 222.988C86.3094 223.071 86.2533 223.146 86.1802 223.215C86.1119 223.278 86.029 223.329 85.9315 223.368C85.8389 223.402 85.7414 223.419 85.639 223.419C85.3659 223.419 85.1441 223.327 84.9735 223.141C84.8077 222.956 84.7248 222.71 84.7248 222.403C84.7248 222.105 84.8028 221.852 84.9588 221.642C85.1149 221.428 85.3172 221.252 85.5658 221.116C85.8194 220.979 86.1046 220.879 86.4215 220.816C86.7384 220.748 87.0553 220.713 87.3722 220.713C87.7525 220.713 88.1158 220.755 88.4619 220.838C88.8081 220.921 89.1128 221.052 89.3761 221.233C89.6443 221.413 89.8563 221.642 90.0124 221.92C90.1733 222.198 90.2537 222.534 90.2537 222.929V227.061C90.2537 227.105 90.2561 227.154 90.261 227.208C90.2659 227.261 90.2781 227.31 90.2976 227.354C90.3171 227.398 90.3463 227.434 90.3853 227.464C90.4243 227.493 90.4804 227.508 90.5535 227.508C90.6413 227.508 90.7218 227.476 90.7949 227.412C90.8729 227.344 90.9412 227.276 90.9997 227.208L91.1825 227.361C91.1094 227.464 91.0216 227.576 90.9192 227.698C90.8168 227.82 90.6925 227.934 90.5462 228.041C90.4 228.149 90.2293 228.239 90.0343 228.312C89.8393 228.385 89.6174 228.422 89.3688 228.422C89.0616 228.422 88.7886 228.332 88.5497 228.151C88.3108 227.966 88.1548 227.683 88.0816 227.303C87.9256 227.512 87.7623 227.688 87.5916 227.829C87.4259 227.971 87.2552 228.085 87.0797 228.173C86.9042 228.261 86.7262 228.324 86.5458 228.363C86.3703 228.402 86.1924 228.422 86.012 228.422C85.7779 228.422 85.5512 228.385 85.3318 228.312C85.1124 228.239 84.915 228.124 84.7394 227.968C84.5688 227.807 84.4298 227.6 84.3226 227.347C84.2202 227.093 84.169 226.784 84.169 226.418C84.169 225.974 84.2568 225.611 84.4323 225.328C84.6078 225.045 84.8369 224.809 85.1197 224.619C85.4074 224.424 85.7316 224.258 86.0924 224.121C86.4581 223.985 86.8311 223.841 87.2113 223.69C87.4941 223.578 87.6989 223.412 87.8257 223.193C87.9573 222.968 88.0231 222.739 88.0231 222.505C88.0231 222.144 87.9159 221.857 87.7013 221.642C87.4917 221.423 87.204 221.313 86.8384 221.313ZM94.5028 222.257C94.688 221.974 94.8855 221.718 95.0951 221.489C95.1829 221.391 95.278 221.296 95.3804 221.203C95.4827 221.111 95.5876 221.028 95.6948 220.955C95.807 220.882 95.9215 220.823 96.0386 220.779C96.1556 220.735 96.2726 220.713 96.3896 220.713C96.6382 220.713 96.8333 220.789 96.9747 220.94C97.1161 221.086 97.1868 221.294 97.1868 221.562C97.1868 221.728 97.1721 221.888 97.1429 222.044C97.1185 222.196 97.0673 222.381 96.9893 222.6H96.7845C96.7553 222.449 96.687 222.325 96.5797 222.227C96.4725 222.125 96.3165 222.074 96.1117 222.074C95.9605 222.074 95.8118 222.103 95.6656 222.161C95.5193 222.215 95.3755 222.283 95.2341 222.366C95.0976 222.449 94.9659 222.539 94.8392 222.637C94.7173 222.734 94.6051 222.827 94.5028 222.915V227.661C94.5028 227.724 94.493 227.8 94.4735 227.888C94.454 227.976 94.4052 228.058 94.3272 228.136C94.2541 228.214 94.142 228.28 93.9908 228.334C93.8446 228.392 93.6422 228.422 93.3838 228.422C93.1254 228.422 92.9206 228.39 92.7695 228.327C92.6232 228.268 92.5111 228.197 92.4331 228.115C92.3551 228.032 92.3063 227.946 92.2868 227.859C92.2673 227.771 92.2576 227.7 92.2576 227.646V222.001C92.2576 221.859 92.2234 221.737 92.1552 221.635C92.0918 221.528 91.9821 221.474 91.8261 221.474C91.7432 221.474 91.6725 221.489 91.614 221.518C91.5555 221.547 91.4921 221.589 91.4238 221.642L91.2703 221.459C91.3824 221.367 91.5067 221.277 91.6432 221.189C91.7846 221.096 91.9358 221.016 92.0967 220.947C92.2576 220.879 92.4306 220.823 92.6159 220.779C92.8012 220.735 92.9962 220.713 93.201 220.713C93.4106 220.713 93.5886 220.743 93.7349 220.801C93.886 220.855 94.0079 220.928 94.1005 221.021C94.198 221.108 94.2736 221.208 94.3272 221.32C94.3809 221.433 94.4199 221.547 94.4442 221.664C94.4735 221.776 94.4906 221.886 94.4954 221.993C94.5003 222.096 94.5028 222.183 94.5028 222.257ZM104.215 221.277C104.215 220.833 104.21 220.426 104.2 220.055C104.195 219.685 104.188 219.363 104.178 219.09C104.173 218.812 104.166 218.593 104.156 218.432C104.151 218.271 104.149 218.176 104.149 218.146C104.052 218.078 103.939 218.042 103.813 218.037C103.691 218.032 103.569 218.029 103.447 218.029C103.276 218.029 103.072 218.071 102.833 218.154C102.594 218.232 102.362 218.346 102.138 218.497C101.914 218.644 101.723 218.827 101.567 219.046C101.411 219.261 101.333 219.502 101.333 219.77C101.333 219.926 101.353 220.05 101.392 220.143C101.436 220.236 101.485 220.306 101.538 220.355C101.597 220.399 101.653 220.428 101.706 220.443C101.765 220.453 101.806 220.457 101.831 220.457C101.953 220.457 102.053 220.438 102.131 220.399C102.209 220.355 102.279 220.311 102.343 220.267C102.406 220.219 102.465 220.175 102.518 220.136C102.577 220.092 102.643 220.07 102.716 220.07C102.774 220.07 102.835 220.084 102.898 220.114C102.967 220.138 103.028 220.18 103.081 220.238C103.14 220.297 103.189 220.375 103.228 220.472C103.267 220.565 103.286 220.679 103.286 220.816C103.286 221.011 103.247 221.179 103.169 221.32C103.096 221.462 102.998 221.581 102.877 221.679C102.76 221.771 102.623 221.842 102.467 221.891C102.316 221.935 102.165 221.957 102.014 221.957C101.78 221.957 101.567 221.918 101.377 221.84C101.192 221.757 101.034 221.645 100.902 221.503C100.77 221.362 100.67 221.196 100.602 221.006C100.534 220.816 100.5 220.613 100.5 220.399C100.5 219.892 100.605 219.451 100.814 219.075C101.029 218.695 101.311 218.378 101.663 218.125C102.018 217.871 102.426 217.683 102.884 217.561C103.347 217.435 103.825 217.371 104.317 217.371C104.761 217.371 105.127 217.4 105.414 217.459C105.702 217.518 105.936 217.596 106.116 217.693C106.297 217.791 106.438 217.908 106.541 218.044C106.643 218.176 106.731 218.315 106.804 218.461C107.101 219.065 107.389 219.66 107.667 220.245C107.95 220.83 108.22 221.401 108.479 221.957C108.742 222.513 108.995 223.049 109.239 223.566C109.488 224.078 109.729 224.563 109.963 225.021V223.975V221.715C109.963 221.311 109.973 220.916 109.992 220.531C110.017 220.141 110.063 219.775 110.131 219.434C110.205 219.087 110.312 218.771 110.453 218.483C110.595 218.195 110.782 217.947 111.016 217.737C111.255 217.527 111.55 217.364 111.901 217.247C112.252 217.13 112.674 217.071 113.166 217.071C113.415 217.071 113.644 217.091 113.854 217.13C114.064 217.164 114.244 217.215 114.395 217.283C114.551 217.352 114.673 217.437 114.761 217.539C114.848 217.637 114.892 217.747 114.892 217.869C114.892 217.947 114.88 218.029 114.856 218.117C114.836 218.2 114.805 218.276 114.761 218.344C114.717 218.412 114.661 218.471 114.593 218.519C114.529 218.563 114.454 218.585 114.366 218.585C114.293 218.585 114.224 218.534 114.161 218.432C114.103 218.329 114.027 218.217 113.934 218.095C113.847 217.968 113.727 217.854 113.576 217.752C113.43 217.649 113.23 217.598 112.976 217.598C112.581 217.598 112.252 217.669 111.989 217.81C111.731 217.947 111.521 218.142 111.36 218.395C111.199 218.649 111.08 218.958 111.002 219.324C110.929 219.685 110.882 220.087 110.863 220.531C110.853 220.838 110.843 221.138 110.833 221.43C110.829 221.718 110.824 222.01 110.819 222.308C110.819 222.605 110.819 222.915 110.819 223.237C110.819 223.553 110.819 223.895 110.819 224.26C110.819 224.777 110.821 225.24 110.826 225.65C110.831 226.059 110.838 226.396 110.848 226.659C111.067 227.035 111.284 227.373 111.499 227.676C111.713 227.973 111.923 228.224 112.128 228.429C112.338 228.639 112.547 228.8 112.757 228.912C112.967 229.024 113.179 229.08 113.393 229.08C113.461 229.08 113.527 229.07 113.591 229.051C113.654 229.031 113.71 229.009 113.759 228.985C113.812 228.96 113.866 228.929 113.92 228.89L114.154 229.175C114.085 229.224 113.988 229.282 113.861 229.35C113.739 229.419 113.588 229.485 113.408 229.548C113.232 229.611 113.03 229.665 112.801 229.709C112.572 229.753 112.321 229.775 112.047 229.775C111.653 229.775 111.272 229.677 110.907 229.482C110.546 229.292 110.197 229.029 109.861 228.692C109.524 228.356 109.203 227.963 108.895 227.515C108.588 227.061 108.291 226.576 108.003 226.059C107.72 225.543 107.447 225.004 107.184 224.443C106.921 223.883 106.665 223.329 106.416 222.783C106.172 222.232 105.936 221.701 105.707 221.189C105.483 220.672 105.263 220.199 105.049 219.77C105.049 220.053 105.051 220.345 105.056 220.648C105.061 220.95 105.063 221.255 105.063 221.562V223.829C105.063 224.234 105.053 224.629 105.034 225.014C105.014 225.399 104.968 225.765 104.895 226.111C104.822 226.452 104.715 226.769 104.573 227.061C104.437 227.349 104.249 227.598 104.01 227.807C103.771 228.017 103.476 228.18 103.125 228.297C102.774 228.414 102.352 228.473 101.86 228.473C101.611 228.473 101.382 228.453 101.173 228.414C100.963 228.38 100.78 228.329 100.624 228.261C100.473 228.193 100.356 228.11 100.273 228.012C100.185 227.915 100.141 227.803 100.141 227.676C100.141 227.598 100.154 227.517 100.178 227.434C100.197 227.347 100.229 227.269 100.273 227.2C100.317 227.132 100.37 227.076 100.434 227.032C100.497 226.983 100.573 226.959 100.661 226.959C100.709 226.959 100.753 226.983 100.792 227.032C100.836 227.081 100.88 227.142 100.924 227.215C100.973 227.288 101.026 227.369 101.085 227.456C101.148 227.539 101.221 227.617 101.304 227.69C101.392 227.763 101.497 227.824 101.619 227.873C101.741 227.922 101.887 227.946 102.057 227.946C102.452 227.946 102.779 227.878 103.037 227.742C103.301 227.6 103.513 227.403 103.674 227.149C103.835 226.891 103.952 226.581 104.025 226.22C104.098 225.86 104.144 225.455 104.164 225.006C104.178 224.699 104.188 224.402 104.193 224.114C104.198 223.826 104.203 223.534 104.208 223.237C104.212 222.939 104.215 222.63 104.215 222.308C104.215 221.986 104.215 221.642 104.215 221.277ZM115.602 224.948C115.602 225.104 115.624 225.275 115.668 225.46C115.716 225.64 115.785 225.823 115.872 226.008C115.96 226.194 116.067 226.372 116.194 226.542C116.326 226.708 116.474 226.857 116.64 226.988C116.811 227.12 116.999 227.225 117.203 227.303C117.408 227.381 117.632 227.42 117.876 227.42C118.047 227.42 118.205 227.4 118.352 227.361C118.498 227.322 118.634 227.269 118.761 227.2C118.888 227.132 119.01 227.054 119.127 226.966C119.244 226.874 119.361 226.776 119.478 226.674L119.661 226.849C119.549 227 119.405 227.166 119.229 227.347C119.054 227.527 118.842 227.698 118.593 227.859C118.344 228.015 118.054 228.146 117.723 228.253C117.391 228.356 117.013 228.407 116.589 228.407C116.165 228.407 115.75 228.332 115.346 228.18C114.946 228.024 114.59 227.793 114.278 227.486C113.966 227.178 113.715 226.796 113.525 226.337C113.339 225.879 113.247 225.343 113.247 224.728C113.247 224.285 113.303 223.878 113.415 223.507C113.527 223.137 113.678 222.803 113.868 222.505C114.064 222.208 114.288 221.947 114.541 221.723C114.8 221.498 115.07 221.313 115.353 221.167C115.636 221.016 115.924 220.904 116.216 220.83C116.513 220.752 116.799 220.713 117.072 220.713C117.433 220.713 117.747 220.752 118.015 220.83C118.283 220.908 118.505 221.013 118.681 221.145C118.861 221.277 118.995 221.43 119.083 221.606C119.171 221.776 119.215 221.957 119.215 222.147C119.215 222.376 119.149 222.583 119.017 222.768C118.885 222.949 118.71 223.107 118.491 223.244L115.602 224.948ZM117.072 223.463C117.135 223.424 117.186 223.388 117.225 223.354C117.269 223.315 117.303 223.271 117.328 223.222C117.352 223.168 117.369 223.105 117.379 223.032C117.394 222.954 117.401 222.859 117.401 222.747C117.401 222.625 117.386 222.491 117.357 222.344C117.333 222.193 117.289 222.052 117.225 221.92C117.162 221.788 117.081 221.679 116.984 221.591C116.886 221.503 116.769 221.459 116.633 221.459C116.457 221.459 116.306 221.513 116.18 221.62C116.058 221.723 115.955 221.857 115.872 222.023C115.794 222.188 115.731 222.378 115.682 222.593C115.638 222.803 115.604 223.015 115.58 223.229C115.555 223.444 115.541 223.651 115.536 223.851C115.531 224.046 115.529 224.212 115.529 224.348L117.072 223.463ZM129.556 223.032C129.556 222.71 129.534 222.444 129.49 222.235C129.446 222.025 129.397 221.852 129.344 221.715C129.295 221.574 129.248 221.459 129.205 221.372C129.161 221.279 129.139 221.194 129.139 221.116C129.139 221.043 129.168 220.982 129.227 220.933C129.285 220.884 129.353 220.843 129.431 220.809C129.514 220.774 129.597 220.75 129.68 220.735C129.768 220.721 129.838 220.713 129.892 220.713C130.033 220.713 130.136 220.733 130.199 220.772C130.263 220.811 130.314 220.887 130.353 220.999C130.397 221.14 130.426 221.328 130.441 221.562C130.46 221.791 130.47 222.037 130.47 222.3C130.47 222.676 130.448 223.088 130.404 223.536C130.36 223.985 130.289 224.436 130.192 224.889C130.099 225.343 129.977 225.782 129.826 226.206C129.68 226.63 129.502 227.008 129.292 227.339C129.083 227.666 128.841 227.929 128.568 228.129C128.295 228.324 127.986 228.422 127.64 228.422C127.366 228.422 127.12 228.368 126.901 228.261C126.686 228.149 126.494 227.998 126.323 227.807C126.152 227.617 126.001 227.395 125.87 227.142C125.743 226.883 125.631 226.608 125.533 226.315C125.421 226.613 125.292 226.891 125.146 227.149C124.999 227.403 124.836 227.625 124.656 227.815C124.48 228.005 124.285 228.154 124.071 228.261C123.856 228.368 123.624 228.422 123.376 228.422C123.069 228.422 122.796 228.356 122.557 228.224C122.323 228.088 122.116 227.905 121.935 227.676C121.755 227.442 121.599 227.171 121.467 226.864C121.335 226.557 121.221 226.233 121.123 225.891C121.031 225.55 120.953 225.199 120.889 224.838C120.826 224.477 120.772 224.129 120.728 223.792C120.685 223.456 120.648 223.141 120.619 222.849C120.589 222.556 120.56 222.303 120.531 222.088C120.497 221.893 120.446 221.742 120.377 221.635C120.314 221.528 120.204 221.474 120.048 221.474C119.965 221.474 119.895 221.489 119.836 221.518C119.778 221.547 119.714 221.589 119.646 221.642L119.492 221.459C119.605 221.367 119.729 221.277 119.865 221.189C120.007 221.096 120.158 221.016 120.319 220.947C120.48 220.879 120.653 220.823 120.838 220.779C121.023 220.735 121.218 220.713 121.423 220.713C121.716 220.713 121.952 220.765 122.133 220.867C122.313 220.965 122.454 221.089 122.557 221.24C122.664 221.386 122.74 221.545 122.783 221.715C122.827 221.886 122.859 222.04 122.879 222.176C122.966 222.912 123.052 223.561 123.135 224.121C123.222 224.682 123.315 225.153 123.412 225.533C123.51 225.908 123.615 226.194 123.727 226.389C123.844 226.579 123.98 226.674 124.136 226.674C124.239 226.674 124.339 226.63 124.436 226.542C124.534 226.454 124.626 226.333 124.714 226.177C124.802 226.02 124.885 225.833 124.963 225.613C125.041 225.389 125.109 225.143 125.168 224.875C125.119 224.607 125.077 224.341 125.043 224.078C125.009 223.814 124.977 223.563 124.948 223.324C124.924 223.081 124.899 222.854 124.875 222.644C124.851 222.435 124.824 222.249 124.795 222.088C124.722 221.63 124.763 221.286 124.919 221.057C125.08 220.828 125.399 220.713 125.877 220.713C126.087 220.713 126.262 220.733 126.404 220.772C126.55 220.806 126.669 220.874 126.762 220.977C126.859 221.074 126.937 221.211 126.996 221.386C127.054 221.557 127.101 221.776 127.135 222.044C127.228 222.776 127.318 223.429 127.405 224.004C127.493 224.58 127.586 225.065 127.683 225.46C127.781 225.855 127.886 226.157 127.998 226.367C128.115 226.571 128.251 226.674 128.407 226.674C128.573 226.674 128.727 226.571 128.868 226.367C129.01 226.162 129.131 225.891 129.234 225.555C129.336 225.218 129.414 224.831 129.468 224.392C129.526 223.953 129.556 223.5 129.556 223.032ZM135.589 231.72C135.945 231.72 136.277 231.625 136.584 231.435C136.896 231.25 137.188 230.991 137.461 230.66C137.739 230.333 138 229.943 138.244 229.489C138.493 229.036 138.727 228.546 138.946 228.019C138.415 226.264 137.876 224.692 137.33 223.302C136.784 221.913 136.252 220.735 135.735 219.77C135.467 219.253 135.187 218.866 134.894 218.607C134.607 218.344 134.334 218.212 134.075 218.212C133.919 218.212 133.78 218.246 133.658 218.315C133.537 218.378 133.432 218.449 133.344 218.527L133.161 218.3C133.263 218.198 133.39 218.093 133.541 217.986C133.693 217.878 133.868 217.778 134.068 217.686C134.268 217.593 134.492 217.518 134.741 217.459C134.994 217.4 135.272 217.371 135.575 217.371C135.726 217.371 135.894 217.386 136.079 217.415C136.264 217.439 136.452 217.493 136.642 217.576C136.837 217.654 137.03 217.766 137.22 217.912C137.41 218.054 137.591 218.244 137.761 218.483C138.137 219.009 138.534 219.753 138.953 220.713C139.373 221.669 139.819 222.832 140.292 224.202C140.443 223.748 140.591 223.297 140.738 222.849C140.884 222.396 141.033 221.957 141.184 221.533C141.335 221.103 141.486 220.691 141.637 220.297C141.793 219.902 141.954 219.531 142.12 219.185C142.291 218.819 142.464 218.497 142.639 218.22C142.82 217.937 143.015 217.7 143.224 217.51C143.439 217.32 143.678 217.176 143.941 217.079C144.204 216.976 144.507 216.925 144.848 216.925C145.101 216.925 145.309 216.981 145.469 217.093C145.63 217.201 145.711 217.364 145.711 217.583C145.711 217.778 145.679 217.939 145.616 218.066C145.552 218.193 145.465 218.256 145.352 218.256C145.26 218.256 145.187 218.222 145.133 218.154C145.084 218.081 145.033 218.003 144.979 217.92C144.931 217.837 144.87 217.761 144.797 217.693C144.728 217.62 144.628 217.583 144.497 217.583C144.199 217.583 143.924 217.72 143.67 217.993C143.422 218.266 143.185 218.636 142.961 219.104C142.742 219.573 142.527 220.121 142.317 220.75C142.113 221.374 141.905 222.037 141.696 222.739C141.486 223.441 141.267 224.165 141.038 224.911C140.808 225.652 140.562 226.374 140.299 227.076C140.036 227.778 139.746 228.441 139.429 229.065C139.117 229.694 138.768 230.243 138.383 230.711C137.998 231.179 137.571 231.549 137.103 231.822C136.635 232.095 136.116 232.232 135.545 232.232C135.297 232.232 135.055 232.21 134.821 232.166C134.592 232.127 134.387 232.071 134.207 231.998C134.022 231.925 133.87 231.837 133.753 231.735C133.632 231.632 133.563 231.523 133.549 231.406C133.539 231.318 133.544 231.228 133.563 231.135C133.578 231.047 133.605 230.967 133.644 230.894C133.683 230.82 133.736 230.76 133.805 230.711C133.868 230.662 133.944 230.638 134.031 230.638C134.085 230.638 134.136 230.664 134.185 230.718C134.229 230.772 134.278 230.838 134.331 230.916C134.385 230.998 134.443 231.086 134.507 231.179C134.575 231.271 134.658 231.357 134.755 231.435C134.853 231.518 134.967 231.586 135.099 231.64C135.236 231.693 135.399 231.72 135.589 231.72ZM145.382 224.948C145.382 225.104 145.404 225.275 145.448 225.46C145.496 225.64 145.565 225.823 145.652 226.008C145.74 226.194 145.847 226.372 145.974 226.542C146.106 226.708 146.254 226.857 146.42 226.988C146.591 227.12 146.779 227.225 146.983 227.303C147.188 227.381 147.412 227.42 147.656 227.42C147.827 227.42 147.985 227.4 148.132 227.361C148.278 227.322 148.414 227.269 148.541 227.2C148.668 227.132 148.79 227.054 148.907 226.966C149.024 226.874 149.141 226.776 149.258 226.674L149.441 226.849C149.328 227 149.185 227.166 149.009 227.347C148.834 227.527 148.622 227.698 148.373 227.859C148.124 228.015 147.834 228.146 147.503 228.253C147.171 228.356 146.793 228.407 146.369 228.407C145.945 228.407 145.53 228.332 145.126 228.18C144.726 228.024 144.37 227.793 144.058 227.486C143.746 227.178 143.495 226.796 143.305 226.337C143.119 225.879 143.027 225.343 143.027 224.728C143.027 224.285 143.083 223.878 143.195 223.507C143.307 223.137 143.458 222.803 143.648 222.505C143.843 222.208 144.068 221.947 144.321 221.723C144.58 221.498 144.85 221.313 145.133 221.167C145.416 221.016 145.703 220.904 145.996 220.83C146.293 220.752 146.579 220.713 146.852 220.713C147.212 220.713 147.527 220.752 147.795 220.83C148.063 220.908 148.285 221.013 148.461 221.145C148.641 221.277 148.775 221.43 148.863 221.606C148.951 221.776 148.994 221.957 148.994 222.147C148.994 222.376 148.929 222.583 148.797 222.768C148.665 222.949 148.49 223.107 148.27 223.244L145.382 224.948ZM146.852 223.463C146.915 223.424 146.966 223.388 147.005 223.354C147.049 223.315 147.083 223.271 147.108 223.222C147.132 223.168 147.149 223.105 147.159 223.032C147.173 222.954 147.181 222.859 147.181 222.747C147.181 222.625 147.166 222.491 147.137 222.344C147.113 222.193 147.069 222.052 147.005 221.92C146.942 221.788 146.861 221.679 146.764 221.591C146.666 221.503 146.549 221.459 146.413 221.459C146.237 221.459 146.086 221.513 145.959 221.62C145.838 221.723 145.735 221.857 145.652 222.023C145.574 222.188 145.511 222.378 145.462 222.593C145.418 222.803 145.384 223.015 145.36 223.229C145.335 223.444 145.321 223.651 145.316 223.851C145.311 224.046 145.309 224.212 145.309 224.348L146.852 223.463ZM153.719 224.516C153.719 224.394 153.68 224.302 153.602 224.238C153.524 224.175 153.424 224.143 153.302 224.143C153.131 224.143 152.968 224.182 152.812 224.26C152.661 224.338 152.527 224.453 152.41 224.604C152.293 224.755 152.2 224.943 152.132 225.167C152.064 225.387 152.03 225.643 152.03 225.935C152.03 226.218 152.049 226.452 152.088 226.637C152.132 226.823 152.188 226.971 152.256 227.083C152.329 227.191 152.412 227.266 152.505 227.31C152.598 227.354 152.695 227.376 152.797 227.376C152.924 227.376 153.044 227.344 153.156 227.281C153.268 227.213 153.365 227.127 153.448 227.025C153.531 226.922 153.597 226.808 153.646 226.681C153.695 226.554 153.719 226.428 153.719 226.301V224.516ZM152.556 221.313C152.39 221.313 152.237 221.333 152.095 221.372C151.954 221.411 151.832 221.459 151.73 221.518C151.627 221.576 151.547 221.642 151.488 221.715C151.43 221.784 151.401 221.849 151.401 221.913C151.401 221.986 151.437 222.04 151.51 222.074C151.588 222.103 151.674 222.14 151.766 222.183C151.859 222.222 151.942 222.281 152.015 222.359C152.093 222.432 152.132 222.547 152.132 222.703C152.132 222.805 152.11 222.9 152.066 222.988C152.027 223.071 151.971 223.146 151.898 223.215C151.83 223.278 151.747 223.329 151.649 223.368C151.557 223.402 151.459 223.419 151.357 223.419C151.084 223.419 150.862 223.327 150.691 223.141C150.525 222.956 150.443 222.71 150.443 222.403C150.443 222.105 150.521 221.852 150.677 221.642C150.833 221.428 151.035 221.252 151.284 221.116C151.537 220.979 151.822 220.879 152.139 220.816C152.456 220.748 152.773 220.713 153.09 220.713C153.47 220.713 153.833 220.755 154.18 220.838C154.526 220.921 154.831 221.052 155.094 221.233C155.362 221.413 155.574 221.642 155.73 221.92C155.891 222.198 155.971 222.534 155.971 222.929V227.061C155.971 227.105 155.974 227.154 155.979 227.208C155.984 227.261 155.996 227.31 156.015 227.354C156.035 227.398 156.064 227.434 156.103 227.464C156.142 227.493 156.198 227.508 156.271 227.508C156.359 227.508 156.439 227.476 156.513 227.412C156.591 227.344 156.659 227.276 156.717 227.208L156.9 227.361C156.827 227.464 156.739 227.576 156.637 227.698C156.535 227.82 156.41 227.934 156.264 228.041C156.118 228.149 155.947 228.239 155.752 228.312C155.557 228.385 155.335 228.422 155.087 228.422C154.779 228.422 154.506 228.332 154.267 228.151C154.029 227.966 153.872 227.683 153.799 227.303C153.643 227.512 153.48 227.688 153.309 227.829C153.144 227.971 152.973 228.085 152.797 228.173C152.622 228.261 152.444 228.324 152.264 228.363C152.088 228.402 151.91 228.422 151.73 228.422C151.496 228.422 151.269 228.385 151.05 228.312C150.83 228.239 150.633 228.124 150.457 227.968C150.287 227.807 150.148 227.6 150.04 227.347C149.938 227.093 149.887 226.784 149.887 226.418C149.887 225.974 149.974 225.611 150.15 225.328C150.326 225.045 150.555 224.809 150.837 224.619C151.125 224.424 151.449 224.258 151.81 224.121C152.176 223.985 152.549 223.841 152.929 223.69C153.212 223.578 153.417 223.412 153.543 223.193C153.675 222.968 153.741 222.739 153.741 222.505C153.741 222.144 153.634 221.857 153.419 221.642C153.209 221.423 152.922 221.313 152.556 221.313ZM160.22 222.257C160.406 221.974 160.603 221.718 160.813 221.489C160.901 221.391 160.996 221.296 161.098 221.203C161.2 221.111 161.305 221.028 161.413 220.955C161.525 220.882 161.639 220.823 161.756 220.779C161.873 220.735 161.99 220.713 162.107 220.713C162.356 220.713 162.551 220.789 162.692 220.94C162.834 221.086 162.904 221.294 162.904 221.562C162.904 221.728 162.89 221.888 162.861 222.044C162.836 222.196 162.785 222.381 162.707 222.6H162.502C162.473 222.449 162.405 222.325 162.297 222.227C162.19 222.125 162.034 222.074 161.829 222.074C161.678 222.074 161.53 222.103 161.383 222.161C161.237 222.215 161.093 222.283 160.952 222.366C160.815 222.449 160.684 222.539 160.557 222.637C160.435 222.734 160.323 222.827 160.22 222.915V227.661C160.22 227.724 160.211 227.8 160.191 227.888C160.172 227.976 160.123 228.058 160.045 228.136C159.972 228.214 159.86 228.28 159.709 228.334C159.562 228.392 159.36 228.422 159.102 228.422C158.843 228.422 158.638 228.39 158.487 228.327C158.341 228.268 158.229 228.197 158.151 228.115C158.073 228.032 158.024 227.946 158.005 227.859C157.985 227.771 157.975 227.7 157.975 227.646V222.001C157.975 221.859 157.941 221.737 157.873 221.635C157.81 221.528 157.7 221.474 157.544 221.474C157.461 221.474 157.39 221.489 157.332 221.518C157.273 221.547 157.21 221.589 157.142 221.642L156.988 221.459C157.1 221.367 157.224 221.277 157.361 221.189C157.502 221.096 157.653 221.016 157.814 220.947C157.975 220.879 158.148 220.823 158.334 220.779C158.519 220.735 158.714 220.713 158.919 220.713C159.128 220.713 159.306 220.743 159.453 220.801C159.604 220.855 159.726 220.928 159.818 221.021C159.916 221.108 159.991 221.208 160.045 221.32C160.099 221.433 160.138 221.547 160.162 221.664C160.191 221.776 160.208 221.886 160.213 221.993C160.218 222.096 160.22 222.183 160.22 222.257Z"
        fill="#001E2B" />
    <mask id="mask13_50_11912" style="mask-type:luminance" maskUnits="userSpaceOnUse" x="0" y="0" width="218"
        height="387">
        <path d="M0.242676 386.024H217.02V0.643055H0.242676V386.024Z" fill="white" />
    </mask>
    <g mask="url(#mask13_50_11912)">
        <mask id="mask14_50_11912" style="mask-type:luminance" maskUnits="userSpaceOnUse" x="0" y="324" width="166"
            height="63">
            <path d="M0.240021 324.466H165.493V386.027H0.240021V324.466Z" fill="white" />
        </mask>
        <g mask="url(#mask14_50_11912)">
            <mask id="mask15_50_11912" style="mask-type:luminance" maskUnits="userSpaceOnUse" x="0" y="324" width="166"
                height="63">
                <path
                    d="M165.493 386.027H0.240021V345.201C4.04002 344.827 8.22669 344.641 12.8134 343.134C21.2 340.387 26.3067 331.881 33.9467 327.481C43.4667 322.001 56.72 324.187 63.9734 332.441C71.1867 340.641 73.5467 354.201 83.96 357.454C92.0934 359.987 101.693 354.587 109.12 358.761C113.08 361.001 115.227 365.387 118.28 368.774C125.947 377.307 138.48 378.841 149.76 380.961C155.053 381.961 160.653 383.521 165.493 386.027Z"
                    fill="white" />
            </mask>
            <g mask="url(#mask15_50_11912)">
                <mask id="mask16_50_11912" style="mask-type:luminance" maskUnits="userSpaceOnUse" x="-43730" y="-43163"
                    width="87381" height="87381">
                    <path d="M-43729.7 -43162.7H43650.3V44217.3H-43729.7V-43162.7Z"
                        fill="url(#paint6_linear_50_11912)" />
                </mask>
                <g mask="url(#mask16_50_11912)">
                    <path
                        d="M165.492 386.027H0.238281V345.201C4.03828 344.827 8.22495 344.641 12.8116 343.134C21.1983 340.387 26.3049 331.881 33.9449 327.481C43.4649 322.001 56.7183 324.187 63.9716 332.441C71.185 340.641 73.545 354.201 83.9583 357.454C92.0916 359.987 101.692 354.587 109.118 358.761C113.078 361.001 115.225 365.387 118.278 368.774C125.945 377.307 138.478 378.841 149.758 380.961C155.052 381.961 160.652 383.521 165.492 386.027Z"
                        fill="url(#paint7_linear_50_11912)" />
                </g>
            </g>
        </g>
    </g>
    <defs>
        <linearGradient id="paint0_linear_50_11912" x1="127.821" y1="335.996" x2="138.773" y2="205.576"
            gradientUnits="userSpaceOnUse">
            <stop stop-color="white" stop-opacity="0" />
            <stop offset="0.00372324" stop-color="white" stop-opacity="0" />
            <stop offset="1" stop-color="white" />
        </linearGradient>
        <linearGradient id="paint1_linear_50_11912" x1="127.818" y1="335.998" x2="138.769" y2="205.578"
            gradientUnits="userSpaceOnUse">
            <stop stop-color="#F3F4F6" />
            <stop offset="0.00372324" stop-color="#F3F4F6" />
            <stop offset="1" stop-color="#568D66" />
        </linearGradient>
        <linearGradient id="paint2_linear_50_11912" x1="89.4475" y1="282.4" x2="78.4958" y2="151.98"
            gradientUnits="userSpaceOnUse">
            <stop stop-color="white" stop-opacity="0" />
            <stop offset="0.00372324" stop-color="white" stop-opacity="0" />
            <stop offset="1" stop-color="white" />
        </linearGradient>
        <linearGradient id="paint3_linear_50_11912" x1="89.4442" y1="282.403" x2="78.4926" y2="151.983"
            gradientUnits="userSpaceOnUse">
            <stop stop-color="#F3F4F6" />
            <stop offset="0.00372324" stop-color="#F3F4F6" />
            <stop offset="1" stop-color="#568D66" />
        </linearGradient>
        <linearGradient id="paint4_linear_50_11912" x1="107.63" y1="171.259" x2="113.012" y2="24.4851"
            gradientUnits="userSpaceOnUse">
            <stop stop-color="white" stop-opacity="0" />
            <stop offset="0.00372324" stop-color="white" stop-opacity="0" />
            <stop offset="1" stop-color="white" stop-opacity="0.349996" />
        </linearGradient>
        <linearGradient id="paint5_linear_50_11912" x1="107.629" y1="171.261" x2="113.011" y2="24.4876"
            gradientUnits="userSpaceOnUse">
            <stop stop-color="#F3F4F6" />
            <stop offset="0.00372324" stop-color="#F3F4F6" />
            <stop offset="1" stop-color="#FAAC01" />
        </linearGradient>
        <linearGradient id="paint6_linear_50_11912" x1="80.4676" y1="393.045" x2="86.1658" y2="327.915"
            gradientUnits="userSpaceOnUse">
            <stop stop-color="white" stop-opacity="0" />
            <stop offset="0.00372324" stop-color="white" stop-opacity="0" />
            <stop offset="1" stop-color="white" />
        </linearGradient>
        <linearGradient id="paint7_linear_50_11912" x1="80.4649" y1="393.046" x2="86.1631" y2="327.916"
            gradientUnits="userSpaceOnUse">
            <stop stop-color="#F3F4F6" />
            <stop offset="0.00372324" stop-color="#F3F4F6" />
            <stop offset="1" stop-color="#568D66" />
        </linearGradient>
    </defs>
</svg>